<svg width="318" height="323" viewBox="0 0 318 323" fill="none" xmlns="http://www.w3.org/2000/svg">
<g clip-path="url(#clip0_1_26)">
<path d="M156.954 90.3447C157.831 90.7647 158.435 91.1736 159.114 91.8735C159.387 92.1517 159.387 92.1517 159.666 92.4355C159.856 92.6317 160.046 92.8279 160.242 93.03C161.548 94.3579 162.851 95.6513 164.275 96.8525C165.182 97.6577 166.022 98.5297 166.873 99.3926C167.628 100.154 168.395 100.885 169.212 101.579C170.412 102.602 171.506 103.719 172.613 104.84C173.586 105.821 174.59 106.741 175.643 107.636C176.558 108.454 177.41 109.333 178.271 110.206C179.033 110.974 179.806 111.71 180.629 112.412C181.754 113.371 182.787 114.415 183.824 115.467C184.586 116.235 185.359 116.971 186.182 117.673C187.308 118.632 188.34 119.676 189.378 120.728C190.139 121.496 190.912 122.232 191.735 122.934C192.71 123.764 193.614 124.654 194.512 125.564C195.404 126.469 196.302 127.353 197.27 128.177C198.471 129.2 199.565 130.317 200.672 131.438C201.645 132.418 202.649 133.338 203.702 134.233C204.617 135.051 205.469 135.93 206.33 136.804C207.091 137.571 207.865 138.308 208.688 139.009C209.813 139.969 210.845 141.013 211.883 142.064C212.645 142.832 213.418 143.569 214.241 144.27C215.366 145.23 216.399 146.274 217.437 147.326C218.198 148.093 218.971 148.83 219.794 149.531C220.768 150.362 221.672 151.251 222.571 152.162C223.463 153.066 224.361 153.95 225.329 154.774C226.53 155.797 227.624 156.914 228.731 158.035C229.704 159.016 230.708 159.936 231.761 160.831C232.675 161.649 233.527 162.528 234.389 163.401C235.15 164.169 235.924 164.905 236.746 165.607C237.872 166.566 238.904 167.61 239.942 168.662C240.704 169.43 241.477 170.166 242.3 170.868C243.425 171.827 244.458 172.871 245.495 173.923C246.257 174.691 247.03 175.427 247.853 176.129C248.827 176.959 249.731 177.849 250.63 178.759C251.522 179.664 252.419 180.548 253.388 181.371C254.588 182.394 255.682 183.512 256.79 184.633C257.763 185.613 258.766 186.533 259.819 187.428C260.734 188.246 261.586 189.125 262.448 189.998C263.209 190.766 263.982 191.503 264.805 192.204C265.93 193.163 266.962 194.207 268 195.258C268.945 196.211 269.924 197.1 270.945 197.971C272.067 198.967 273.109 200.047 274.158 201.119C273.766 201.997 273.34 202.579 272.642 203.238C271.938 203.921 271.271 204.612 270.633 205.357C269.621 206.53 268.568 207.661 267.509 208.791C265.717 210.703 263.942 212.629 262.175 214.563C261.645 215.142 261.115 215.721 260.585 216.299C260.453 216.443 260.322 216.587 260.186 216.735C259.047 217.977 257.905 219.214 256.762 220.451C255.787 221.507 254.815 222.564 253.845 223.624C252.58 225.006 251.31 226.383 250.039 227.758C249.065 228.814 248.092 229.871 247.122 230.931C245.857 232.313 244.588 233.69 243.317 235.065C242.342 236.121 241.37 237.178 240.4 238.238C239.135 239.62 237.866 240.997 236.595 242.372C235.62 243.428 234.648 244.485 233.677 245.545C232.413 246.927 231.143 248.304 229.872 249.679C228.897 250.735 227.925 251.792 226.955 252.852C225.693 254.231 224.426 255.606 223.157 256.979C221.973 258.26 220.793 259.546 219.615 260.833C218.655 261.883 218.655 261.883 218.333 262.205C215.698 262.161 213.104 261.713 210.518 261.245C209.971 261.148 209.971 261.148 209.413 261.049C208.459 260.88 207.504 260.709 206.549 260.538C205.57 260.362 204.59 260.188 203.61 260.015C201.697 259.675 199.785 259.333 197.873 258.99C197.996 261.849 198.261 264.681 198.588 267.524C198.647 268.038 198.647 268.038 198.707 268.562C198.872 269.993 199.039 271.423 199.208 272.853C199.332 273.908 199.453 274.963 199.574 276.019C199.613 276.342 199.652 276.665 199.692 276.997C199.727 277.298 199.761 277.599 199.796 277.909C199.827 278.172 199.858 278.435 199.89 278.706C199.936 279.881 199.812 280.663 199.105 281.611C198.885 281.844 198.666 282.077 198.44 282.317C198.202 282.572 197.964 282.826 197.719 283.088C196.894 283.939 196.057 284.777 195.212 285.609C194.667 286.162 194.159 286.734 193.653 287.323C192.903 288.197 192.117 289.016 191.297 289.825C190.483 290.629 189.703 291.441 188.959 292.31C188.008 293.419 186.984 294.436 185.945 295.461C185.364 296.049 184.82 296.651 184.282 297.279C183.332 298.387 182.307 299.405 181.268 300.43C180.688 301.018 180.143 301.62 179.606 302.247C178.655 303.356 177.631 304.373 176.592 305.398C176.012 305.987 175.467 306.589 174.929 307.216C173.979 308.325 172.954 309.342 171.915 310.367C171.335 310.956 170.79 311.558 170.253 312.185C169.302 313.294 168.278 314.311 167.239 315.336C166.483 316.102 165.787 316.907 165.088 317.724C164.27 318.64 163.392 319.491 162.512 320.346C161.966 320.909 161.501 321.484 161.046 322.122C159.899 321.666 159.277 320.94 158.47 320.022C156.991 318.362 155.441 316.788 153.853 315.233C152.958 314.35 152.098 313.454 151.277 312.5C150.164 311.209 148.963 310.018 147.747 308.824C146.354 307.455 145.015 306.07 143.74 304.59C142.787 303.517 141.756 302.522 140.733 301.517C139.523 300.329 138.329 299.145 137.225 297.857C136.51 297.025 135.764 296.252 134.969 295.494C134.763 295.297 134.558 295.1 134.346 294.897C133.921 294.494 133.493 294.093 133.063 293.694C132.86 293.498 132.657 293.303 132.448 293.101C132.264 292.928 132.079 292.754 131.889 292.576C131.526 292.018 131.526 292.018 131.509 291.331C131.941 290.249 132.675 289.56 133.501 288.769C133.671 288.602 133.841 288.434 134.016 288.262C134.559 287.727 135.107 287.196 135.654 286.665C136.369 285.967 137.081 285.268 137.794 284.568C137.966 284.399 138.139 284.23 138.316 284.056C139.342 283.045 140.31 282.007 141.242 280.907C142.548 279.431 143.993 278.075 145.397 276.691C147.359 274.762 147.359 274.762 149.209 272.727C150.661 271.029 152.283 269.49 153.873 267.923C155.833 265.996 155.833 265.996 157.68 263.963C159.027 262.388 160.522 260.955 161.996 259.501C162.571 258.934 163.144 258.367 163.718 257.798C163.969 257.55 164.221 257.301 164.481 257.045C165.049 256.452 165.542 255.86 166.015 255.19C165.62 254.309 165.18 253.699 164.496 253.02C164.311 252.835 164.126 252.65 163.935 252.46C163.741 252.27 163.547 252.08 163.348 251.884C163.161 251.697 162.974 251.511 162.781 251.318C161.84 250.385 160.883 249.485 159.879 248.62C158.438 247.374 157.118 246.016 155.785 244.657C154.838 243.699 153.883 242.771 152.862 241.892C151.42 240.649 150.102 239.292 148.77 237.934C147.823 236.976 146.868 236.049 145.847 235.169C144.405 233.927 143.088 232.57 141.756 231.212C140.809 230.254 139.854 229.326 138.833 228.447C137.39 227.204 136.073 225.848 134.741 224.49C133.794 223.531 132.839 222.604 131.818 221.724C130.376 220.482 129.058 219.125 127.726 217.767C126.779 216.809 125.824 215.881 124.803 215.002C123.361 213.76 122.044 212.403 120.711 211.045C119.764 210.087 118.81 209.159 117.789 208.279C116.346 207.037 115.029 205.68 113.697 204.322C112.545 203.157 111.366 202.049 110.12 200.985C109.635 200.56 109.178 200.119 108.728 199.657C107.639 200.112 106.949 200.78 106.12 201.61C105.979 201.75 105.839 201.891 105.694 202.035C105.224 202.504 104.755 202.976 104.287 203.447C103.95 203.784 103.613 204.121 103.276 204.458C102.361 205.373 101.448 206.29 100.535 207.206C99.5808 208.164 98.6248 209.121 97.6691 210.077C95.8596 211.888 94.0516 213.701 92.2441 215.514C90.1862 217.579 88.1267 219.642 86.067 221.704C81.8302 225.947 77.5955 230.192 73.3622 234.438C72.3541 233.966 71.8034 233.483 71.0788 232.63C69.7139 231.07 68.2637 229.614 66.7838 228.163C65.8745 227.266 65.0006 226.357 64.1668 225.389C63.1015 224.154 61.9581 223.012 60.7942 221.87C59.4473 220.549 58.1607 219.208 56.9295 217.779C56.023 216.759 55.0455 215.811 54.0718 214.856C52.9136 213.72 51.7761 212.585 50.7197 211.353C49.9996 210.516 49.2499 209.735 48.4545 208.969C48.2488 208.771 48.0431 208.573 47.8311 208.369C47.4054 207.961 46.9776 207.557 46.5478 207.154C46.3451 206.957 46.1424 206.76 45.9336 206.558C45.7492 206.383 45.5647 206.208 45.3747 206.028C45.0111 205.503 45.0111 205.503 45.0503 204.906C45.488 203.916 46.3196 203.241 47.0936 202.507C48.1146 201.526 49.1076 200.545 50.0259 199.466C51.2139 198.101 52.4842 196.829 53.7703 195.556C54.0156 195.312 54.2609 195.068 54.5136 194.816C55.5532 193.781 56.5945 192.748 57.6358 191.715C58.3999 190.956 59.1632 190.196 59.9265 189.437C60.1588 189.207 60.3912 188.977 60.6306 188.74C61.6456 187.729 62.6362 186.714 63.5708 185.628C64.7208 184.292 65.9629 183.058 67.2152 181.819C67.5831 181.453 67.5831 181.453 67.9584 181.079C68.998 180.044 70.0394 179.011 71.0806 177.978C71.8448 177.219 72.6081 176.459 73.3713 175.699C73.6037 175.47 73.836 175.24 74.0754 175.003C75.0904 173.992 76.081 172.976 77.0157 171.891C78.1656 170.555 79.4077 169.321 80.66 168.082C81.0279 167.716 81.0279 167.716 81.4033 167.342C82.4429 166.307 83.4843 165.274 84.5255 164.241C85.2896 163.482 86.0529 162.722 86.8162 161.962C87.0485 161.732 87.2809 161.502 87.5203 161.266C88.5353 160.255 89.5259 159.239 90.4605 158.154C91.6105 156.818 92.8526 155.584 94.1049 154.345C94.4728 153.979 94.4728 153.979 94.8481 153.605C95.8877 152.57 96.9291 151.537 97.9703 150.504C98.7345 149.745 99.4978 148.985 100.261 148.225C100.493 147.995 100.726 147.765 100.965 147.528C101.98 146.518 102.971 145.502 103.905 144.416C105.055 143.081 106.297 141.847 107.55 140.608C107.918 140.241 107.918 140.241 108.293 139.868C109.333 138.833 110.374 137.8 111.415 136.766C112.179 136.008 112.943 135.248 113.706 134.488C113.938 134.258 114.171 134.028 114.41 133.791C115.425 132.781 116.416 131.765 117.35 130.679C118.5 129.343 119.742 128.11 120.995 126.871C121.24 126.626 121.485 126.382 121.738 126.131C122.777 125.096 123.819 124.063 124.86 123.029C125.624 122.27 126.387 121.511 127.151 120.751C127.383 120.521 127.615 120.291 127.855 120.054C128.87 119.044 129.86 118.028 130.795 116.942C131.945 115.606 133.187 114.373 134.439 113.133C134.685 112.889 134.93 112.645 135.183 112.394C136.222 111.359 137.264 110.326 138.305 109.292C139.069 108.533 139.832 107.774 140.596 107.014C140.828 106.784 141.06 106.554 141.3 106.317C142.312 105.309 143.3 104.297 144.231 103.214C145.427 101.825 146.721 100.541 148.02 99.2501C148.277 98.9939 148.533 98.7377 148.798 98.4738C149.61 97.6632 150.423 96.8537 151.236 96.0442C151.79 95.4917 152.344 94.9391 152.898 94.3864C154.249 93.0384 155.601 91.6912 156.954 90.3447ZM157.921 148.923C157.732 149.114 157.543 149.304 157.348 149.5C157.148 149.699 156.949 149.898 156.743 150.102C156.08 150.762 155.42 151.424 154.76 152.086C154.302 152.544 153.844 153.001 153.386 153.458C152.425 154.418 151.466 155.379 150.507 156.341C149.275 157.576 148.041 158.808 146.805 160.04C145.859 160.984 144.914 161.93 143.97 162.876C143.515 163.331 143.06 163.786 142.604 164.24C141.968 164.874 141.335 165.51 140.702 166.147C140.511 166.336 140.321 166.525 140.125 166.72C139.167 167.545 139.167 167.545 138.833 168.676C139.252 169.099 139.252 169.099 139.81 169.543C141.661 171.117 143.332 172.869 145.036 174.598C146.156 175.728 147.269 176.847 148.478 177.882C150.258 179.407 151.867 181.114 153.512 182.782C154.813 184.094 156.125 185.357 157.528 186.559C159.022 187.889 160.396 189.352 161.8 190.777C162.882 191.869 163.96 192.948 165.129 193.949C166.912 195.477 168.524 197.186 170.172 198.857C171.292 199.987 172.405 201.106 173.614 202.142C175.394 203.666 177.003 205.373 178.648 207.041C179.768 208.171 180.881 209.29 182.09 210.325C183.871 211.85 185.48 213.557 187.124 215.225C188.428 216.54 189.744 217.807 191.15 219.011C192.567 220.273 193.866 221.665 195.189 223.023C195.526 223.365 195.526 223.365 195.871 223.714C196.073 223.922 196.276 224.129 196.484 224.343C196.956 224.858 196.956 224.858 197.581 224.793C198.01 224.369 198.01 224.369 198.458 223.807C199.294 222.821 200.167 221.901 201.088 220.994C201.945 220.147 202.773 219.298 203.554 218.381C204.392 217.402 205.286 216.491 206.203 215.586C207.114 214.688 208.003 213.784 208.834 212.81C209.793 211.685 210.836 210.653 211.888 209.615C212.841 208.67 213.732 207.691 214.601 206.667C215.434 205.733 216.341 204.873 217.245 204.007C217.814 203.509 217.814 203.509 217.748 202.872C217.364 202.484 217.364 202.484 216.835 202.069C215.612 201.033 214.489 199.92 213.364 198.78C211.802 197.198 211.802 197.198 210.149 195.711C209.013 194.752 207.979 193.699 206.934 192.643C205.381 191.068 205.381 191.068 203.737 189.592C202.331 188.404 201.064 187.072 199.77 185.766C198.701 184.69 197.617 183.663 196.456 182.686C195.336 181.679 194.294 180.593 193.235 179.523C192.37 178.652 191.505 177.799 190.566 177.006C189.234 175.88 188.031 174.624 186.805 173.385C185.94 172.514 185.075 171.661 184.136 170.868C182.803 169.742 181.601 168.486 180.375 167.247C179.509 166.376 178.645 165.523 177.706 164.73C176.57 163.77 175.536 162.717 174.491 161.661C172.938 160.087 172.938 160.087 171.294 158.61C169.888 157.423 168.622 156.091 167.329 154.785C166.249 153.699 165.155 152.658 163.981 151.673C162.958 150.757 162.008 149.764 161.056 148.774C160.674 148.383 160.276 148.006 159.877 147.631C158.942 147.631 158.55 148.3 157.921 148.923Z" fill="#12B966"/>
<path d="M154.889 0.394669C155.918 0.770287 156.58 1.62669 157.32 2.4053C157.66 2.75522 158.001 3.10459 158.343 3.4534C158.506 3.62097 158.67 3.78853 158.839 3.96118C159.551 4.67335 160.311 5.32101 161.078 5.97203C161.965 6.7563 162.782 7.60933 163.613 8.45183C164.201 9.03192 164.803 9.57666 165.43 10.1142C166.539 11.0646 167.556 12.0891 168.581 13.1283C169.17 13.7084 169.772 14.2531 170.399 14.7906C171.507 15.7407 172.524 16.7648 173.549 17.8036C174.323 18.5672 175.137 19.2722 175.963 19.9797C176.776 20.7023 177.529 21.4793 178.292 22.254C178.852 22.8056 179.429 23.3214 180.026 23.833C180.9 24.5839 181.719 25.3692 182.529 26.1895C183.332 27.0039 184.145 27.7834 185.013 28.5278C186.122 29.4782 187.139 30.5027 188.164 31.5419C188.753 32.122 189.355 32.6667 189.982 33.2042C191.09 34.1543 192.107 35.1784 193.132 36.2172C193.906 36.9808 194.72 37.6858 195.545 38.3933C196.358 39.1159 197.112 39.8929 197.874 40.6676C198.435 41.2192 199.012 41.735 199.609 42.2466C200.483 42.9975 201.302 43.7828 202.111 44.6031C202.915 45.4175 203.727 46.197 204.596 46.9414C205.705 47.8918 206.722 48.9163 207.747 49.9555C208.335 50.5356 208.937 51.0803 209.564 51.6178C210.673 52.5679 211.69 53.592 212.714 54.6308C213.489 55.3944 214.303 56.0994 215.128 56.8069C215.941 57.5295 216.694 58.3065 217.457 59.0812C218.018 59.6328 218.595 60.1486 219.191 60.6602C220.065 61.4111 220.885 62.1964 221.694 63.0167C222.497 63.8311 223.31 64.6106 224.178 65.355C225.287 66.3054 226.304 67.3299 227.33 68.3691C227.918 68.9492 228.52 69.4939 229.147 70.0314C230.256 70.9815 231.272 72.0056 232.297 73.0444C233.072 73.808 233.886 74.513 234.711 75.2205C235.524 75.9431 236.277 76.7201 237.04 77.4948C237.6 78.0464 238.177 78.5622 238.774 79.0738C239.648 79.8248 240.468 80.61 241.277 81.4303C242.08 82.2447 242.893 83.0242 243.761 83.7686C244.87 84.719 245.887 85.7435 246.912 86.7827C247.501 87.3628 248.103 87.9075 248.73 88.445C249.838 89.3951 250.855 90.4192 251.88 91.458C252.654 92.2216 253.468 92.9266 254.293 93.6341C255.107 94.3567 255.86 95.1337 256.623 95.9084C257.183 96.46 257.76 96.9758 258.357 97.4874C259.231 98.2384 260.05 99.0236 260.86 99.8439C261.663 100.658 262.475 101.438 263.344 102.182C264.453 103.133 265.47 104.157 266.495 105.196C267.083 105.776 267.686 106.321 268.313 106.859C269.421 107.809 270.438 108.833 271.463 109.872C272.237 110.635 273.051 111.34 273.876 112.048C274.689 112.77 275.442 113.547 276.205 114.322C276.766 114.874 277.343 115.389 277.94 115.901C278.814 116.652 279.633 117.437 280.442 118.258C281.246 119.072 282.058 119.851 282.927 120.596C284.035 121.546 285.053 122.571 286.078 123.61C286.666 124.19 287.268 124.735 287.895 125.272C289.004 126.222 290.021 127.246 291.045 128.285C291.82 129.049 292.634 129.754 293.459 130.461C294.272 131.184 295.025 131.961 295.788 132.736C296.348 133.287 296.926 133.803 297.522 134.315C298.396 135.066 299.216 135.851 300.025 136.671C300.828 137.486 301.641 138.265 302.509 139.009C303.618 139.96 304.635 140.984 305.66 142.024C306.249 142.604 306.851 143.148 307.478 143.686C308.586 144.636 309.603 145.66 310.628 146.699C311.402 147.462 312.216 148.167 313.041 148.874C313.857 149.6 314.614 150.38 315.38 151.158C316.215 151.98 317.1 152.727 318 153.477C317.611 154.334 317.179 154.967 316.533 155.65C316.357 155.838 316.18 156.026 315.998 156.219C315.714 156.517 315.714 156.517 315.424 156.82C315.229 157.026 315.034 157.233 314.834 157.445C313.429 158.924 312 160.378 310.54 161.803C309.737 162.592 308.98 163.402 308.245 164.255C306.989 165.708 305.622 167.039 304.252 168.383C303.294 169.33 302.366 170.285 301.486 171.306C300.244 172.749 298.887 174.066 297.529 175.398C296.38 176.534 295.296 177.699 294.242 178.923C293.438 179.833 292.578 180.684 291.713 181.536C291.541 181.707 291.369 181.877 291.192 182.053C290.776 182.466 290.359 182.878 289.941 183.29C287.689 181.366 285.463 179.424 283.31 177.389C282.899 177.002 282.487 176.614 282.075 176.227C281.772 175.942 281.772 175.942 281.463 175.651C280.634 174.874 279.799 174.103 278.963 173.334C277.599 172.079 276.242 170.818 274.889 169.553C272.899 167.693 270.9 165.844 268.897 163.999C266.706 161.981 264.522 159.957 262.346 157.923C261.019 156.684 259.686 155.45 258.351 154.22C257.13 153.095 255.916 151.962 254.703 150.828C253.4 149.61 252.093 148.397 250.776 147.193C249.269 145.816 247.776 144.426 246.285 143.032C245.107 141.93 243.925 140.833 242.738 139.74C241.363 138.473 239.994 137.199 238.628 135.922C237.325 134.704 236.017 133.491 234.701 132.287C233.194 130.91 231.701 129.519 230.21 128.125C229.032 127.024 227.849 125.927 226.663 124.834C225.287 123.567 223.919 122.293 222.553 121.016C221.249 119.798 219.942 118.584 218.625 117.381C217.119 116.004 215.625 114.613 214.135 113.219C212.956 112.118 211.774 111.02 210.587 109.928C209.212 108.661 207.843 107.387 206.477 106.11C205.174 104.891 203.867 103.678 202.55 102.474C201.043 101.097 199.55 99.7069 198.059 98.3129C196.881 97.2114 195.699 96.1142 194.512 95.0213C193.137 93.7544 191.768 92.4807 190.402 91.2034C189.099 89.985 187.791 88.7719 186.474 87.5682C184.968 86.1912 183.475 84.8006 181.984 83.4067C180.806 82.3051 179.623 81.2079 178.437 80.1151C177.061 78.8482 175.692 77.5744 174.327 76.2972C173.023 75.0788 171.716 73.8657 170.399 72.662C168.893 71.285 167.399 69.8944 165.909 68.5004C164.73 67.3989 163.548 66.3017 162.361 65.2088C160.257 63.2706 158.167 61.3171 156.077 59.3632C154.92 60.3398 153.786 61.3221 152.716 62.3956C152.413 62.6974 152.413 62.6974 152.104 63.0053C151.565 63.5744 151.058 64.1486 150.551 64.7453C148.723 66.8486 146.689 68.7666 144.71 70.725C142.36 73.0169 142.36 73.0169 140.148 75.4386C138.399 77.4991 136.4 79.3479 134.48 81.2471C131.89 83.8048 131.89 83.8048 129.454 86.5064C127.862 88.2837 126.113 89.9248 124.417 91.6018C122.137 93.8284 122.137 93.8284 119.99 96.1813C118.237 98.2441 116.236 100.097 114.313 101.999C111.963 104.291 111.963 104.291 109.751 106.713C108.002 108.773 106.003 110.622 104.083 112.521C101.493 115.079 101.493 115.079 99.0566 117.78C97.4649 119.558 95.7164 121.199 94.0204 122.876C91.7397 125.102 91.7397 125.102 89.5929 127.455C87.8394 129.518 85.8387 131.37 83.9155 133.273C81.566 135.565 81.566 135.565 79.354 137.986C77.6048 140.047 75.6057 141.896 73.6857 143.795C71.096 146.353 71.096 146.353 68.6596 149.054C67.0678 150.832 65.3193 152.473 63.6233 154.15C61.3427 156.376 61.3427 156.376 59.1959 158.729C57.4424 160.792 55.4416 162.644 53.5184 164.547C51.1689 166.839 51.1689 166.839 48.957 169.26C47.2077 171.321 45.2086 173.17 43.2886 175.069C40.9432 177.356 40.9432 177.356 38.7352 179.773C37.1083 181.69 35.2665 183.419 33.4844 185.19C33.0994 185.573 32.7145 185.957 32.3296 186.34C31.394 187.273 30.4574 188.204 29.5204 189.135C28.538 188.708 27.8902 188.165 27.1324 187.412C26.8918 187.174 26.6512 186.937 26.4034 186.692C26.142 186.431 25.8807 186.169 25.6114 185.9C25.3315 185.623 25.0516 185.345 24.7715 185.068C24.0123 184.315 23.255 183.56 22.4982 182.805C22.0255 182.333 21.5525 181.862 21.0793 181.391C19.4294 179.748 17.7811 178.104 16.1341 176.458C14.5975 174.922 13.0571 173.391 11.5149 171.861C10.1915 170.548 8.87093 169.231 7.55251 167.913C6.76474 167.126 5.97585 166.339 5.18406 165.556C4.44025 164.82 3.69998 164.08 2.96233 163.338C2.56067 162.935 2.15539 162.537 1.75002 162.138C1.51356 161.898 1.27711 161.659 1.03349 161.413C0.721756 161.102 0.721755 161.102 0.403725 160.785C0.00018555 160.2 0.000185545 160.2 0.0533609 159.574C0.367571 158.86 0.783629 158.436 1.33956 157.889C1.56115 157.668 1.78274 157.447 2.01105 157.22C2.25246 156.984 2.49386 156.748 2.74258 156.505C2.99033 156.259 3.23808 156.013 3.49333 155.76C4.28762 154.973 5.08479 154.188 5.8823 153.404C6.67306 152.624 7.46318 151.843 8.2525 151.061C8.74375 150.574 9.23591 150.089 9.72911 149.604C10.9515 148.397 12.114 147.166 13.2337 145.863C14.1239 144.856 15.0829 143.918 16.039 142.973C16.3583 142.656 16.3583 142.656 16.6839 142.332C17.5839 141.437 18.4856 140.543 19.3871 139.65C20.0497 138.992 20.7114 138.334 21.3731 137.676C21.5735 137.478 21.7739 137.28 21.9804 137.076C22.9213 136.14 23.8305 135.192 24.6978 134.187C25.7512 132.966 26.8758 131.831 28.0225 130.698C28.2353 130.486 28.4481 130.274 28.6674 130.056C29.5673 129.161 30.469 128.267 31.3705 127.374C32.0332 126.717 32.6949 126.058 33.3566 125.4C33.557 125.202 33.7573 125.004 33.9638 124.8C34.9046 123.864 35.8135 122.917 36.6806 121.912C37.7374 120.687 38.8659 119.548 40.0162 118.412C40.3365 118.093 40.3365 118.093 40.6632 117.768C41.3385 117.096 42.0147 116.425 42.6912 115.755C43.5845 114.869 44.4768 113.983 45.3686 113.096C45.6714 112.797 45.6714 112.797 45.9804 112.491C46.1726 112.3 46.3648 112.109 46.5629 111.912C46.7293 111.747 46.8958 111.582 47.0673 111.412C47.2569 111.211 47.4464 111.011 47.6417 110.804C47.8555 110.615 47.8555 110.615 48.0736 110.422C49.4054 109.117 49.6024 108.062 49.6294 106.23C49.6254 105.899 49.6215 105.569 49.6174 105.228C49.6201 104.873 49.6228 104.518 49.6255 104.152C49.6312 103.17 49.6291 102.189 49.6236 101.207C49.6197 100.147 49.6258 99.0866 49.6307 98.0265C49.6378 96.1909 49.6386 94.3555 49.6349 92.52C49.6297 89.8661 49.6341 87.2124 49.6409 84.5586C49.6516 80.2527 49.6545 75.9469 49.6526 71.6411C49.6507 67.4588 49.6524 63.2767 49.6591 59.0944C49.6595 58.8339 49.66 58.5734 49.6604 58.305C49.6636 56.2676 49.6671 54.2302 49.6706 52.1928C49.6879 42.2097 49.6865 32.2268 49.6877 22.2438C66.6633 22.2438 83.6388 22.2438 101.129 22.2438C101.225 33.2393 101.322 44.2349 101.421 55.5636C103.987 53.0233 103.987 53.0233 106.359 50.3974C107.259 49.404 108.214 48.4689 109.167 47.5259C110.825 45.8934 110.825 45.8934 112.382 44.1647C113.562 42.7632 114.89 41.5037 116.19 40.2155C117.096 39.3152 117.988 38.4199 118.812 37.4423C119.992 36.0408 121.32 34.7812 122.621 33.4931C123.526 32.5928 124.419 31.6975 125.242 30.7199C126.422 29.3183 127.75 28.0588 129.051 26.7707C129.956 25.8703 130.849 24.9751 131.672 23.9974C132.852 22.5959 134.18 21.3364 135.481 20.0482C136.387 19.1479 137.279 18.2526 138.102 17.275C139.282 15.8735 140.61 14.614 141.911 13.3258C142.817 12.4255 143.709 11.5302 144.532 10.5526C145.711 9.15268 147.037 7.8945 148.337 6.60789C149.449 5.50191 150.514 4.37691 151.533 3.18395C152.079 2.55229 152.637 1.93552 153.209 1.32752C153.394 1.12821 153.579 0.928904 153.77 0.723555C154.324 0.322813 154.324 0.322813 154.889 0.394669Z" fill="#0C0C0C"/>
</g>
<defs>
<clipPath id="clip0_1_26">
<rect width="318" height="321.8" fill="white" transform="translate(0 0.322632)"/>
</clipPath>
</defs>
</svg>
