<svg width="1000" height="500" viewBox="0 0 1000 500" fill="none" xmlns="http://www.w3.org/2000/svg">
<path d="M216 91.9999C234.282 91.9294 252.564 91.8767 270.847 91.8444C279.338 91.829 287.829 91.8081 296.32 91.7735C303.731 91.7434 311.141 91.7242 318.552 91.7176C322.467 91.7137 326.382 91.7048 330.297 91.6827C363.823 91.5007 394.228 93.7859 421 116C422.274 117.029 422.274 117.029 423.574 118.078C444.831 136.098 456.419 161.568 459 189C460.872 216.975 452.795 244.037 434.438 265.374C423.601 277.624 412.08 287.33 397 294C396.34 294 395.68 294 395 294C401.887 306.401 408.817 318.767 416 331C420.764 339.114 425.424 347.278 430 355.5C436.338 366.887 442.883 378.145 449.473 389.389C451.622 393.063 453.756 396.746 455.875 400.437C456.491 401.509 457.107 402.58 457.742 403.683C459 406 459 406 459 407C438.54 407 418.08 407 397 407C393.504 400.874 393.504 400.874 389.938 394.625C379.133 375.711 368.256 356.841 357.267 338.034C349.826 325.29 342.47 312.497 335.104 299.709C333.216 296.431 331.327 293.153 329.438 289.875C328.826 288.813 328.215 287.752 327.586 286.658C324.409 281.147 321.212 275.65 317.98 270.172C317.333 269.072 316.686 267.973 316.02 266.84C314.785 264.745 313.546 262.652 312.302 260.562C311.751 259.626 311.201 258.69 310.633 257.726C310.147 256.907 309.661 256.088 309.161 255.244C308.067 253.13 307.529 251.303 307 249C307.679 248.994 308.359 248.988 309.059 248.982C316.165 248.918 323.271 248.833 330.376 248.737C333.024 248.704 335.672 248.676 338.32 248.653C342.138 248.62 345.956 248.567 349.773 248.512C350.947 248.505 352.12 248.499 353.329 248.492C366.144 248.266 378.74 244.455 388.469 235.66C398.951 224.295 404.865 212.36 405.035 196.769C404.433 184.485 400.833 174.487 393 165C392.353 164.216 391.706 163.432 391.039 162.625C383.503 154.333 371.907 147.626 360.55 146.828C357.618 146.771 354.692 146.779 351.76 146.808C350.093 146.812 350.093 146.812 348.392 146.816C345.987 146.823 343.581 146.834 341.176 146.848C337.368 146.867 333.56 146.869 329.752 146.866C318.926 146.856 308.102 146.855 297.277 146.921C290.649 146.961 284.021 146.959 277.393 146.933C274.87 146.931 272.347 146.943 269.824 146.97C266.295 147.006 262.769 146.993 259.24 146.968C258.201 146.991 257.162 147.013 256.091 147.036C251.946 146.966 249.132 146.904 245.822 144.261C244.032 142.251 242.485 140.241 241 138C240.336 137.002 239.671 136.003 238.987 134.975C238.459 134.036 237.931 133.096 237.387 132.129C236.783 131.067 236.179 130.006 235.557 128.912C234.94 127.807 234.323 126.701 233.688 125.562C232.378 123.249 231.069 120.937 229.758 118.625C229.123 117.5 228.487 116.374 227.833 115.215C226.189 112.331 224.512 109.472 222.805 106.625C222.101 105.452 222.101 105.452 221.384 104.255C220.525 102.83 219.662 101.408 218.794 99.9884C216 95.3282 216 95.3282 216 91.9999Z" fill="#0E9F6E"/>
<path d="M834 92C836.197 94.0373 837.64 95.9049 838.978 98.5807C839.525 99.6642 839.525 99.6642 840.083 100.77C840.475 101.561 840.867 102.352 841.271 103.168C841.694 104.01 842.117 104.853 842.553 105.72C843.973 108.55 845.384 111.385 846.796 114.219C847.81 116.246 848.826 118.273 849.841 120.299C852.601 125.809 855.353 131.322 858.103 136.836C860.978 142.597 863.859 148.355 866.739 154.114C871.575 163.783 876.405 173.456 881.233 183.129C886.203 193.089 891.178 203.046 896.158 213.001C902.157 224.991 908.151 236.984 914.142 248.978C916.432 253.562 918.724 258.146 921.017 262.73C923.713 268.121 926.406 273.515 929.096 278.91C930.086 280.895 931.078 282.879 932.071 284.863C933.421 287.56 934.766 290.259 936.11 292.959C936.509 293.753 936.907 294.546 937.318 295.364C940 300.772 940 300.772 940 303C920.2 303 900.4 303 880 303C868.738 281.601 868.738 281.601 863.688 270.938C857.479 257.948 851.074 245.06 844.625 232.188C844.147 231.233 843.668 230.278 843.175 229.294C840.453 223.861 837.728 218.43 835 213C827.244 227.542 819.833 242.241 812.5 257C810.367 261.293 808.231 265.584 806.094 269.875C805.63 270.811 805.166 271.747 804.688 272.711C801.679 278.752 798.564 284.73 795.405 290.693C789.223 302.381 783.331 314.212 777.43 326.043C776.256 328.392 775.082 330.742 773.908 333.091C771.162 338.586 768.418 344.082 765.675 349.579C762.235 356.47 758.793 363.359 755.352 370.248C749.232 382.497 743.116 394.749 737 407C717.2 407 697.4 407 677 407C687.338 385.175 687.338 385.175 692.701 374.478C693.319 373.241 693.938 372.003 694.556 370.766C696.221 367.433 697.889 364.101 699.557 360.77C701.368 357.152 703.177 353.533 704.986 349.914C708.11 343.666 711.235 337.42 714.361 331.173C718.88 322.142 723.397 313.11 727.914 304.078C735.245 289.418 742.578 274.76 749.911 260.102C757.029 245.875 764.146 231.649 771.262 217.421C771.702 216.542 772.141 215.663 772.594 214.757C774.801 210.346 777.007 205.935 779.213 201.524C797.473 165.014 815.735 128.507 834 92Z" fill="#0E9F6E"/>
<path d="M164 92C166.197 94.0373 167.64 95.9049 168.978 98.5807C169.525 99.6642 169.525 99.6642 170.083 100.77C170.475 101.561 170.867 102.352 171.271 103.168C171.694 104.01 172.117 104.853 172.553 105.72C173.973 108.55 175.384 111.385 176.796 114.219C177.81 116.246 178.826 118.273 179.841 120.299C182.601 125.809 185.353 131.322 188.103 136.836C190.978 142.597 193.859 148.355 196.739 154.114C201.575 163.783 206.405 173.456 211.233 183.129C216.203 193.089 221.178 203.046 226.158 213.001C232.157 224.991 238.151 236.984 244.142 248.978C246.432 253.562 248.724 258.146 251.017 262.73C253.713 268.121 256.406 273.515 259.096 278.91C260.086 280.895 261.078 282.879 262.071 284.863C263.421 287.56 264.766 290.259 266.11 292.959C266.509 293.753 266.907 294.546 267.318 295.364C270 300.772 270 300.772 270 303C250.2 303 230.4 303 210 303C198.738 281.601 198.738 281.601 193.688 270.938C187.479 257.948 181.074 245.06 174.625 232.188C174.147 231.233 173.668 230.278 173.175 229.294C170.453 223.861 167.728 218.43 165 213C157.244 227.542 149.833 242.241 142.5 257C140.367 261.293 138.231 265.584 136.094 269.875C135.63 270.811 135.166 271.747 134.688 272.711C131.679 278.752 128.564 284.73 125.405 290.693C119.223 302.381 113.331 314.212 107.43 326.043C106.256 328.392 105.082 330.742 103.908 333.091C101.162 338.586 98.4177 344.082 95.6745 349.579C92.2354 356.47 88.7935 363.359 85.3516 370.248C79.2317 382.497 73.116 394.749 67 407C47.2 407 27.4 407 7 407C17.3381 385.175 17.3381 385.175 22.7009 374.478C23.3194 373.241 23.9376 372.003 24.5557 370.766C26.221 367.433 27.8887 364.101 29.5569 360.77C31.3681 357.152 33.1769 353.533 34.986 349.914C38.1095 343.666 41.2345 337.42 44.3606 331.173C48.8801 322.142 53.3974 313.11 57.9142 304.078C65.245 289.418 72.5776 274.76 79.9114 260.102C87.0292 245.875 94.1461 231.649 101.262 217.421C101.702 216.542 102.141 215.663 102.594 214.757C104.801 210.346 107.007 205.935 109.213 201.524C127.473 165.014 145.735 128.507 164 92Z" fill="#0E9F6E"/>
<path d="M489 249C558.3 249 627.6 249 699 249C699 266.82 699 284.64 699 303C647.19 303 595.38 303 542 303C542 337.32 542 371.64 542 407C524.51 407 507.02 407 489 407C489 354.86 489 302.72 489 249Z" fill="#0E9F6E"/>
<path d="M489 92C558.3 92 627.6 92 699 92C699 109.82 699 127.64 699 146C679.296 147.189 659.623 148.139 639.892 148.694C630.724 148.959 621.58 149.319 612.428 149.923C547.232 154.144 547.232 154.144 524.256 134.264C511.159 122.605 498.553 108.746 489 94C489 93.34 489 92.68 489 92Z" fill="#0E9F6E"/>
<path d="M907 354C926.47 354 945.94 354 966 354C971.947 365.299 977.882 376.577 983.59 387.995C984.656 390.125 985.728 392.251 986.801 394.377C987.485 395.742 988.168 397.107 988.852 398.473C989.17 399.103 989.489 399.733 989.817 400.382C992 404.771 992 404.771 992 407C972.2 407 952.4 407 932 407C928.989 400.998 925.977 394.996 922.875 388.812C921.938 386.947 921 385.081 920.035 383.159C907 357.167 907 357.167 907 354Z" fill="#0E9F6E"/>
<path d="M237 354C256.47 354 275.94 354 296 354C301.947 365.299 307.882 376.577 313.59 387.995C314.656 390.125 315.728 392.251 316.801 394.377C317.485 395.742 318.168 397.107 318.852 398.473C319.17 399.103 319.489 399.733 319.817 400.382C322 404.771 322 404.771 322 407C302.2 407 282.4 407 262 407C258.989 400.998 255.977 394.996 252.875 388.812C251.938 386.947 251 385.081 250.035 383.159C237 357.167 237 357.167 237 354Z" fill="#0E9F6E"/>
</svg>
