<svg width="1111" height="881" viewBox="0 0 1111 881" fill="none" xmlns="http://www.w3.org/2000/svg">
<path d="M531.539 119.18H686.469V348.37H531.539V119.18Z" fill="#3EC1F3"/>
<path d="M731.86 119.18H686.47V348.37H788.23V175.55C788.23 160.6 782.291 146.262 771.72 135.69C761.149 125.119 746.811 119.18 731.86 119.18V119.18Z" fill="#3EC1F3"/>
<path d="M740.1 303.45C727.679 303.45 717.61 292.445 717.61 278.87C717.61 265.295 727.679 254.29 740.1 254.29C752.521 254.29 762.59 265.295 762.59 278.87C762.59 292.445 752.521 303.45 740.1 303.45Z" fill="#F4E6D8"/>
<path d="M789.4 218L688.4 177" stroke="#4756DF" stroke-width="4" stroke-miterlimit="10" stroke-linecap="round"/>
<path d="M688.299 119.18V348.37" stroke="#4756DF" stroke-width="4" stroke-miterlimit="10"/>
<path d="M119 720.57V632.57L172.17 578.48H321.6L374.77 632.57V714.16H560.87V680.23C620.46 673.81 602.13 629.81 635.13 629.81H693.8C698.076 629.794 702.266 631.009 705.87 633.31L788.7 582.12H873.95L980.75 648.12H980.52V731.22L1052.25 775.55V851.64H65.8301V774.64L119 720.57Z" fill="#F5EBDD"/>
<path d="M30.0701 851.66H87.8301C87.8301 835.72 74.9001 819.58 58.9501 819.58C43.0001 819.58 30.0701 835.72 30.0701 851.66Z" fill="#9BEC00"/>
<path d="M0.00012207 851.66H42.9102C42.9102 839.82 33.3002 827.83 21.4602 827.83C9.6202 827.83 0.00012207 839.82 0.00012207 851.66Z" fill="#9BEC00"/>
<path d="M842.93 466.66C814.93 457.99 778.93 445.53 669.38 535.12C559.83 624.71 518.38 566.12 529.59 552.58C538.59 541.68 588.85 571.09 551.44 610.74C515.89 648.44 411.7 612.38 383.13 589.3C342.47 556.46 284.26 530.63 232.95 528.77" stroke="#9BEC00" stroke-width="4" stroke-linecap="round" stroke-linejoin="round" stroke-dasharray="12 12"/>
<path d="M767.139 648.14L873.949 582.14" stroke="#9BEC00" stroke-width="4" stroke-linecap="round" stroke-linejoin="round"/>
<path d="M979.52 648.14H766.91V850.66" stroke="#9BEC00" stroke-width="4" stroke-linecap="round" stroke-linejoin="round"/>
<path d="M983.27 851.04L982.27 732.22" stroke="#9BEC00" stroke-width="4" stroke-linecap="round" stroke-linejoin="round"/>
<path d="M1051.25 775.57H983.5" stroke="#9BEC00" stroke-width="4" stroke-linecap="round" stroke-linejoin="round"/>
<path d="M982.119 761.36H768.519" stroke="#9BEC00" stroke-width="4" stroke-linecap="round" stroke-linejoin="round"/>
<path d="M377.07 791.62H225.8" stroke="#9BEC00" stroke-width="4" stroke-linecap="round" stroke-linejoin="round"/>
<path d="M767.141 648.14H717.301" stroke="#9BEC00" stroke-width="4" stroke-linecap="round" stroke-linejoin="round"/>
<path d="M373.77 632.56H225.339V850.66" stroke="#9BEC00" stroke-width="4" stroke-linecap="round" stroke-linejoin="round"/>
<path d="M225.34 849.66V632.56H121" stroke="#9BEC00" stroke-width="4" stroke-linecap="round" stroke-linejoin="round"/>
<path d="M618.629 682.06H561.869" stroke="#9BEC00" stroke-width="4" stroke-linecap="round" stroke-linejoin="round"/>
<path d="M172.17 850.66V774.66H67.3999" stroke="#9BEC00" stroke-width="4" stroke-linecap="round" stroke-linejoin="round"/>
<path d="M172.75 579.06L225.34 632.56" stroke="#9BEC00" stroke-width="4" stroke-linecap="round" stroke-linejoin="round"/>
<path d="M225.34 720.57L172.17 774.66" stroke="#9BEC00" stroke-width="4" stroke-linecap="round" stroke-linejoin="round"/>
<path d="M120.539 718.28H224.879" stroke="#9BEC00" stroke-width="4" stroke-linecap="round" stroke-linejoin="round"/>
<path d="M692.68 631.64C725.68 631.64 707.349 675.64 766.939 682.06H618.399C678.019 675.65 659.68 631.64 692.68 631.64Z" stroke="#9BEC00" stroke-width="4" stroke-linecap="round" stroke-linejoin="round"/>
<path d="M766.939 849.66V682.07H618.43V850.66" stroke="#9BEC00" stroke-width="4" stroke-linecap="round" stroke-linejoin="round"/>
<path d="M618.629 849.66V730.65H377.059V850.66" stroke="#9BEC00" stroke-width="4" stroke-linecap="round" stroke-linejoin="round"/>
<path d="M618.199 728.41L562.399 712.31" stroke="#9BEC00" stroke-width="4" stroke-linecap="round" stroke-linejoin="round"/>
<path d="M377.059 715.15V730.65H618.629" stroke="#9BEC00" stroke-width="4" stroke-linecap="round" stroke-linejoin="round"/>
<path d="M570.639 758.16H570.399C566.06 758.16 561.899 759.884 558.831 762.952C555.763 766.02 554.039 770.181 554.039 774.52V851.67H587.039V774.52C587.039 772.368 586.615 770.238 585.79 768.25C584.965 766.263 583.757 764.457 582.233 762.938C580.71 761.418 578.902 760.214 576.912 759.394C574.923 758.574 572.791 758.155 570.639 758.16V758.16Z" fill="#9BEC00"/>
<path d="M423.04 758.16H422.76C418.421 758.16 414.26 759.884 411.192 762.952C408.124 766.02 406.4 770.181 406.4 774.52V851.67H439.4V774.52C439.4 770.181 437.677 766.02 434.609 762.952C431.541 759.884 427.379 758.16 423.04 758.16Z" fill="#9BEC00"/>
<path d="M496.839 758.16H496.559C492.22 758.16 488.059 759.884 484.991 762.952C481.923 766.02 480.199 770.181 480.199 774.52V851.67H513.199V774.52C513.199 770.181 511.476 766.02 508.407 762.952C505.339 759.884 501.178 758.16 496.839 758.16Z" fill="#9BEC00"/>
<path d="M117.3 795.74H117.02C112.681 795.74 108.52 797.464 105.452 800.532C102.384 803.6 100.66 807.761 100.66 812.1V851.66H133.66V812.1C133.66 807.761 131.937 803.6 128.868 800.532C125.8 797.464 121.639 795.74 117.3 795.74V795.74Z" fill="#9BEC00"/>
<path d="M936.649 795.74H936.399C932.06 795.74 927.899 797.464 924.831 800.532C921.763 803.6 920.039 807.761 920.039 812.1V851.66H953.039V812.1C953.039 809.952 952.616 807.824 951.794 805.839C950.972 803.854 949.766 802.051 948.247 800.532C946.728 799.013 944.925 797.808 942.94 796.985C940.955 796.163 938.827 795.74 936.679 795.74H936.649Z" fill="#9BEC00"/>
<path d="M811.06 795.74H810.78C808.63 795.737 806.501 796.159 804.514 796.98C802.526 797.801 800.721 799.005 799.199 800.525C797.678 802.044 796.471 803.848 795.648 805.835C794.824 807.821 794.4 809.95 794.4 812.1V851.66H827.4V812.1C827.4 807.765 825.679 803.606 822.616 800.539C819.552 797.471 815.396 795.745 811.06 795.74V795.74Z" fill="#9BEC00"/>
<path d="M873.859 795.74H873.579C869.24 795.74 865.079 797.464 862.01 800.532C858.942 803.6 857.219 807.761 857.219 812.1V851.66H890.219V812.1C890.219 807.761 888.495 803.6 885.427 800.532C882.359 797.464 878.198 795.74 873.859 795.74V795.74Z" fill="#9BEC00"/>
<path d="M920.02 677.48H953.02V733.4H920.02V677.48Z" fill="#9BEC00"/>
<path d="M794.42 677.48H827.42V733.4H794.42V677.48Z" fill="#9BEC00"/>
<path d="M857.219 677.48H890.219V733.4H857.219V677.48Z" fill="#9BEC00"/>
<path d="M705.07 710.48H732.49V751.73H705.07V710.48Z" fill="#9BEC00"/>
<path d="M652.891 710.48H680.311V751.73H652.891V710.48Z" fill="#9BEC00"/>
<path d="M705.07 782.91H732.49V824.16H705.07V782.91Z" fill="#9BEC00"/>
<path d="M652.891 782.91H680.311V824.16H652.891V782.91Z" fill="#9BEC00"/>
<path d="M313.609 655.48H341.029V696.73H313.609V655.48Z" fill="#9BEC00"/>
<path d="M261.43 655.48H288.85V696.73H261.43V655.48Z" fill="#9BEC00"/>
<path d="M156 655.48H183.42V696.73H156V655.48Z" fill="#9BEC00"/>
<path d="M313.609 727.9H341.029V769.15H313.609V727.9Z" fill="#9BEC00"/>
<path d="M261.43 727.9H288.85V769.15H261.43V727.9Z" fill="#9BEC00"/>
<path d="M837.73 414.83C837.73 435.46 859.73 459.29 868.45 459.29C877.17 459.29 899.16 435.46 899.16 414.83C899.015 406.78 895.715 399.109 889.971 393.467C884.226 387.825 876.497 384.664 868.445 384.664C860.394 384.664 852.664 387.825 846.92 393.467C841.175 399.109 837.875 406.78 837.73 414.83V414.83Z" fill="#9BEC00"/>
<path d="M868.45 424.46C863.132 424.46 858.82 420.149 858.82 414.83C858.82 409.512 863.132 405.2 868.45 405.2C873.769 405.2 878.08 409.512 878.08 414.83C878.08 420.149 873.769 424.46 868.45 424.46Z" fill="white"/>
<path d="M166.67 482.58C166.67 503.21 188.67 527.04 197.38 527.04C206.09 527.04 228.09 503.21 228.09 482.58C228.09 474.435 224.854 466.624 219.095 460.865C213.336 455.106 205.525 451.87 197.38 451.87C189.235 451.87 181.424 455.106 175.665 460.865C169.905 466.624 166.67 474.435 166.67 482.58Z" fill="#9BEC00"/>
<path d="M197.38 492.21C192.061 492.21 187.75 487.899 187.75 482.58C187.75 477.262 192.061 472.95 197.38 472.95C202.698 472.95 207.01 477.262 207.01 482.58C207.01 487.899 202.698 492.21 197.38 492.21Z" fill="white"/>
<path d="M1080.86 851.66H1023.1C1023.1 835.72 1036.03 819.58 1051.98 819.58C1067.93 819.58 1080.86 835.72 1080.86 851.66Z" fill="#9BEC00"/>
<path d="M1110.93 851.66H1068.02C1068.02 839.82 1077.63 827.83 1089.47 827.83C1101.31 827.83 1110.93 839.82 1110.93 851.66Z" fill="#9BEC00"/>
<path d="M587.61 284C658.78 327.51 683.53 448.71 698.61 492.93C714.92 540.75 750.84 539.66 792.52 553.58C834.2 567.5 832.65 597.85 832.65 597.85C842.391 604.487 851.7 611.738 860.52 619.56L807.75 687C795.3 678.41 776.82 667.64 751.47 652.33C699.11 620.7 652.24 591 621.99 558C591.74 525 512.24 380.3 512.24 380.3L587.61 284Z" fill="#4856DF"/>
<path d="M807.749 687L860.529 619.57C884.129 640.57 898.269 660.57 905.379 672.21L830.969 767.27C820.489 748.27 828.819 721.53 827.969 709.86C827.399 702.83 821.019 696.16 807.749 687Z" fill="#30242A"/>
<path d="M911.16 682.69L838 776.16C835.184 773.615 832.817 770.613 831 767.28L905.4 672.22C907.508 675.604 909.43 679.099 911.16 682.69V682.69Z" fill="#3EC1F3"/>
<path d="M834.811 691L820.641 698.89" stroke="white" stroke-width="4" stroke-linecap="round" stroke-linejoin="round"/>
<path d="M841.119 705.26L826.919 708.48" stroke="white" stroke-width="4" stroke-linecap="round" stroke-linejoin="round"/>
<path d="M815.781 624.72L841.061 644.48" stroke="#3EC1F3" stroke-width="4" stroke-miterlimit="10" stroke-linecap="round"/>
<path d="M828.579 608.35L853.859 628.11" stroke="#3EC1F3" stroke-width="4" stroke-miterlimit="10" stroke-linecap="round"/>
<path d="M802.98 641.09L828.26 660.85" stroke="#3EC1F3" stroke-width="4" stroke-miterlimit="10" stroke-linecap="round"/>
<path d="M790.179 657.46L815.459 677.22" stroke="#3EC1F3" stroke-width="4" stroke-miterlimit="10" stroke-linecap="round"/>
<path d="M834.939 598.72L779.469 669.68" stroke="#3EC1F3" stroke-width="4" stroke-miterlimit="10" stroke-linecap="round"/>
<path d="M565.579 472.48C577.629 453.48 589.419 432.48 598.379 410.81" stroke="#30242A" stroke-width="4" stroke-linecap="round" stroke-linejoin="round"/>
<path d="M545.749 17.42C540.939 17.42 537.039 13.5204 537.039 8.71001C537.039 3.89961 540.939 0 545.749 0C550.559 0 554.459 3.89961 554.459 8.71001C554.459 13.5204 550.559 17.42 545.749 17.42Z" fill="#4756DF"/>
<path d="M518.099 135.68L518.699 125.56C507.049 127.02 498.419 125.29 492.249 122.13L518.699 100.84C518.699 100.84 509.539 97.18 515.039 77.92L485.599 67.22C487.149 63.22 488.179 53.58 491.149 43.22L508.68 50.85C512.772 58.7036 518.641 65.4936 525.819 70.68C528.785 67.613 532.097 64.9014 535.689 62.6C536.169 62.29 536.689 62 537.169 61.71H537.219C537.709 61.43 538.219 61.16 538.709 60.9H538.789C539.289 60.65 539.789 60.4 540.299 60.18L540.399 60C540.889 59.77 541.399 59.57 541.909 59.37H542.049C542.559 59.19 543.049 59.02 543.569 58.86H543.74C544.24 58.71 544.739 58.58 545.259 58.47H545.439C545.949 58.36 546.439 58.28 546.959 58.22H547.159C547.659 58.17 548.159 58.14 548.669 58.13C553.039 58.07 557.369 59.85 560.979 64.9C563.135 67.8279 564.304 71.3645 564.319 75C564.249 85.75 554.249 96 545.319 99C552.379 113.89 575.189 123.18 583.939 126.27C583.659 129.68 583.389 132.85 583.149 135.68H518.099Z" fill="#EAA58B"/>
<path d="M340.159 197.1C344.299 197.1 346.299 193.74 344.629 189.6L330.629 155.03L330.739 154.93L330.499 154.7C326.629 151.064 323.027 147.154 319.719 143C313.399 134.95 311.499 129.1 313.719 126.71C314.356 126.068 315.199 125.671 316.099 125.59C317.015 125.479 317.943 125.533 318.839 125.75C325.979 127.31 338.209 137.04 351.839 153.09C368.329 172.48 400.399 210.85 400.399 210.85C403.739 208.3 408.589 203.98 414.399 198.77L460.539 258.09C450.652 265.786 440.096 272.583 428.999 278.4C426.905 271.919 422.909 266.219 417.531 262.04C412.153 257.862 405.641 255.4 398.844 254.974C392.047 254.547 385.279 256.177 379.421 259.651C373.563 263.125 368.886 268.281 365.999 274.45C338.199 253.68 316.239 216.62 305.949 197.1H340.159Z" fill="#EAA58B"/>
<path d="M493.029 148.51H507.129C480.239 164.71 492.129 195.27 492.129 195.27C492.129 195.27 455.399 220.94 480.199 252.11C478.379 250.195 476.837 248.034 475.619 245.69C475.619 245.69 469.699 251.13 460.619 258.09L414.479 198.77C435.909 179.65 470.699 148.51 493.029 148.51Z" fill="#9BEC00"/>
<path d="M634.21 198C634.21 198 661.21 220.51 642.96 250.65L633.35 196.65L634.21 198Z" fill="#FF7235"/>
<path d="M583.189 135.68V136.01L582.029 135.68H583.189Z" fill="#FF7235"/>
<path d="M545.401 99C554.291 96 564.291 85.78 564.401 75L587.311 85C586.421 97.62 585.131 113.53 584.061 126.27C575.231 123.18 552.401 113.89 545.401 99Z" fill="#30242A"/>
<path d="M518.699 100.84L492.249 122.13C487.01 119.605 482.858 115.273 480.559 109.93C476.659 100.17 479.179 91.77 482.219 80.87C482.219 80.87 474.469 75.68 475.679 70.87C476.679 66.96 485.509 67.5 485.509 67.5L485.599 67.25L515.039 77.95C509.539 97.18 518.699 100.84 518.699 100.84Z" fill="#30242A"/>
<path d="M525.82 70.66C518.641 65.4737 512.772 58.6836 508.68 50.83L535.68 62.58C532.091 64.8821 528.782 67.5936 525.82 70.66Z" fill="#30242A"/>
<path d="M540.3 60.09L540.4 60L540.3 60.09Z" fill="#4756DF"/>
<path d="M560.999 64.8C557.389 59.75 553.059 57.97 548.689 58.03H548.789C551.299 30.28 545.109 15.19 540.519 8.03C544.92 8.67996 549.266 9.66278 553.519 10.97C585.329 20.6 588.979 51.97 588.089 70.63C587.919 74.37 587.599 79.35 587.209 84.97L564.299 74.97C564.31 71.3151 563.154 67.7521 560.999 64.8V64.8Z" fill="#4756DF"/>
<path d="M537.219 61.66C537.709 61.38 538.219 61.11 538.709 60.85C538.199 61.11 537.709 61.38 537.219 61.66Z" fill="#3EC1F3"/>
<path d="M535.69 62.58C536.17 62.27 536.69 61.98 537.17 61.69C536.67 62 536.17 62.27 535.69 62.58Z" fill="#3EC1F3"/>
<path d="M543.759 58.81C544.259 58.66 544.759 58.53 545.279 58.42C544.769 58.53 544.259 58.66 543.759 58.81Z" fill="#3EC1F3"/>
<path d="M538.789 60.81C539.289 60.56 539.789 60.31 540.299 60.09C539.789 60.31 539.289 60.56 538.789 60.81Z" fill="#3EC1F3"/>
<path d="M547.18 58.12C547.68 58.07 548.179 58.04 548.689 58.03C548.189 58 547.68 58.07 547.18 58.12Z" fill="#3EC1F3"/>
<path d="M545.46 58.39C545.97 58.28 546.46 58.2 546.98 58.14C546.47 58.2 545.97 58.28 545.46 58.39Z" fill="#3EC1F3"/>
<path d="M542.07 59.36C542.58 59.18 543.07 59.01 543.59 58.85C543.08 59 542.58 59.18 542.07 59.36Z" fill="#3EC1F3"/>
<path d="M540.4 60C540.89 59.77 541.4 59.57 541.91 59.37C541.4 59.61 540.91 59.81 540.4 60Z" fill="#3EC1F3"/>
<path d="M548.79 58H548.69C548.19 58 547.69 58 547.18 58.09H546.98C546.47 58.15 545.98 58.23 545.46 58.34H545.28C544.77 58.45 544.28 58.58 543.76 58.73H543.59C543.08 58.89 542.59 59.06 542.07 59.24H541.93C541.42 59.44 540.93 59.64 540.42 59.87L540.3 59.92C539.79 60.14 539.3 60.39 538.79 60.64H538.71C538.2 60.9 537.71 61.17 537.22 61.45H537.17C536.67 61.74 536.17 62.03 535.69 62.34L508.69 50.59L491.16 42.96C496.51 24.3 508.16 3.22 540.53 7.82C545.11 15.18 551.3 30.27 548.79 58Z" fill="#3EC1F3"/>
<path d="M396.78 254.86C403.961 254.862 410.956 257.142 416.758 261.372C422.561 265.602 426.871 271.564 429.07 278.4C414.35 285.88 398.78 290.48 386.69 286.03C379.285 283.179 372.327 279.28 366.03 274.45C368.758 268.595 373.101 263.641 378.548 260.171C383.996 256.7 390.321 254.858 396.78 254.86V254.86Z" fill="#CA7358"/>
<path d="M488.399 311.24C455.399 289.69 478.399 253 480.199 252.11C455.449 220.94 492.119 195.27 492.119 195.27C492.119 195.27 480.239 164.71 507.119 148.51H517.339L518.099 135.68H581.999L583.159 136.01L582.079 148.51H602.699L633.349 196.66L642.959 250.66L642.469 251.47C642.796 252.077 643.129 252.687 643.469 253.3C649.669 265.5 650.579 275.88 648.989 284.3C645.679 301.91 631.499 311.19 631.499 311.19H488.399V311.24Z" fill="#FF7235"/>
<path d="M631.459 327.31H488.449V314.45V311.24H631.459V314.45V327.31Z" fill="#30242A"/>
<path d="M646.4 195.27H492.12" stroke="#A15842" stroke-width="4" stroke-miterlimit="10" stroke-linecap="round"/>
<path d="M642.719 252.11H479.399" stroke="#A15842" stroke-width="4" stroke-miterlimit="10" stroke-linecap="round"/>
<path d="M515.039 154.93L515.379 149.51" stroke="#A15842" stroke-width="4" stroke-miterlimit="10" stroke-linecap="round"/>
<path d="M532.459 152.18L533.369 137.51" stroke="#A15842" stroke-width="4" stroke-miterlimit="10" stroke-linecap="round"/>
<path d="M546.209 152.18L547.119 137.51" stroke="#A15842" stroke-width="4" stroke-miterlimit="10" stroke-linecap="round"/>
<path d="M559.959 152.18L560.869 137.51" stroke="#A15842" stroke-width="4" stroke-miterlimit="10" stroke-linecap="round"/>
<path d="M402.319 210.08L413.279 223.69" stroke="#A15842" stroke-width="4" stroke-linecap="round" stroke-linejoin="round"/>
<path d="M531.539 124.68C527.485 126.098 523.286 127.06 519.019 127.55" stroke="#A15842" stroke-width="4" stroke-miterlimit="10" stroke-linecap="round"/>
<path d="M319.719 143C319.669 145.69 317.719 147.59 314.649 147.59H284.739C280.599 147.59 275.879 144.23 274.199 140.08L265.079 117.5C263.409 113.36 265.409 110 269.549 110H299.469C303.609 110 308.329 113.36 309.999 117.5L313.719 126.71C311.499 129.11 313.399 135 319.719 143Z" fill="#F5EBDD"/>
<path d="M258.131 95.34H266.211L266.921 97.09C267.481 98.3926 268.388 99.5167 269.543 100.34C270.698 101.163 272.056 101.654 273.471 101.76H288.891C291.461 101.76 292.711 99.67 291.671 97.09L290.961 95.34H299.041C303.191 95.34 307.901 98.7 309.581 102.85L318.841 125.76C317.944 125.543 317.016 125.489 316.101 125.6C315.2 125.682 314.357 126.078 313.721 126.72L310.001 117.51C308.331 113.37 303.611 110.01 299.471 110.01H269.551C265.411 110.01 263.411 113.37 265.081 117.51L274.201 140.09C275.881 144.24 280.601 147.6 284.741 147.6H314.651C317.761 147.6 319.651 145.7 319.721 143.01C323.038 147.161 326.651 151.068 330.531 154.7L330.661 155.03L344.661 189.6C346.331 193.74 344.331 197.1 340.191 197.1H299.271C295.131 197.1 290.411 193.74 288.741 189.6L253.741 102.85C251.981 98.7 253.981 95.34 258.131 95.34ZM298.131 183.34C298.676 184.606 299.558 185.699 300.681 186.5C301.795 187.365 303.151 187.862 304.561 187.92H327.401C329.941 187.92 331.161 185.87 330.141 183.34C329.586 182.063 328.693 180.961 327.558 180.154C326.423 179.347 325.089 178.865 323.701 178.76H300.781C298.301 178.77 297.081 180.82 298.101 183.35L298.131 183.34Z" fill="#4756DF"/>
<path d="M300.829 178.77H323.749C325.138 178.875 326.472 179.357 327.607 180.164C328.741 180.971 329.634 182.073 330.189 183.35C331.189 185.88 329.989 187.93 327.449 187.93H304.529C303.12 187.872 301.763 187.375 300.649 186.51C299.527 185.709 298.645 184.616 298.099 183.35C297.079 180.82 298.299 178.77 300.829 178.77Z" fill="#3EC1F3"/>
<path d="M288.889 101.76H273.469C272.054 101.654 270.696 101.163 269.541 100.34C268.386 99.5167 267.479 98.3926 266.919 97.09L266.209 95.34H290.959L291.669 97.09C292.709 99.67 291.459 101.76 288.889 101.76Z" fill="#3EC1F3"/>
<path d="M468.279 34.84L529.699 62.34" stroke="#30242A" stroke-width="4" stroke-linecap="round" stroke-linejoin="round"/>
<path d="M488.009 92.2C489.849 92.69 495.869 91.68 496.859 86.51" stroke="black" stroke-width="4" stroke-miterlimit="10" stroke-linecap="round"/>
<path d="M497.479 66.05C495.845 66.05 494.519 64.7248 494.519 63.09C494.519 61.4552 495.845 60.13 497.479 60.13C499.114 60.13 500.439 61.4552 500.439 63.09C500.439 64.7248 499.114 66.05 497.479 66.05Z" fill="#30242A"/>
<path d="M548.289 76.52L537.539 83.36" stroke="#A15842" stroke-width="4" stroke-miterlimit="10" stroke-linecap="round"/>
<path d="M525.119 68.76L513.199 77.92" stroke="#30242A" stroke-width="4" stroke-linecap="round" stroke-linejoin="round"/>
<path d="M548.039 99.93L515.949 100.84" stroke="#30242A" stroke-width="4" stroke-linecap="round" stroke-linejoin="round"/>
<path d="M423.4 314.45C419.754 314.45 416.256 315.899 413.678 318.477C411.099 321.056 409.65 324.553 409.65 328.2V328.2C409.645 330.01 409.997 331.802 410.685 333.476C411.374 335.149 412.386 336.67 413.663 337.952C414.94 339.234 416.458 340.251 418.128 340.946C419.799 341.641 421.591 341.999 423.4 342" stroke="#FF7235" stroke-width="4" stroke-miterlimit="10"/>
<path d="M404.109 314.45C400.47 314.461 396.982 315.914 394.412 318.491C391.842 321.069 390.399 324.56 390.399 328.2C390.389 331.848 391.827 335.35 394.398 337.938C396.969 340.526 400.462 341.987 404.109 342" stroke="#FF7235" stroke-width="4" stroke-miterlimit="10"/>
<path d="M304.999 316.28H456.459C462.987 316.28 468.279 321.572 468.279 328.1V328.3C468.279 334.828 462.987 340.12 456.459 340.12H304.999C298.471 340.12 293.179 334.828 293.179 328.3V328.1C293.179 321.572 298.471 316.28 304.999 316.28Z" fill="#30242A"/>
<path d="M279.597 824.408L370.824 316.882L394.288 321.1L303.061 828.626L279.597 824.408Z" fill="#30242A"/>
<path d="M456.259 316.28H456.459C462.987 316.28 468.279 321.572 468.279 328.1V328.3C468.279 334.828 462.987 340.12 456.459 340.12H456.259C449.731 340.12 444.439 334.828 444.439 328.3V328.1C444.439 321.572 449.731 316.28 456.259 316.28Z" stroke="#FF7235" stroke-width="4" stroke-miterlimit="10"/>
<path d="M341.84 315.2C339.14 316.139 336.8 317.895 335.144 320.225C333.488 322.554 332.599 325.342 332.6 328.2V328.2C332.601 330.871 333.379 333.484 334.841 335.72C336.302 337.956 338.383 339.718 340.83 340.79" stroke="#FF7235" stroke-width="4" stroke-miterlimit="10" stroke-linecap="round"/>
<path d="M325.84 315.2C323.14 316.139 320.8 317.895 319.144 320.225C317.488 322.554 316.599 325.342 316.6 328.2V328.2C316.601 330.871 317.379 333.484 318.841 335.72C320.302 337.956 322.383 339.718 324.83 340.79" stroke="#FF7235" stroke-width="4" stroke-miterlimit="10" stroke-linecap="round"/>
<path d="M291.349 827.83H625.959V851.67H291.349V827.83Z" fill="#30242A"/>
<path d="M605.34 881C589.136 881 576 867.864 576 851.66C576 835.456 589.136 822.32 605.34 822.32C621.544 822.32 634.68 835.456 634.68 851.66C634.68 867.864 621.544 881 605.34 881Z" fill="#30242A"/>
<path d="M605.34 862.66C599.265 862.66 594.34 857.735 594.34 851.66C594.34 845.585 599.265 840.66 605.34 840.66C611.415 840.66 616.34 845.585 616.34 851.66C616.34 857.735 611.415 862.66 605.34 862.66Z" fill="#9BEC00"/>
<path d="M286.15 881C269.946 881 256.81 867.864 256.81 851.66C256.81 835.456 269.946 822.32 286.15 822.32C302.354 822.32 315.49 835.456 315.49 851.66C315.49 867.864 302.354 881 286.15 881Z" fill="#30242A"/>
<path d="M286.15 862.66C280.075 862.66 275.15 857.735 275.15 851.66C275.15 845.585 280.075 840.66 286.15 840.66C292.226 840.66 297.15 845.585 297.15 851.66C297.15 857.735 292.226 862.66 286.15 862.66Z" fill="#9BEC00"/>
<path d="M559.5 851.66H651.17C650.992 839.621 646.085 828.135 637.508 819.685C628.932 811.234 617.375 806.497 605.335 806.497C593.295 806.497 581.738 811.234 573.161 819.685C564.585 828.135 559.678 839.621 559.5 851.66V851.66Z" fill="#FF7235"/>
<path d="M240.32 851.66H331.99C331.812 839.621 326.905 828.135 318.329 819.685C309.752 811.234 298.195 806.497 286.155 806.497C274.115 806.497 262.558 811.234 253.982 819.685C245.405 828.135 240.498 839.621 240.32 851.66V851.66Z" fill="#FF7235"/>
<path d="M514.76 748.07H429.02C428.02 733.07 425.18 712.13 421.69 683.37C414.33 622.64 408.81 567.43 416.17 523.27C423.53 479.11 488.45 327.27 488.45 327.27H610.72C620.32 410.12 540.14 504.33 514.62 543.46C487.02 585.79 510.02 613.39 524.74 654.79C539.46 696.19 514.62 713.68 514.62 713.68C515.381 725.129 515.428 736.615 514.76 748.07V748.07Z" fill="#4856DF"/>
<path d="M500.9 816.83H380.18C388.71 796.83 414.87 786.94 423.53 779.06C428.86 774.22 430.1 764.78 429.02 748.06H514.76C512.89 780.06 505.76 803.89 500.9 816.83Z" fill="#30242A"/>
<path d="M496.22 827.83H377.52C377.778 824.039 378.677 820.32 380.18 816.83H500.9C499.54 820.578 497.978 824.25 496.22 827.83V827.83Z" fill="#3EC1F3"/>
<path d="M481.42 716.9V747" stroke="#3EC1F3" stroke-width="4" stroke-miterlimit="10" stroke-linecap="round"/>
<path d="M502.199 716.9V747" stroke="#3EC1F3" stroke-width="4" stroke-miterlimit="10" stroke-linecap="round"/>
<path d="M460.641 716.9V747" stroke="#3EC1F3" stroke-width="4" stroke-miterlimit="10" stroke-linecap="round"/>
<path d="M439.859 716.9V747" stroke="#3EC1F3" stroke-width="4" stroke-miterlimit="10" stroke-linecap="round"/>
<path d="M514.4 715.98H426.4" stroke="#3EC1F3" stroke-width="4" stroke-miterlimit="10" stroke-linecap="round"/>
<path d="M459.15 398.44C462.15 391.02 465.01 383.84 467.76 377.09L512.76 369.19V369.35C513.65 374.412 512.492 379.619 509.542 383.827C506.592 388.035 502.092 390.9 497.03 391.79L459.15 398.44Z" fill="#3EC1F3"/>
<path d="M442.609 772.82L428.399 767" stroke="white" stroke-width="4" stroke-linecap="round" stroke-linejoin="round"/>
<path d="M435.27 786.58L423.4 777" stroke="white" stroke-width="4" stroke-linecap="round" stroke-linejoin="round"/>
<path d="M287.68 187C287.68 187 271.94 187.62 270.68 173.87C270.68 173.87 259.44 168.7 262.38 158.43C262.38 158.43 252.1 155.49 255.04 145.21C255.23 144.56 249.2 143.39 249.5 134.92C249.94 122.56 258.32 113.66 261.98 112.74C272.98 109.99 268.8 127.86 269.32 127.41C275.73 121.91 285.09 119.41 288.43 122.21C294.25 127.09 290.21 133.61 290.21 133.61C290.21 133.61 297.67 131.85 301.32 137.24C305.76 143.78 297.82 149.88 297.82 149.88C297.82 149.88 306.14 150.81 304.75 158.51C303.21 167.12 290.28 169.04 284.15 178.06L287.68 187Z" fill="#EAA58B"/>
<path d="M298.16 148.3C289.4 151.59 274.16 158.88 269.83 170.91" stroke="#A15842" stroke-width="4" stroke-linecap="round" stroke-linejoin="round"/>
<path d="M288.34 133C280.84 137.09 267.59 145.49 261.62 156.45" stroke="#A15842" stroke-width="4" stroke-linecap="round" stroke-linejoin="round"/>
<path d="M267.9 126C262.97 130.38 257.62 136.21 254.35 143" stroke="#A15842" stroke-width="4" stroke-linecap="round" stroke-linejoin="round"/>
<path d="M581.959 148.51C581.959 148.51 549.099 198 558.119 245.69C564.539 279.61 641.549 309 686.469 319V292.44C686.469 292.44 592.959 269.53 581.959 228.27C575.289 203.27 602.129 148.51 602.129 148.51" fill="#F5EBDD"/>
<path d="M364.69 309C370.19 295.24 387.61 280.58 407.78 273.24C446.54 259.15 540.71 279.66 540.71 279.66L554.82 249.53L624.25 283.53C614.25 303.04 602.25 319.44 589.99 330.78C585.816 325.611 580.215 321.783 573.883 319.771C567.551 317.759 560.767 317.652 554.375 319.463C547.983 321.274 542.264 324.923 537.928 329.958C533.593 334.992 530.833 341.19 529.99 347.78C491.6 344.78 449.14 327.23 437.1 316.4C437.1 316.4 429.77 322.82 421.52 323.73C421.52 326.48 434.35 363.15 411.43 354.9C411.43 354.9 405.02 363.15 395.85 353.99C395.85 353.99 389.43 363.15 380.26 354.9C380.26 354.9 375.26 358.03 368.35 350.32C360.11 341 357.67 326.49 364.69 309Z" fill="#EAA58B"/>
<path d="M602.13 148.51H604.4C623.01 148.51 653.48 162.27 649.81 197.91C646.588 227.744 637.929 256.736 624.26 283.45L554.83 249.45L602.13 148.51Z" fill="#9BEC00"/>
<path d="M563.62 318.11C568.677 318.106 573.67 319.235 578.233 321.414C582.796 323.593 586.814 326.766 589.99 330.7C587.45 333.071 584.779 335.297 581.99 337.37C569.08 346.81 550.11 349.23 529.99 347.66C531.047 339.489 535.044 331.983 541.234 326.544C547.423 321.106 555.381 318.108 563.62 318.11V318.11Z" fill="#CA7358"/>
<path d="M410.629 353.36C406.629 345.36 397.549 324.62 404.109 310.78" stroke="#A15842" stroke-width="4" stroke-linecap="round" stroke-linejoin="round"/>
<path d="M564.539 282.36L542.929 277.93" stroke="#A15842" stroke-width="4" stroke-linecap="round" stroke-linejoin="round"/>
<path d="M394.4 353C390.24 344.56 381.24 324.21 387.61 310.78" stroke="#A15842" stroke-width="4" stroke-linecap="round" stroke-linejoin="round"/>
<path d="M378.4 354C374.4 345.94 365.51 324.54 372.02 310.78" stroke="#A15842" stroke-width="4" stroke-linecap="round" stroke-linejoin="round"/>
</svg>
