<?xml version="1.0" encoding="utf-8"?>
<!-- Generator: Adobe Illustrator 27.5.0, SVG Export Plug-In . SVG Version: 6.00 Build 0)  -->
<svg version="1.1" xmlns="http://www.w3.org/2000/svg" xmlns:xlink="http://www.w3.org/1999/xlink" x="0px" y="0px"
	 viewBox="0 0 500 500" style="enable-background:new 0 0 500 500;" xml:space="preserve">
<g id="Background_Complete">
	<g>
		<g>
			
				<rect x="389.919" y="240.979" transform="matrix(0.3659 -0.9306 0.9306 0.3659 8.6419 551.5751)" style="fill:#EBEBEB;" width="38.374" height="56.932"/>
		</g>
		<g>
			<g>
				<g>
					<path style="fill:#E0E0E0;" d="M442.62,262.502c0.006,0.017-0.229,0.113-0.68,0.281c-0.5,0.18-1.159,0.417-1.983,0.712
						c-1.783,0.616-4.274,1.476-7.332,2.532c-6.257,2.108-14.822,4.994-24.308,8.19l-0.2,0.068l-0.106-0.184
						c-0.081-0.14-0.168-0.292-0.256-0.444c-5.028-8.793-9.578-16.75-12.905-22.568c-1.609-2.863-2.92-5.197-3.859-6.868
						c-0.427-0.781-0.768-1.407-1.027-1.88c-0.23-0.433-0.343-0.664-0.327-0.673c0.015-0.009,0.159,0.205,0.418,0.621
						c0.28,0.462,0.649,1.071,1.111,1.832c0.974,1.651,2.334,3.957,4.002,6.786c3.361,5.798,7.957,13.729,13.036,22.492
						c0.087,0.152,0.175,0.304,0.255,0.444l-0.306-0.116c9.505-3.139,18.087-5.974,24.356-8.044
						c3.079-0.991,5.587-1.799,7.383-2.377c0.837-0.258,1.506-0.465,2.014-0.621C442.369,262.549,442.614,262.485,442.62,262.502z"
						/>
				</g>
			</g>
		</g>
		<g>
			<g>
				<path style="fill:#E0E0E0;" d="M375.594,277.381c-0.068-0.126,5.841-3.454,13.197-7.434c7.358-3.981,13.376-7.105,13.444-6.98
					c0.068,0.125-5.84,3.453-13.198,7.435C381.681,274.381,375.662,277.506,375.594,277.381z"/>
			</g>
		</g>
		<g>
			<g>
				<path style="fill:#E0E0E0;" d="M420.023,269.446c0.137-0.041,2.163,6.367,4.525,14.31c2.363,7.946,4.167,14.418,4.03,14.459
					c-0.137,0.041-2.162-6.366-4.525-14.311C421.69,275.96,419.886,269.486,420.023,269.446z"/>
			</g>
		</g>
	</g>
	<g>
		<g>
			
				<rect x="169.171" y="402.15" transform="matrix(0.8947 -0.4466 0.4466 0.8947 -167.3732 132.6282)" style="fill:#EBEBEB;" width="56.932" height="38.374"/>
		</g>
		<g>
			<g>
				<g>
					<path style="fill:#E0E0E0;" d="M214.906,391.788c0.016,0.007-0.069,0.246-0.246,0.694c-0.201,0.492-0.466,1.14-0.798,1.951
						c-0.736,1.737-1.763,4.164-3.025,7.142c-2.621,6.06-6.208,14.355-10.181,23.543l-0.084,0.194l-0.207-0.044
						c-0.158-0.034-0.329-0.07-0.501-0.107c-9.899-2.148-18.856-4.092-25.406-5.513c-3.204-0.721-5.816-1.308-7.686-1.729
						c-0.866-0.206-1.559-0.371-2.084-0.496c-0.475-0.119-0.723-0.19-0.719-0.207c0.004-0.017,0.259,0.019,0.741,0.105
						c0.53,0.101,1.23,0.234,2.105,0.401c1.878,0.382,4.502,0.914,7.721,1.568c6.557,1.383,15.527,3.275,25.437,5.365
						c0.172,0.037,0.343,0.073,0.501,0.107l-0.291,0.149c4.028-9.164,7.665-17.438,10.322-23.482
						c1.324-2.951,2.403-5.355,3.175-7.077c0.368-0.794,0.663-1.43,0.886-1.912C214.773,392.005,214.889,391.78,214.906,391.788z"/>
				</g>
			</g>
		</g>
		<g>
			<g>
				<path style="fill:#E0E0E0;" d="M181.106,451.549c-0.139-0.034,1.342-6.652,3.308-14.781c1.966-8.132,3.672-14.694,3.811-14.661
					c0.139,0.033-1.342,6.651-3.308,14.782C182.951,445.019,181.245,451.583,181.106,451.549z"/>
			</g>
		</g>
		<g>
			<g>
				<path style="fill:#E0E0E0;" d="M204.942,413.226c0.061-0.129,6.179,2.654,13.662,6.214c7.485,3.562,13.502,6.553,13.441,6.682
					c-0.061,0.129-6.177-2.653-13.663-6.215C210.899,416.346,204.881,413.354,204.942,413.226z"/>
			</g>
		</g>
	</g>
	<g>
		<g>
			<g>
				<g>
					<path style="fill:#EBEBEB;" d="M130.871,262.583c19.356-12.92,24.081-37.363,23.667-59.405
						c-0.069-3.681,0.399-7.552-1.322-10.804c-1.723-3.253-5.823-5.52-9.184-4.02c-2.786,1.244-4.043,4.403-5.632,7.007
						c-2.114,3.464-5.227,6.312-8.866,8.108c-2.392,1.18-5.339,1.879-7.662,0.568c-3.187-1.799-3.498-6.185-3.418-9.845
						c0.149-6.815,0.298-13.631,0.447-20.447c0.08-3.658,0.15-7.391-0.949-10.88c-1.098-3.488-3.594-6.751-7.105-7.779
						c-3.511-1.027-7.902,0.914-8.702,4.483c-0.333,1.486-0.049,3.037-0.176,4.553c-0.127,1.516-0.87,3.186-2.338,3.588
						c-1.485,0.406-2.952-0.654-4.044-1.74c-3.767-3.751-6.289-8.547-8.641-13.315c-2.353-4.767-4.632-9.645-8.04-13.725
						c-3.408-4.08-8.16-7.344-13.462-7.72c-5.303-0.376-11.008,2.773-12.43,7.896c-1.425,5.136,1.542,10.413,4.794,14.637
						c4.824,6.267,10.56,11.83,16.971,16.461c1.156,0.836,2.408,1.739,2.835,3.1c0.766,2.449-1.613,4.838-4.064,5.603
						c-2.777,0.866-5.77,0.538-8.665,0.831c-2.895,0.293-6.046,1.503-7.181,4.182c-1.575,3.717,1.532,7.683,4.609,10.295
						c6.162,5.232,13.227,9.399,20.788,12.261c2.711,1.027,5.566,1.932,7.735,3.855c2.169,1.924,3.444,5.23,2.077,7.786
						c-1.369,2.56-4.792,3.333-7.639,2.768c-2.847-0.565-5.38-2.133-8.085-3.187c-5.064-1.973-11.646-1.725-14.975,2.57
						c-2.188,2.823-2.439,6.797-1.408,10.217c1.031,3.42,3.184,6.384,5.477,9.123c8.016,9.574,18.347,17.339,30.099,21.559
						C108.134,265.387,119.064,266.645,130.871,262.583"/>
				</g>
			</g>
		</g>
		<g>
			<g>
				<g>
					<g>
						<path style="fill:#E0E0E0;" d="M125.267,248.701c-3.115-11.164-7.557-23.121-12.635-35.475
							c-1.282-3.083-2.548-6.129-3.796-9.132c-1.251-2.996-2.493-5.963-3.889-8.793c-2.767-5.672-5.865-10.917-8.963-15.808
							c-3.098-4.892-6.219-9.424-9.168-13.642c-2.958-4.212-5.791-8.087-8.524-11.51c-5.448-6.869-10.494-11.886-14.099-15.194
							c-1.801-1.66-3.239-2.904-4.224-3.736c-0.48-0.4-0.853-0.711-1.125-0.938c-0.256-0.209-0.396-0.305-0.396-0.305
							s0.115,0.125,0.359,0.348c0.263,0.236,0.626,0.562,1.09,0.979c0.96,0.859,2.375,2.127,4.15,3.809
							c3.556,3.353,8.545,8.397,13.939,15.28c2.709,3.43,5.517,7.312,8.455,11.53c2.93,4.227,6.032,8.762,9.112,13.652
							c3.081,4.886,6.16,10.122,8.908,15.772c1.386,2.819,2.616,5.766,3.868,8.768c1.248,3.002,2.512,6.047,3.792,9.129
							c5.075,12.345,9.522,24.275,12.656,35.403"/>
					</g>
				</g>
			</g>
		</g>
		<g>
			<g>
				<g>
					<g>
						<path style="fill:#E0E0E0;" d="M104.809,195.245c0.038,0.007,0.165-0.549,0.362-1.559c0.202-1.009,0.451-2.478,0.734-4.295
							c0.57-3.635,1.19-8.681,1.862-14.246c0.671-5.569,1.379-10.592,2.026-14.205c0.318-1.809,0.593-3.269,0.798-4.275
							c0.199-1.007,0.293-1.57,0.255-1.579c-0.037-0.009-0.2,0.537-0.465,1.531c-0.27,0.994-0.605,2.447-0.972,4.25
							c-0.749,3.605-1.519,8.638-2.191,14.211c-0.657,5.518-1.252,10.511-1.699,14.259c-0.226,1.744-0.415,3.195-0.56,4.316
							C104.826,194.671,104.771,195.238,104.809,195.245z"/>
					</g>
				</g>
			</g>
		</g>
		<g>
			<g>
				<g>
					<g>
						<path style="fill:#E0E0E0;" d="M57.298,185.746c-0.001,0.019,0.168,0.048,0.489,0.087c0.387,0.039,0.851,0.086,1.409,0.142
							c1.222,0.117,2.991,0.283,5.169,0.56c4.358,0.518,10.354,1.452,16.921,2.774c6.567,1.335,12.456,2.8,16.682,3.988
							c2.118,0.579,3.818,1.095,4.995,1.447c0.538,0.158,0.986,0.29,1.358,0.399c0.313,0.086,0.479,0.122,0.486,0.103
							c0.006-0.018-0.149-0.089-0.451-0.209c-0.364-0.136-0.801-0.301-1.327-0.497c-1.157-0.415-2.844-0.99-4.953-1.619
							c-4.209-1.286-10.1-2.815-16.683-4.153c-6.582-1.326-12.605-2.202-16.988-2.621c-2.188-0.227-3.967-0.335-5.196-0.386
							c-0.562-0.015-1.028-0.028-1.417-0.039C57.471,185.719,57.299,185.726,57.298,185.746z"/>
					</g>
				</g>
			</g>
		</g>
		<g>
			<g>
				<g>
					<g>
						<path style="fill:#E0E0E0;" d="M124.751,247.811c0.017,0.008,0.128-0.19,0.323-0.574c0.216-0.441,0.492-1.002,0.832-1.694
							c0.717-1.473,1.702-3.629,2.885-6.309c2.372-5.357,5.42-12.855,8.678-21.172c3.26-8.319,6.247-15.832,8.525-21.222
							c1.129-2.642,2.052-4.803,2.722-6.374c0.301-0.709,0.545-1.284,0.736-1.735c0.163-0.399,0.24-0.613,0.223-0.621
							c-0.017-0.008-0.128,0.19-0.324,0.575c-0.215,0.44-0.49,1.001-0.831,1.693c-0.717,1.473-1.701,3.629-2.884,6.309
							c-2.373,5.357-5.421,12.855-8.68,21.175c-3.259,8.316-6.247,15.828-8.524,21.219c-1.129,2.641-2.052,4.803-2.722,6.374
							c-0.302,0.709-0.545,1.284-0.736,1.736C124.811,247.589,124.734,247.803,124.751,247.811z"/>
					</g>
				</g>
			</g>
		</g>
		<g>
			<g>
				<g>
					<g>
						<path style="fill:#E0E0E0;" d="M61.749,226.727c-0.005,0.018,0.211,0.105,0.628,0.253c0.475,0.161,1.083,0.368,1.834,0.623
							c1.661,0.554,3.952,1.317,6.754,2.251c5.699,1.907,13.539,4.637,22.194,7.675c8.658,3.038,16.524,5.713,22.258,7.526
							c2.868,0.908,5.193,1.621,6.81,2.084c0.764,0.216,1.382,0.39,1.864,0.526c0.428,0.114,0.655,0.165,0.661,0.146
							c0.006-0.018-0.211-0.105-0.629-0.253c-0.474-0.161-1.081-0.368-1.832-0.623c-1.66-0.554-3.951-1.316-6.753-2.25
							c-5.7-1.907-13.54-4.639-22.198-7.677c-8.655-3.037-16.521-5.712-22.254-7.525c-2.868-0.908-5.194-1.621-6.811-2.084
							c-0.763-0.215-1.381-0.389-1.864-0.525C61.981,226.759,61.755,226.708,61.749,226.727z"/>
					</g>
				</g>
			</g>
		</g>
	</g>
	<g>
		<path style="fill:#E0E0E0;" d="M131.817,86.559H75.393c-3.887,0-7.038-3.151-7.038-7.038V51.643c0-3.887,3.151-7.038,7.038-7.038
			h56.424c3.887,0,7.038,3.151,7.038,7.038v27.878C138.855,83.408,135.704,86.559,131.817,86.559z"/>
		<polyline style="fill:#E0E0E0;" points="111.243,85.219 127.911,100.021 129.279,85.481 		"/>
		<path style="fill:#FFFFFF;" d="M94.436,66.176c0,2.267-1.838,4.105-4.105,4.105c-2.267,0-4.105-1.838-4.105-4.105
			c0-2.267,1.838-4.105,4.105-4.105C92.598,62.071,94.436,63.909,94.436,66.176z"/>
		<path style="fill:#FFFFFF;" d="M108.564,66.176c0,2.267-1.838,4.105-4.105,4.105s-4.105-1.838-4.105-4.105
			c0-2.267,1.838-4.105,4.105-4.105S108.564,63.909,108.564,66.176z"/>
		<path style="fill:#FFFFFF;" d="M122.692,66.176c0,2.267-1.838,4.105-4.105,4.105c-2.267,0-4.105-1.838-4.105-4.105
			c0-2.267,1.838-4.105,4.105-4.105C120.854,62.071,122.692,63.909,122.692,66.176z"/>
	</g>
	<g>
		<g>
			
				<rect x="336.283" y="89.382" transform="matrix(0.3659 -0.9306 0.9306 0.3659 115.7156 405.5368)" style="fill:#EBEBEB;" width="38.374" height="56.932"/>
		</g>
		<g>
			<g>
				<g>
					<path style="fill:#E0E0E0;" d="M388.984,110.904c0.006,0.017-0.229,0.113-0.68,0.281c-0.5,0.18-1.159,0.417-1.983,0.713
						c-1.783,0.616-4.274,1.476-7.331,2.532c-6.257,2.108-14.822,4.994-24.308,8.19l-0.2,0.067l-0.106-0.184
						c-0.081-0.14-0.168-0.292-0.256-0.444c-5.028-8.793-9.578-16.75-12.905-22.568c-1.609-2.863-2.92-5.197-3.859-6.868
						c-0.427-0.781-0.768-1.407-1.027-1.88c-0.23-0.433-0.343-0.664-0.327-0.673c0.016-0.009,0.159,0.205,0.418,0.621
						c0.28,0.462,0.649,1.071,1.111,1.832c0.974,1.651,2.334,3.957,4.002,6.786c3.361,5.798,7.957,13.729,13.036,22.492
						c0.088,0.152,0.175,0.304,0.255,0.444l-0.305-0.116c9.505-3.139,18.087-5.974,24.356-8.045
						c3.079-0.991,5.587-1.799,7.383-2.377c0.837-0.258,1.506-0.465,2.014-0.621C388.733,110.951,388.978,110.888,388.984,110.904z"
						/>
				</g>
			</g>
		</g>
		<g>
			<g>
				<path style="fill:#E0E0E0;" d="M321.958,125.783c-0.068-0.126,5.841-3.454,13.197-7.434c7.358-3.981,13.376-7.106,13.444-6.98
					c0.068,0.125-5.84,3.453-13.198,7.435C328.045,122.784,322.026,125.909,321.958,125.783z"/>
			</g>
		</g>
		<g>
			<g>
				<path style="fill:#E0E0E0;" d="M366.386,117.848c0.137-0.041,2.163,6.367,4.525,14.31c2.363,7.946,4.167,14.418,4.03,14.459
					c-0.137,0.041-2.163-6.366-4.525-14.312C368.054,124.362,366.249,117.889,366.386,117.848z"/>
			</g>
		</g>
	</g>
</g>
<g id="Background_Simple" style="display:none;">
	<path style="display:inline;fill:#EBEBEB;" d="M427.531,120.834l-2.458-3.999c-20.403-33.201-57.517-52.909-96.372-49.925
		c-4.438,0.341-8.855,0.967-13.219,1.89c-34.911,7.379-65.288,33.449-77.88,66.836c-7.405,19.636-9.474,42.243-23.527,57.829
		c-18.289,20.284-49.338,20.921-76.637,20.081c-27.299-0.84-58.369-0.124-76.568,20.24c-11.398,12.754-15.021,30.89-14.101,47.97
		c2.433,45.22,34.343,85.653,74.924,105.75c40.581,20.097,88.361,21.897,132.775,13.056
		c62.218-12.385,121.387-46.396,156.952-98.928C446.986,249.102,455.987,177.533,427.531,120.834z"/>
	
		<ellipse transform="matrix(0.7071 -0.7071 0.7071 0.7071 -53.3354 133.2623)" style="display:inline;fill:#EBEBEB;" cx="134.194" cy="131.013" rx="59.211" ry="59.211"/>
</g>
<g id="Floor">
	<g>
		<path style="fill:#263238;" d="M468.102,466.416c0,0.144-97.656,0.26-218.092,0.26c-120.478,0-218.113-0.116-218.113-0.26
			c0-0.144,97.635-0.26,218.113-0.26C370.447,466.155,468.102,466.272,468.102,466.416z"/>
	</g>
</g>
<g id="Speech_bubbles">
	<g>
		<circle style="fill:#E8505B;" cx="257.899" cy="246.016" r="12.901"/>
		<circle style="fill:#E8505B;" cx="302.299" cy="246.016" r="12.901"/>
		<g>
			<g>
				<path style="fill:#E8505B;" d="M388.161,179.27c0-0.028,0.253-0.044,0.757-0.046c0.503-0.015,1.258,0.046,2.234,0.245
					c0.982,0.18,2.166,0.6,3.468,1.303c1.293,0.716,2.681,1.794,3.88,3.345c1.203,1.536,2.204,3.569,2.551,5.975
					c0.126,0.594,0.107,1.221,0.158,1.849c0.006,0.614,0.012,1.241,0.019,1.881c0.012,1.281,0.024,2.615,0.037,4.001
					c0.042,5.545,0.09,11.923,0.144,19.076c0.071,14.308,0.156,31.714,0.255,51.74c0.018,5.007,0.037,10.178,0.056,15.505
					c0.009,2.664,0.018,5.366,0.027,8.107c0.004,1.37,0.009,2.75,0.013,4.14c0.002,0.695,0.004,1.392,0.007,2.091
					c-0.031,0.75-0.05,1.508-0.192,2.256c-0.475,2.998-2.013,5.873-4.358,7.938c-2.317,2.075-5.413,3.396-8.625,3.462
					c-5.933,0.021-12.008,0.044-18.218,0.066l1.077-0.981c-1.179,12.809-2.423,26.335-3.715,40.377l-0.202,2.191l-1.701-1.402
					c-15.374-12.668-31.811-26.212-48.91-40.302l0.798,0.287c-31.387,0.016-65.234,0.032-100.219,0.049
					c-6.356-0.001-12.674-0.001-18.951-0.002c-1.569,0-3.136-0.001-4.7-0.001c-0.797-0.008-1.529,0.017-2.378-0.018
					c-0.861-0.016-1.715-0.134-2.558-0.299c-3.377-0.703-6.413-2.746-8.385-5.525c-0.991-1.388-1.721-2.958-2.143-4.604
					c-0.446-1.621-0.478-3.443-0.452-4.903c0.002-3.072,0.003-6.132,0.005-9.179c0.004-6.095,0.008-12.141,0.011-18.135
					c0.026-23.972,0.052-47.095,0.076-69.122c0.004-2.753,0.008-5.49,0.013-8.208c0.006-1.383,0.104-2.95,0.551-4.344
					c0.417-1.417,1.052-2.762,1.874-3.977c1.678-2.396,4.078-4.285,6.826-5.207c1.365-0.458,2.795-0.764,4.23-0.765
					c1.368-0.029,2.638-0.004,3.954-0.008c10.435,0.022,20.565,0.044,30.36,0.065c19.589,0.057,37.835,0.11,54.493,0.159
					c33.311,0.175,60.268,0.316,78.905,0.414c9.311,0.106,16.542,0.188,21.453,0.244c2.447,0.057,4.315,0.1,5.579,0.129
					C387.517,179.181,388.161,179.225,388.161,179.27c0,0.045-0.644,0.089-1.901,0.133c-1.264,0.029-3.131,0.072-5.579,0.129
					c-4.911,0.056-12.142,0.138-21.453,0.244c-18.637,0.098-45.594,0.239-78.905,0.414c-16.658,0.049-34.905,0.102-54.493,0.159
					c-9.795,0.021-19.925,0.043-30.36,0.065c-1.292,0.009-2.641-0.01-3.899,0.022c-1.199,0.001-2.383,0.267-3.516,0.649
					c-2.28,0.769-4.267,2.355-5.657,4.346c-1.366,2.041-2.071,4.424-1.987,6.994c0.004,2.719,0.008,5.455,0.013,8.208
					c0.024,22.027,0.05,45.15,0.076,69.122c0.004,5.993,0.008,12.039,0.011,18.135c0.002,3.048,0.003,6.108,0.005,9.179
					c-0.02,1.605,0.013,2.893,0.374,4.258c0.344,1.338,0.938,2.613,1.745,3.743c1.609,2.262,4.081,3.927,6.823,4.493
					c0.686,0.131,1.38,0.229,2.083,0.24c0.71,0.033,1.542,0.009,2.309,0.016c1.564,0,3.131-0.001,4.7-0.001
					c6.277-0.001,12.595-0.001,18.951-0.002c34.985,0.017,68.832,0.034,100.219,0.049l0.452,0l0.346,0.287
					c17.06,14.137,33.46,27.726,48.799,40.437l-1.902,0.789c1.35-14.037,2.65-27.558,3.881-40.362l0.095-0.982l0.983,0.001
					c6.187,0.009,12.241,0.018,18.153,0.026c2.729-0.038,5.355-1.146,7.343-2.902c2.012-1.747,3.336-4.191,3.757-6.749
					c0.128-0.638,0.143-1.286,0.179-1.933c0.002-0.699,0.004-1.397,0.007-2.091c0.004-1.389,0.009-2.769,0.013-4.14
					c0.009-2.741,0.018-5.444,0.027-8.107c0.019-5.327,0.038-10.498,0.056-15.505c0.099-20.026,0.185-37.431,0.255-51.74
					c0.054-7.152,0.102-13.531,0.144-19.076c0.013-1.386,0.025-2.72,0.037-4.001c0.007-0.64,0.013-1.267,0.019-1.881
					c-0.038-0.594-0.004-1.178-0.112-1.738c-0.276-2.263-1.17-4.203-2.273-5.693c-1.098-1.503-2.39-2.577-3.607-3.31
					c-1.226-0.72-2.353-1.18-3.297-1.407C389.19,179.312,388.155,179.367,388.161,179.27z"/>
			</g>
		</g>
		<g>
			<path style="fill:#E8505B;" d="M305.425,375.322H110.654c-7.398,0-13.395-5.997-13.395-13.395v-105.06
				c0-7.398,5.997-13.395,13.395-13.395h194.771c7.398,0,13.395,5.997,13.395,13.395v105.06
				C318.82,369.325,312.823,375.322,305.425,375.322z"/>
			<polyline style="fill:#E8505B;" points="232.043,371.112 284.427,417.629 288.726,371.936 			"/>
			<circle style="fill:#FFFFFF;" cx="166.322" cy="311.265" r="12.901"/>
			<circle style="fill:#FFFFFF;" cx="210.723" cy="311.265" r="12.901"/>
			<circle style="fill:#FFFFFF;" cx="255.123" cy="311.265" r="12.901"/>
		</g>
		<g style="opacity:0.3;">
			<path d="M310.563,244.045l-20.826-0.613l-161.022,0.041c13.382,13.303,32.51,20.432,51.309,22.069s37.676-1.223,56.269-4.443
				c18.593-3.22,37.261-6.822,56.13-6.682c3.984,0.029,8.103,0.204,11.804-1.272C307.929,251.669,311.106,247.992,310.563,244.045z"
				/>
		</g>
		<g>
			<circle style="fill:#E8505B;" cx="346.7" cy="246.016" r="12.901"/>
		</g>
	</g>
</g>
<g id="Character">
	<g>
		<path style="fill:#263238;" d="M235.534,56.341c-10.356-0.069-20.308,7.389-23.15,17.347c-1.465,5.132-1.176,10.594-2.109,15.848
			c-0.933,5.254-3.592,10.767-8.581,12.66c-3.25,1.233-6.971,0.722-10.2,2.01c-3,1.198-5.308,3.99-5.921,7.161
			c-0.612,3.172,0.491,6.622,2.83,8.851c-3.909,3.376-4.989,9.598-2.448,14.094c2.541,4.496,8.43,6.779,13.338,5.171
			c-1.852,2.944-1.244,7.02,0.926,9.738c2.171,2.718,5.624,4.185,9.079,4.578c3.456,0.394,6.947-0.181,10.343-0.932
			c7.574-1.675,15.182-4.376,20.878-9.642c6.254-5.782,9.563-14.037,12.068-22.177c4.787-15.552,7.336-32.297,3.422-48.091"/>
		<g>
			<g>
				<g>
					<path style="fill:#FFBE9D;" d="M200.677,143.025l-8.425,18.43l-18.454-40.689c-0.873-3.286-1.845-6.999-2.044-7.739
						c-0.305-1.133-0.404-2.312-0.312-3.482c0.111-1.419,0.336-3.298,0.779-4.288c0.548-1.226-0.679-2.479-1.738-1.875
						c-1.059,0.604-2.65,3.945-2.602,8.267c0.049,4.322-14.82-5.931-17.235-3.504l1.802,14.298c1.634,1.491,6.235,5.597,8.788,7.873
						l17.401,43.299c1.633,4.45,5.289,7.854,9.844,9.166c6.608,1.903,13.658-0.973,17.05-6.955l11.206-19.767L200.677,143.025z"/>
					<g>
						<g>
							<g>
								<path style="fill:#263238;" d="M161.589,95.039c0.291-0.115,0.608,0.058,0.721,0.395l9.568,28.404
									c0.183,0.529-0.016,1.134-0.454,1.379l-11.369,6.378c-0.469,0.263-1.03,0.015-1.235-0.547l-10.759-29.445
									c-0.211-0.577,0.04-1.242,0.545-1.445L161.589,95.039z"/>
							</g>
							<g>
								<polygon style="fill:#F5F5F5;" points="161.899,97.089 170.7,122.434 159.448,128.427 149.777,101.904 								"/>
							</g>
						</g>
					</g>
					<path style="fill:#E0E0E0;" d="M151.931,103.625c0.342,0.864,0.903,2.265,1.251,3.134c0.171,0.427,0.658,0.629,1.083,0.451
						l5.973-2.511l2.067,0.305l-0.579-1.098l0.681-0.273c0.429-0.172,0.633-0.664,0.451-1.089l-1.221-2.849
						c-0.177-0.412-0.65-0.607-1.066-0.439l-8.181,3.303C151.969,102.728,151.765,103.204,151.931,103.625z"/>
					<path style="fill:#E0E0E0;" d="M157.037,118.596c0.342,0.864,0.903,2.265,1.251,3.134c0.171,0.427,0.659,0.629,1.083,0.451
						l5.973-2.511l2.067,0.305l-0.579-1.098l0.681-0.273c0.429-0.172,0.633-0.664,0.45-1.089l-1.221-2.849
						c-0.177-0.412-0.65-0.607-1.066-0.439l-8.181,3.303C157.075,117.699,156.87,118.175,157.037,118.596z"/>
					<path style="fill:#E0E0E0;" d="M163.961,107.164c0.376,0.85,0.982,2.232,1.358,3.09c0.185,0.422-0.013,0.911-0.438,1.088
						l-5.978,2.498l-1.232,1.688l-0.376-1.183l-0.672,0.294c-0.424,0.185-0.917-0.014-1.092-0.443l-1.175-2.869
						c-0.17-0.415,0.023-0.889,0.434-1.068l8.091-3.517C163.295,106.562,163.778,106.75,163.961,107.164z"/>
				</g>
			</g>
			<g>
				<path style="fill:#FFBE9D;" d="M150.646,108.852c1.936,0.318,4.301,0.51,6.237,0.828c0.548,0.09,1.12,0.19,1.565,0.523
					c0.445,0.333,0.711,0.977,0.439,1.462c-0.309,0.553-1.072,0.601-1.705,0.58c-1.424-0.046-2.998,0.255-4.422,0.209
					c1.816,0.155,3.499,0.305,5.528,0.551c0.842,0.102,1.697,0.806,1.714,1.653c0.014,0.729-0.692,1.312-1.414,1.417
					c-0.722,0.105-2.243,0.035-2.243,0.035s-2.926,0.042-3.053,0.424c1.826-0.013,4.24,0.382,6.064,0.545
					c0.499,0.045,0.727,0.727,0.847,1.213c0.12,0.486-0.068,1.078-0.528,1.277c-0.224,0.097-0.476,0.091-0.719,0.083
					c-2.361-0.073-3.596,0.077-5.958,0.004"/>
			</g>
			<g>
				<path style="fill:#EB996E;" d="M194.538,174.589c-0.17-0.018,0.507-3.114-0.235-6.853c-0.695-3.749-2.468-6.374-2.317-6.454
					c0.05-0.035,0.558,0.569,1.171,1.684c0.614,1.111,1.288,2.758,1.658,4.672c0.364,1.914,0.348,3.693,0.188,4.953
					C194.846,173.854,194.597,174.603,194.538,174.589z"/>
			</g>
			<g>
				<path style="fill:#EB996E;" d="M159.801,117.341c-0.017,0.143-1.868,0.044-4.134-0.221c-1.131-0.109-2.169-0.34-2.861-0.338
					c-0.715-0.007-1.024,0.357-1.083,0.308c-0.025-0.018,0.01-0.144,0.176-0.305c0.163-0.162,0.479-0.317,0.875-0.37
					c0.807-0.097,1.814,0.08,2.952,0.188C157.994,116.868,159.818,117.199,159.801,117.341z"/>
			</g>
			<g>
				<path style="fill:#EB996E;" d="M159.145,113.191c-0.017,0.143-1.846,0.047-4.085-0.215c-1.116-0.102-2.148-0.348-2.819-0.325
					c-0.695,0.021-0.995,0.406-1.056,0.35c-0.069-0.008,0.181-0.575,1.012-0.715c0.393-0.077,0.866-0.036,1.342,0.009
					c0.529,0.055,1.043,0.108,1.581,0.164C157.36,112.72,159.162,113.048,159.145,113.191z"/>
			</g>
		</g>
		<g>
			<g>
				<path style="fill:#263238;" d="M216.211,198.855c0,0-60.861-4.593-78.469,9.187c-17.608,13.78-9.187,35.981-9.187,35.981h99.522
					l3.828-45.903L216.211,198.855z"/>
				<g>
					<path style="fill:#455A64;" d="M227.658,230.474c-0.002,0.018-0.308-0.005-0.888-0.066c-0.58-0.064-1.436-0.152-2.534-0.298
						c-2.199-0.277-5.374-0.73-9.282-1.392c-7.814-1.314-18.552-3.567-30.161-6.977c-5.801-1.716-11.288-3.452-16.364-4.706
						c-5.076-1.23-9.732-2.024-13.678-2.176c-3.941-0.17-7.144,0.117-9.311,0.539c-1.098,0.141-1.917,0.414-2.491,0.514
						c-0.569,0.125-0.871,0.182-0.876,0.165c-0.005-0.017,0.287-0.108,0.849-0.266c0.567-0.133,1.383-0.439,2.48-0.611
						c2.167-0.486,5.39-0.831,9.364-0.707c3.978,0.106,8.672,0.868,13.776,2.078c5.103,1.233,10.606,2.96,16.397,4.672
						c11.587,3.404,22.29,5.71,30.078,7.114c3.894,0.708,7.058,1.215,9.246,1.554c1.059,0.166,1.899,0.297,2.52,0.394
						C227.359,230.398,227.66,230.456,227.658,230.474z"/>
				</g>
				<g>
					<path style="fill:#455A64;" d="M170.216,216.762c-0.116,0.122-2.184-2.128-5.468-3.826c-3.267-1.734-6.293-2.154-6.258-2.318
						c0.008-0.062,0.772-0.04,1.98,0.212c1.206,0.25,2.846,0.77,4.52,1.645c1.671,0.879,3.033,1.931,3.924,2.78
						C169.809,216.104,170.262,216.72,170.216,216.762z"/>
				</g>
			</g>
			<g>
				<path style="fill:#263238;" d="M260.264,193.126c0,0-55.675,1.514-73.282,15.294c-17.608,13.78-9.187,35.981-9.187,35.981
					l104.401,1.615v-13.462l-13.537-1.469l-0.1-0.611c5.256-5.755,1.255-25.79-7.485-36.368L260.264,193.126z"/>
				<g>
					<path style="fill:#455A64;" d="M275.89,231.95c-0.002,0.018-0.308-0.005-0.888-0.066c-0.58-0.064-1.436-0.152-2.534-0.298
						c-2.199-0.277-5.374-0.73-9.282-1.392c-7.814-1.314-18.552-3.567-30.161-6.977c-5.801-1.716-11.288-3.452-16.364-4.706
						c-5.076-1.229-9.732-2.024-13.678-2.176c-3.941-0.17-7.144,0.117-9.311,0.539c-1.098,0.141-1.917,0.414-2.491,0.514
						c-0.569,0.125-0.871,0.182-0.876,0.165c-0.005-0.017,0.287-0.108,0.849-0.266c0.567-0.133,1.383-0.439,2.481-0.612
						c2.167-0.485,5.39-0.831,9.364-0.707c3.978,0.106,8.672,0.868,13.776,2.078c5.103,1.233,10.606,2.96,16.397,4.672
						c11.587,3.404,22.29,5.71,30.079,7.114c3.894,0.707,7.058,1.215,9.246,1.554c1.059,0.166,1.899,0.297,2.52,0.394
						C275.591,231.874,275.892,231.932,275.89,231.95z"/>
				</g>
				<g>
					<path style="fill:#455A64;" d="M218.448,218.238c-0.115,0.122-2.184-2.128-5.468-3.826c-3.267-1.734-6.293-2.154-6.258-2.318
						c0.008-0.062,0.772-0.04,1.98,0.212c1.205,0.25,2.846,0.77,4.52,1.645c1.671,0.879,3.033,1.931,3.924,2.78
						C218.041,217.58,218.495,218.196,218.448,218.238z"/>
				</g>
			</g>
			<g>
				<path style="fill:#455A64;" d="M231.478,195.445c0.002,0.018-0.295,0.066-0.862,0.143c-0.611,0.086-1.436,0.203-2.474,0.349
					c-2.146,0.322-5.243,0.842-9.047,1.605c-3.804,0.76-8.322,1.744-13.311,2.934c-4.958,1.21-10.336,3.079-15.372,6.149
					c-2.515,1.531-4.797,3.31-6.697,5.324c-1.911,2.008-3.43,4.236-4.623,6.483c-2.374,4.524-3.242,9.164-3.251,13.011
					c-0.037,3.868,0.692,6.956,1.32,9.017c0.322,1.033,0.617,1.822,0.826,2.352c0.212,0.53,0.316,0.812,0.3,0.82
					c-0.016,0.008-0.152-0.26-0.396-0.779c-0.241-0.519-0.568-1.3-0.922-2.331c-0.691-2.057-1.485-5.163-1.495-9.081
					c-0.038-3.894,0.804-8.62,3.194-13.231c1.201-2.29,2.738-4.563,4.677-6.612c1.931-2.057,4.251-3.87,6.796-5.419
					c5.101-3.109,10.531-4.977,15.532-6.171c5.005-1.166,9.533-2.113,13.353-2.829c3.819-0.718,6.932-1.184,9.09-1.444
					c1.079-0.127,1.919-0.214,2.49-0.253C231.176,195.441,231.476,195.427,231.478,195.445z"/>
			</g>
		</g>
		<g>
			<path style="fill:#E0E0E0;" d="M282.196,233.219l9.529-0.604l6.302,3.671l12.095,1.321c5.793,0.305,6.708,6.53,3.151,6.53
				c-2.829,0-19.76,1.103-19.76,1.103l-11.316,0.296V233.219z"/>
			<g>
				<path style="fill:#455A64;" d="M297.67,236.307c0.029,0.051-0.484,0.425-1.465,0.68c-0.966,0.258-2.433,0.328-3.898-0.236
					c-1.464-0.567-2.503-1.605-3.045-2.446c-0.554-0.848-0.683-1.47-0.627-1.488c0.077-0.033,0.326,0.525,0.924,1.271
					c0.589,0.743,1.589,1.656,2.935,2.177c1.346,0.519,2.701,0.516,3.636,0.362C297.076,236.477,297.635,236.23,297.67,236.307z"/>
			</g>
			<g>
				<path style="fill:#455A64;" d="M312.784,244.019c0.015,0.06-0.484,0.185-1.166-0.172c-0.691-0.332-1.35-1.253-1.596-2.334
					c-0.297-1.074-0.153-2.178,0.246-2.816c0.385-0.654,0.842-0.846,0.87-0.791c0.051,0.063-0.288,0.345-0.54,0.955
					c-0.267,0.602-0.339,1.532-0.071,2.524c0.237,1.002,0.741,1.785,1.285,2.149C312.344,243.916,312.789,243.938,312.784,244.019z"
					/>
			</g>
		</g>
		<g>
			<path style="fill:#E8505B;" d="M219.034,117.368c0,0-11.869,26.09-11.17,30.521c0.7,4.431,4.125,22.095,4.125,22.095l2.51,28.757
				c0,0,44.831-5.436,45.764-5.436c0.933,0-1.399-23.787-1.399-23.787l6.826-45.721c0,0-3.131-6.227-17.248-8.384
				C239.958,114.117,219.034,117.368,219.034,117.368z"/>
			<path style="fill:#E8505B;" d="M251.767,152.526c0.542,3.85,1.564,8.412,4.235,13.28c0.853,1.555,1.657,3.733,3.075,4.799
				c2.222,1.669,5.409,0.092,7.427-1.819c2.017-1.91,4.043-4.326,6.82-4.425c1.766-0.063,3.402,0.863,5.132,1.225
				c1.73,0.361,3.975-0.192,4.379-1.912c0.233-0.989-0.24-1.991-0.69-2.902c-4.316-8.749-7.413-17.016-9.679-26.505
				c-0.453-1.896-2.549-5.79-3.511-7.485c-0.963-1.695-3.583-4.142-6.127-6.201"/>
			<path style="fill:#E8505B;" d="M227.456,115.636c-12.331,0.438-21.585,8.589-24.218,14.474
				c-3.086,6.899-5.49,15.243-9.108,21.879c-0.711,1.304-1.558,2.574-1.867,4.027c-0.309,1.453,0.08,3.188,1.359,3.944
				c1.857,1.098,4.555-0.329,6.269,0.98c0.943,0.721,1.22,2.03,2.026,2.9c0.991,1.069,2.572,1.29,4.021,1.447
				c2.778,0.3,5.556,0.601,8.333,0.901"/>
			<g>
				<path style="fill:#263238;" d="M249.034,141.095c-0.027,0.012-0.219-0.33-0.48-0.99c-0.263-0.658-0.559-1.65-0.742-2.91
					c-0.384-2.49-0.113-6.216,1.905-9.609c2.032-3.387,5.185-5.391,7.56-6.233c1.197-0.436,2.21-0.646,2.914-0.726
					c0.704-0.083,1.097-0.076,1.099-0.046c0.018,0.107-1.569,0.174-3.879,1.115c-2.285,0.91-5.291,2.898-7.246,6.157
					c-1.943,3.265-2.269,6.854-1.987,9.298C248.444,139.631,249.137,141.06,249.034,141.095z"/>
			</g>
			<g>
				<path style="fill:#263238;" d="M215.106,130.878c0.031,0.019-0.199,0.483-0.639,1.302c-0.225,0.407-0.494,0.907-0.769,1.508
					c-0.28,0.598-0.633,1.261-0.936,2.034c-0.672,1.517-1.34,3.379-1.951,5.482c-0.577,2.113-1.077,4.473-1.373,6.984
					c-0.272,2.515-0.312,4.928-0.221,7.117c0.125,2.187,0.361,4.151,0.677,5.78c0.123,0.822,0.319,1.547,0.458,2.192
					c0.133,0.647,0.283,1.195,0.412,1.642c0.246,0.897,0.366,1.4,0.332,1.412c-0.034,0.012-0.219-0.47-0.526-1.353
					c-0.16-0.44-0.339-0.983-0.5-1.628c-0.167-0.643-0.39-1.368-0.538-2.193c-0.365-1.634-0.642-3.614-0.795-5.825
					c-0.118-2.212-0.093-4.656,0.183-7.202c0.3-2.542,0.82-4.929,1.43-7.059c0.643-2.12,1.355-3.989,2.076-5.5
					c0.328-0.77,0.707-1.428,1.014-2.017c0.301-0.592,0.598-1.082,0.851-1.475C214.787,131.287,215.075,130.859,215.106,130.878z"/>
			</g>
			<g>
				<path style="fill:#FAFAFA;" d="M282.105,160.14c0.016,0.008-0.018,0.106-0.102,0.292c-0.104,0.171-0.264,0.438-0.575,0.679
					c-0.6,0.505-1.755,0.872-3.135,0.704c-1.397-0.156-2.849-0.964-4.538-1.293c-1.699-0.378-3.573,0.397-5.125,1.661
					c-1.571,1.254-2.85,2.785-4.357,3.814c-0.743,0.515-1.527,0.937-2.344,1.113c-0.803,0.166-1.561,0.183-2.245,0.135
					c-1.369-0.099-2.446-0.494-3.084-0.93c-0.317-0.222-0.53-0.44-0.647-0.605c-0.113-0.17-0.162-0.262-0.147-0.271
					c0.042-0.032,0.263,0.338,0.901,0.704c0.635,0.361,1.679,0.686,2.997,0.734c0.656,0.024,1.384-0.015,2.127-0.188
					c0.732-0.174,1.458-0.579,2.164-1.084c1.43-1.003,2.678-2.521,4.312-3.831c0.819-0.645,1.706-1.197,2.661-1.523
					c0.948-0.335,1.973-0.393,2.875-0.201c1.8,0.387,3.204,1.218,4.5,1.4c1.293,0.202,2.377-0.085,2.965-0.501
					C281.908,160.531,282.057,160.109,282.105,160.14z"/>
			</g>
			<g>
				<path style="fill:#FAFAFA;" d="M279.239,154.286c0.015,0.005,0.002,0.103-0.065,0.281c-0.071,0.175-0.219,0.425-0.496,0.667
					c-0.541,0.486-1.635,0.868-2.923,0.61c-1.273-0.218-2.6-1.052-4.18-1.13c-1.59-0.083-3.307,0.602-4.855,1.638
					c-1.557,1.044-2.897,2.292-4.288,3.225c-1.37,0.958-2.827,1.558-4.103,1.701c-1.276,0.163-2.331-0.074-2.972-0.385
					c-0.648-0.309-0.92-0.607-0.904-0.624c0.028-0.04,0.34,0.198,0.981,0.436c0.636,0.24,1.637,0.407,2.842,0.208
					c1.21-0.185,2.56-0.777,3.883-1.731c1.341-0.929,2.662-2.181,4.273-3.264c1.598-1.07,3.428-1.8,5.168-1.683
					c0.869,0.042,1.645,0.328,2.329,0.59c0.687,0.268,1.312,0.521,1.902,0.659c1.17,0.282,2.194-0.014,2.719-0.408
					C279.095,154.673,279.189,154.259,279.239,154.286z"/>
			</g>
			<g>
				<path style="fill:#FAFAFA;" d="M209.183,161.893c0.018,0.015-0.185,0.263-0.718,0.385c-0.52,0.116-1.367,0.025-2.144-0.575
					c-0.781-0.594-1.326-1.621-1.863-2.685c-0.535-1.042-1.253-2.229-2.542-2.547c-1.279-0.33-2.59-0.001-3.781,0.197
					c-1.194,0.21-2.376,0.257-3.278-0.147c-0.89-0.386-1.413-1.044-1.589-1.548c-0.188-0.511-0.092-0.817-0.073-0.811
					c0.051-0.004,0.032,0.293,0.259,0.73c0.213,0.431,0.723,0.981,1.541,1.288c0.808,0.315,1.891,0.248,3.056,0.016
					c1.161-0.212,2.534-0.599,4.001-0.227c0.728,0.187,1.368,0.64,1.807,1.173c0.447,0.533,0.755,1.113,1.026,1.659
					c0.52,1.093,0.999,2.054,1.668,2.617c0.657,0.565,1.406,0.706,1.88,0.66C208.921,162.029,209.159,161.852,209.183,161.893z"/>
			</g>
			<g>
				<path style="fill:#FAFAFA;" d="M207.667,156.012c0.007,0.026-0.214,0.115-0.601-0.002c-0.385-0.113-0.862-0.479-1.243-1.059
					c-0.384-0.553-0.683-1.333-1.348-1.745c-0.665-0.429-1.626-0.336-2.611-0.181c-0.99,0.179-2.045,0.22-2.924-0.013
					c-0.889-0.207-1.631-0.583-2.186-0.978c-1.122-0.801-1.504-1.594-1.46-1.613c0.072-0.061,0.554,0.631,1.661,1.305
					c1.093,0.686,2.861,1.222,4.833,0.783c0.977-0.15,2.094-0.278,2.946,0.292c0.834,0.579,1.069,1.422,1.402,1.956
					c0.312,0.554,0.695,0.912,1.005,1.064C207.453,155.978,207.667,155.968,207.667,156.012z"/>
			</g>
			<g>
				<path style="fill:#FAFAFA;" d="M254.661,161.166c-0.011,0.037-0.634-0.121-1.764-0.388c-1.13-0.263-2.766-0.648-4.805-1.024
					c-1.019-0.189-2.138-0.379-3.344-0.523c-1.202-0.132-2.508-0.278-3.838-0.153c-1.326,0.136-2.668,0.653-3.989,1.307
					c-1.324,0.661-2.648,1.468-4.088,2.173c-1.435,0.702-2.971,1.228-4.512,1.306c-1.535,0.089-2.998-0.159-4.341-0.481
					c-2.688-0.666-5.008-1.523-7.063-1.716c-2.044-0.254-3.719,0.031-4.783,0.451c-1.065,0.43-1.554,0.871-1.587,0.824
					c-0.011-0.014,0.107-0.122,0.347-0.318c0.242-0.191,0.628-0.44,1.162-0.692c1.07-0.492,2.801-0.844,4.899-0.631
					c2.111,0.152,4.489,0.988,7.135,1.615c1.325,0.305,2.743,0.531,4.2,0.439c1.458-0.081,2.91-0.579,4.316-1.266
					c1.409-0.688,2.735-1.493,4.089-2.161c1.354-0.662,2.75-1.195,4.169-1.328c1.412-0.117,2.721,0.051,3.94,0.202
					c1.218,0.165,2.34,0.377,3.36,0.59c2.04,0.424,3.668,0.864,4.786,1.189c0.559,0.163,0.989,0.301,1.279,0.403
					C254.517,161.087,254.666,161.149,254.661,161.166z"/>
			</g>
			<g>
				<path style="fill:#FAFAFA;" d="M255.686,166.189c-0.018,0.035-0.596-0.239-1.66-0.686c-1.066-0.441-2.614-1.076-4.581-1.677
					c-0.982-0.296-2.075-0.59-3.258-0.731c-1.176-0.124-2.451,0.044-3.717,0.483c-2.552,0.87-4.969,2.748-7.964,3.922
					c-1.5,0.589-3.094,0.822-4.602,0.803c-1.513-0.015-2.951-0.225-4.301-0.466c-2.697-0.508-5.09-1.04-7.145-1.102
					c-2.049-0.097-3.7,0.216-4.772,0.609c-1.077,0.39-1.61,0.757-1.637,0.712c-0.01-0.015,0.118-0.111,0.373-0.283
					c0.255-0.169,0.651-0.396,1.192-0.618c1.073-0.461,2.765-0.84,4.856-0.788c2.095,0.016,4.539,0.52,7.215,0.997
					c2.657,0.449,5.732,0.808,8.637-0.352c2.892-1.126,5.335-3.003,7.994-3.889c1.321-0.445,2.68-0.609,3.922-0.457
					c1.232,0.166,2.331,0.487,3.319,0.809c1.975,0.654,3.508,1.344,4.554,1.844c0.521,0.254,0.92,0.464,1.186,0.615
					C255.56,166.085,255.694,166.173,255.686,166.189z"/>
			</g>
			<g>
				<path style="fill:#263238;" d="M242.331,164.404c0.003,0.036-0.254,0.076-0.726,0.118c-0.47,0.054-1.16,0.043-2.002-0.051
					c-0.846-0.085-1.837-0.317-2.9-0.687c-1.053-0.395-2.171-0.944-3.244-1.679c-1.064-0.75-1.969-1.606-2.706-2.455
					c-0.718-0.867-1.281-1.715-1.656-2.478c-0.382-0.757-0.633-1.399-0.746-1.859c-0.125-0.456-0.177-0.711-0.142-0.721
					c0.094-0.03,0.386,0.972,1.211,2.403c0.404,0.72,0.982,1.519,1.695,2.34c0.733,0.803,1.615,1.618,2.641,2.342
					c1.037,0.709,2.108,1.251,3.116,1.657c1.018,0.382,1.968,0.644,2.784,0.771C241.285,164.381,242.326,164.305,242.331,164.404z"
					/>
			</g>
			<g style="opacity:0.3;">
				<path d="M228.248,155.667c0.679,3.72,2.104,7.433,4.816,10.068c2.712,2.635,6.894,3.968,10.416,2.591
					c0.74-0.289,1.506-0.777,1.68-1.552c0.201-0.896-0.515-1.784-1.361-2.14c-0.847-0.356-1.797-0.329-2.714-0.379
					c-5.233-0.287-10.208-3.508-12.614-8.164"/>
			</g>
			<g>
				<path style="fill:#263238;" d="M257.569,170.507c-0.034,0.012-0.187-0.331-0.434-0.961c-0.248-0.63-0.585-1.549-0.984-2.69
					c-0.799-2.282-1.835-5.46-2.871-9.002c-1.035-3.544-1.872-6.779-2.428-9.133c-0.278-1.177-0.489-2.132-0.619-2.797
					c-0.131-0.664-0.187-1.035-0.152-1.043c0.035-0.008,0.157,0.346,0.349,0.995c0.215,0.761,0.475,1.679,0.779,2.753
					c0.646,2.328,1.538,5.542,2.571,9.079c1.034,3.536,2.012,6.724,2.721,9.033c0.322,1.069,0.598,1.982,0.826,2.74
					C257.515,170.13,257.603,170.495,257.569,170.507z"/>
			</g>
		</g>
		<g>
			<path style="fill:#FFBE9D;" d="M212.425,199.135c0,0,8.647-9.257,16.202-11.078c7.555-1.821,34.645-11.382,34.645-11.382
				l-1.709-5.39l0,0c1.723-0.108,3.324-1.063,4.546-2.282l1.751-1.746c2.381-2.595,5.246-4.027,9.411-2.589l2.615,0.785l2.738,7.981
				c2.689,7.946-2.522,16.375-10.832,17.52L212.425,199.135z"/>
			<g>
				<path style="fill:#EB996E;" d="M274.504,177.824c-0.066,0.151-2.368-1.022-5.471-1.329c-3.099-0.344-5.595,0.327-5.628,0.165
					c-0.06-0.111,2.463-1.036,5.682-0.683C272.31,176.3,274.585,177.729,274.504,177.824z"/>
			</g>
		</g>
		<g>
			<path style="fill:#263238;" d="M213.728,72.561c-0.782-12.534,15.635-21.383,26.798-18.23c10.49,2.963,14.964,8.183,16.69,15.199
				c1.727,7.019,1.644,14.621-1.107,21.306c-1.356,3.296-3.799,6.645-7.34,7.057"/>
			<g>
				<g>
					<g>
						<g>
							<g>
								<g>
									<g>
										<g>
											<g>
												<g>
													<g>
														<g>
															<g>
																<path style="fill:#FFBE9D;" d="M247.215,64.847c1.84,0.195,3.226,1.765,3.189,3.616l0,0l-2.02,48.147
																	c-0.076,5.686-8.381,8.899-14.468,8.771l0,0c-6.148-0.13-6.353-3.144-6.441-8.553
																	c-0.149-9.037-0.145-12.429-0.149-12.378c0,0-7.768-1.29-9.378-11.425c-0.8-5.04-0.547-13.305-0.122-20.06
																	c0.383-6.08,4.412-13.541,10.47-12.9L247.215,64.847z"/>
															</g>
														</g>
													</g>
												</g>
											</g>
										</g>
										<g>
											<g>
												<g>
													<g>
														<g>
															<g>
																<g>
																	<path style="fill:#263238;" d="M220.46,79.526c-0.024,0.686,0.537,1.273,1.253,1.311
																		c0.715,0.038,1.316-0.485,1.34-1.172c0.024-0.686-0.537-1.274-1.252-1.312
																		C221.085,78.315,220.484,78.84,220.46,79.526z"/>
																</g>
															</g>
														</g>
													</g>
												</g>
											</g>
											<g>
												<g>
													<g>
														<g>
															<g>
																<g>
																	<g>
																		<path style="fill:#263238;" d="M219.62,77.265c0.161,0.169,1.146-0.559,2.545-0.556
																			c1.397-0.016,2.424,0.703,2.576,0.532c0.075-0.076-0.09-0.382-0.537-0.707c-0.44-0.324-1.19-0.639-2.062-0.635
																			c-0.871,0.005-1.604,0.326-2.025,0.654C219.686,76.882,219.541,77.189,219.62,77.265z"/>
																	</g>
																</g>
															</g>
														</g>
													</g>
												</g>
											</g>
										</g>
										<g>
											<g>
												<g>
													<g>
														<g>
															<g>
																<g>
																	<path style="fill:#263238;" d="M234.134,79.526c-0.024,0.686,0.537,1.273,1.253,1.311
																		c0.715,0.038,1.316-0.485,1.34-1.172c0.024-0.686-0.537-1.274-1.252-1.312
																		C234.759,78.315,234.158,78.84,234.134,79.526z"/>
																</g>
															</g>
														</g>
													</g>
												</g>
											</g>
											<g>
												<g>
													<g>
														<g>
															<g>
																<g>
																	<g>
																		<path style="fill:#263238;" d="M233.369,77.526c0.161,0.17,1.147-0.559,2.545-0.555
																			c1.397-0.017,2.424,0.703,2.576,0.532c0.074-0.076-0.088-0.382-0.537-0.707c-0.44-0.324-1.19-0.639-2.062-0.636
																			c-0.871,0.005-1.604,0.326-2.026,0.654C233.436,77.143,233.29,77.45,233.369,77.526z"/>
																	</g>
																</g>
															</g>
														</g>
													</g>
												</g>
											</g>
										</g>
										<g>
											<g>
												<g>
													<g>
														<g>
															<g>
																<g>
																	<path style="fill:#263238;" d="M228.293,87.899c0.007-0.08-0.863-0.23-2.272-0.41
																		c-0.357-0.037-0.695-0.108-0.756-0.351c-0.084-0.258,0.065-0.643,0.239-1.059c0.336-0.864,0.687-1.77,1.056-2.72
																		c1.467-3.872,2.529-7.056,2.372-7.114c-0.156-0.058-1.473,3.034-2.939,6.906c-0.353,0.955-0.691,1.865-1.012,2.736
																		c-0.135,0.406-0.368,0.866-0.185,1.402c0.096,0.267,0.358,0.46,0.587,0.522c0.229,0.07,0.43,0.074,0.607,0.084
																		C227.408,87.972,228.287,87.978,228.293,87.899z"/>
																</g>
															</g>
														</g>
													</g>
												</g>
											</g>
										</g>
										<g>
											<g>
												<g>
													<g>
														<g>
															<g>
																<path style="fill:#EB996E;" d="M227.326,104.45c0,0,6.818,0.44,13.574-3.621c0,0-3.293,6.962-13.437,6.014
																	L227.326,104.45z"/>
															</g>
														</g>
													</g>
												</g>
											</g>
										</g>
										<g>
											<g>
												<g>
													<g>
														<g>
															<g>
																<path style="fill:#EB996E;" d="M228.884,91.27c0.503-0.665,1.384-1.03,2.259-0.936
																	c0.607,0.065,1.22,0.358,1.589,0.852c0.369,0.494,0.446,1.196,0.111,1.667c-0.378,0.531-1.166,0.653-1.834,0.464
																	c-0.668-0.19-1.242-0.629-1.788-1.067c-0.151-0.121-0.305-0.248-0.399-0.414c-0.094-0.166-0.114-0.383,0.002-0.521"
																	/>
															</g>
														</g>
													</g>
												</g>
											</g>
										</g>
										<g>
											<g>
												<g>
													<g>
														<g>
															<g>
																<g>
																	<path style="fill:#263238;" d="M232.409,88.866c-0.227-0.013-0.23,1.505-1.53,2.583
																		c-1.297,1.081-2.916,0.911-2.927,1.123c-0.021,0.095,0.36,0.295,1.043,0.313c0.67,0.023,1.648-0.192,2.444-0.852
																		c0.793-0.661,1.134-1.543,1.185-2.165C232.682,89.233,232.513,88.857,232.409,88.866z"/>
																</g>
															</g>
														</g>
													</g>
												</g>
											</g>
										</g>
									</g>
								</g>
							</g>
							<g>
								<g>
									<g>
										<g>
											<g>
												<g>
													<path style="fill:#263238;" d="M232.74,75.077c0.138,0.38,1.535,0.2,3.175,0.398c1.645,0.165,2.968,0.645,3.186,0.304
														c0.097-0.163-0.133-0.521-0.669-0.889c-0.53-0.368-1.377-0.717-2.362-0.827c-0.985-0.108-1.887,0.049-2.485,0.292
														C232.983,74.597,232.68,74.896,232.74,75.077z"/>
												</g>
											</g>
										</g>
									</g>
								</g>
							</g>
							<g>
								<g>
									<g>
										<g>
											<g>
												<g>
													<path style="fill:#263238;" d="M220.134,73.216c0.246,0.317,1.21-0.012,2.368-0.028
														c1.158-0.056,2.14,0.213,2.366-0.119c0.099-0.161-0.056-0.479-0.484-0.78c-0.423-0.3-1.129-0.545-1.925-0.521
														c-0.796,0.025-1.486,0.313-1.889,0.639C220.16,72.734,220.026,73.062,220.134,73.216z"/>
												</g>
											</g>
										</g>
									</g>
								</g>
							</g>
						</g>
					</g>
					<g>
						<g>
							<g>
								<path style="fill:#263238;" d="M233.348,56.69c-3.694,0.123-6.495,1.246-9.738,3.02c-3.242,1.774-5.953,4.701-6.951,8.26
									c-0.212,0.755-0.332,1.616,0.081,2.283c0.546,0.88,1.836,1.026,2.78,0.599c0.944-0.427,1.621-1.271,2.261-2.085
									c0.479,1.86,2.324,3.273,4.244,3.251c1.921-0.021,3.733-1.475,4.171-3.345c0.015,1.946,1.962,3.555,3.907,3.485
									c1.945-0.07,3.666-1.57,4.314-3.405c0.361,1.729,0.747,3.516,1.783,4.948c1.035,1.432,2.909,2.417,4.589,1.869
									c-0.238,1.511-0.47,3.101,0.066,4.533c0.536,1.432,3.023,32.456,4.469,31.959c1.404-0.483,1.053-32.01,1.381-33.458
									c0.633-2.792,1.175-5.633,1.086-8.495c-0.089-2.861-0.855-5.771-2.609-8.033c-1.815-2.34-4.565-3.824-7.429-4.58
									c-2.864-0.756-5.859-0.84-8.821-0.803"/>
							</g>
						</g>
					</g>
				</g>
			</g>
			<g>
				<path style="fill:#263238;" d="M198.074,96.834c-0.03,0.019-0.116-0.187-0.404-0.469c-0.278-0.283-0.782-0.638-1.53-0.778
					c-0.729-0.132-1.736-0.063-2.587,0.576c-0.847,0.628-1.346,1.893-1.166,3.216c0.089,0.66,0.336,1.335,0.764,1.916
					c0.436,0.573,1.042,1.063,1.76,1.38c1.433,0.658,3.252,0.671,4.892-0.032c1.651-0.693,3.123-1.976,4.307-3.543
					c1.188-1.569,2.119-3.416,2.767-5.414c1.32-4.004,1.681-8.058,2.236-11.693c0.534-3.65,1.377-6.909,2.558-9.459
					c1.147-2.57,2.676-4.334,3.857-5.353c0.612-0.491,1.099-0.855,1.464-1.049c0.354-0.211,0.543-0.313,0.552-0.298
					c0.036,0.055-0.733,0.464-1.881,1.498c-1.121,1.05-2.571,2.807-3.656,5.352c-1.118,2.525-1.914,5.749-2.419,9.376
					c-0.528,3.624-0.871,7.703-2.216,11.789c-0.661,2.038-1.621,3.941-2.857,5.559c-1.227,1.613-2.769,2.952-4.528,3.675
					c-1.749,0.736-3.717,0.712-5.256-0.019c-0.775-0.354-1.431-0.894-1.904-1.535c-0.465-0.651-0.721-1.39-0.805-2.108
					c-0.172-1.439,0.397-2.819,1.357-3.494c0.96-0.681,2.035-0.71,2.802-0.541c0.788,0.18,1.301,0.586,1.566,0.905
					C198.022,96.612,198.074,96.834,198.074,96.834z"/>
			</g>
			<g>
				<path style="fill:#263238;" d="M251.827,113.446c-0.027-0.054,0.592-0.314,1.569-1.001c0.975-0.681,2.272-1.86,3.438-3.641
					c1.156-1.779,2.146-4.168,2.566-6.948c0.426-2.78,0.223-5.915-0.389-9.113c-0.621-3.206-1.536-6.194-2.332-8.925
					c-0.802-2.729-1.465-5.215-1.865-7.338c-0.401-2.123-0.557-3.871-0.579-5.078c-0.009-0.604-0.004-1.072,0.02-1.39
					c0.018-0.317,0.036-0.483,0.054-0.483c0.047,0.001,0.041,0.667,0.128,1.862c0.084,1.196,0.294,2.919,0.738,5.015
					c0.443,2.097,1.137,4.555,1.964,7.275c0.819,2.72,1.754,5.719,2.383,8.963c0.619,3.239,0.814,6.435,0.351,9.284
					c-0.457,2.847-1.508,5.282-2.733,7.078c-1.235,1.8-2.604,2.965-3.631,3.605c-0.519,0.316-0.93,0.542-1.228,0.66
					C251.99,113.402,251.835,113.462,251.827,113.446z"/>
			</g>
			<g>
				<path style="fill:#263238;" d="M253.638,106.942c0.007,0.017-0.115,0.076-0.356,0.175c-0.242,0.096-0.614,0.201-1.106,0.273
					c-0.977,0.126-2.489,0.01-4.071-0.85c-1.587-0.831-3.105-2.522-3.917-4.741c-0.85-2.209-1.029-4.85-0.785-7.517
					c0.24-2.678,0.727-5.168,0.947-7.458c0.244-2.288,0.351-4.361,0.391-6.102c0.042-1.742,0.016-3.152-0.002-4.128
					c-0.018-0.976-0.032-1.516,0.007-1.519c0.032-0.003,0.114,0.533,0.195,1.508c0.081,0.975,0.163,2.39,0.168,4.142
					c0.007,1.751-0.062,3.839-0.282,6.146c-0.196,2.312-0.67,4.82-0.906,7.454c-0.239,2.627-0.075,5.176,0.716,7.306
					c0.759,2.14,2.157,3.752,3.648,4.587c1.487,0.86,2.922,1.029,3.871,0.969C253.116,107.111,253.622,106.891,253.638,106.942z"/>
			</g>
			<g>
				<path style="fill:#455A64;" d="M188.234,116.077c0,0-0.036-0.342,0.152-0.956c0.189-0.606,0.68-1.474,1.667-2.205
					c0.962-0.741,2.409-1.334,4.134-1.438c1.719-0.157,3.669,0.093,5.783-0.047c2.109-0.169,4.374-0.88,6.488-2.201
					c2.096-1.337,4.072-3.207,5.619-5.548c1.571-2.324,2.677-5.104,3.329-8.092c0.658-2.99,0.866-6.18,0.797-9.435
					c-0.053-3.26-0.451-6.427-0.649-9.52c-0.196-3.083-0.174-6.129,0.564-8.92c0.711-2.79,2.216-5.231,4.16-6.906
					c1.916-1.71,4.165-2.724,6.29-3.157c2.138-0.432,4.148-0.264,5.809,0.168c1.668,0.436,3.013,1.102,4.02,1.766
					c1.01,0.665,1.707,1.3,2.144,1.758c0.225,0.223,0.372,0.417,0.48,0.538c0.104,0.125,0.154,0.191,0.147,0.197
					c-0.051,0.057-0.855-1.05-2.879-2.322c-1.008-0.629-2.342-1.255-3.981-1.655c-1.633-0.397-3.594-0.532-5.664-0.09
					c-2.06,0.443-4.235,1.448-6.078,3.119c-1.871,1.639-3.302,3.99-3.983,6.705c-0.705,2.714-0.721,5.706-0.519,8.766
					c0.203,3.066,0.607,6.252,0.661,9.542c0.07,3.283-0.143,6.515-0.819,9.555c-0.669,3.035-1.81,5.878-3.43,8.251
					c-1.595,2.387-3.628,4.291-5.79,5.647c-2.18,1.34-4.52,2.053-6.69,2.202c-2.172,0.118-4.103-0.158-5.788-0.03
					c-1.689,0.076-3.079,0.618-4.035,1.311c-0.972,0.683-1.472,1.499-1.688,2.077C188.27,115.742,188.267,116.082,188.234,116.077z"
					/>
			</g>
			<g>
				<path style="fill:#455A64;" d="M238.363,54.556c0.035-0.05,0.492,0.176,1.028,0.787c0.533,0.599,1.106,1.632,1.214,2.889
					c0.106,1.258-0.285,2.373-0.708,3.053c-0.425,0.693-0.837,0.993-0.88,0.949c-0.061-0.054,0.241-0.434,0.555-1.122
					c0.316-0.68,0.61-1.705,0.515-2.837c-0.097-1.132-0.561-2.092-0.986-2.709C238.673,54.943,238.311,54.619,238.363,54.556z"/>
			</g>
			<g>
				<path style="fill:#455A64;" d="M258.333,80.495c-0.04,0.005-0.116-0.436-0.269-1.228c-0.15-0.793-0.369-1.939-0.671-3.349
					c-0.303-1.409-0.685-3.084-1.181-4.921c-0.255-0.916-0.534-1.874-0.879-2.842c-0.338-0.977-0.785-1.908-1.445-2.774
					c-1.278-1.74-2.97-3.034-4.704-3.713c-1.737-0.692-3.479-0.737-4.864-0.47c-1.397,0.256-2.436,0.806-3.096,1.245
					c-0.662,0.446-0.978,0.766-1.012,0.732c-0.013-0.013,0.055-0.102,0.199-0.262c0.14-0.163,0.372-0.381,0.694-0.634
					c0.641-0.502,1.693-1.127,3.141-1.442c1.431-0.327,3.271-0.321,5.11,0.383c1.835,0.689,3.617,2.036,4.951,3.852
					c0.683,0.89,1.174,1.921,1.506,2.911c0.347,0.992,0.618,1.963,0.863,2.891c0.474,1.858,0.82,3.548,1.078,4.973
					c0.257,1.425,0.421,2.586,0.51,3.391C258.356,80.041,258.364,80.491,258.333,80.495z"/>
			</g>
			<g>
				<path style="fill:#455A64;" d="M239.404,62.629c-0.013,0.075-1.268-0.152-3.202-0.774c-0.969-0.292-2.119-0.66-3.421-0.837
					c-1.297-0.188-2.758-0.078-4.168,0.461c-1.408,0.534-2.592,1.415-3.426,2.413c-0.842,0.998-1.347,2.093-1.629,3.043
					c-0.563,1.923-0.322,3.207-0.426,3.207c-0.029,0.004-0.117-0.303-0.161-0.878c-0.041-0.572-0.018-1.419,0.232-2.426
					c0.248-1.003,0.741-2.173,1.614-3.25c0.865-1.078,2.117-2.028,3.611-2.595c1.492-0.573,3.067-0.674,4.42-0.449
					c1.358,0.212,2.512,0.626,3.469,0.962C238.221,62.216,239.415,62.562,239.404,62.629z"/>
			</g>
		</g>
	</g>
</g>
<g id="Plants">
	<g>
		<path style="fill:#263238;" d="M440.723,401.705c0.885-3.067,2.781-6.033,5.713-7.296c3.05-1.314,6.582-0.566,9.703,0.568
			c3.121,1.134,6.186,2.651,9.501,2.856c3.315,0.205,7.056-1.368,8.048-4.537c0.933-2.979-0.863-6.156-3.113-8.321
			c-4.726-4.549-11.827-6.478-18.205-4.947c-6.378,1.531-11.829,6.474-13.975,12.672"/>
		<path style="fill:#455A64;" d="M414.463,415.02c-4.863-4.62-4.62-12.662-2.194-18.915c2.426-6.253,7.72-11.055,13.634-14.22
			c11.464-6.135,25.794-6.599,37.63-1.22c-5.816,0.193-11.439,3.494-14.441,8.48c-2.665,4.426-3.257,9.797-5.459,14.471
			c-2.453,5.207-6.954,9.414-12.315,11.51C425.958,417.221,419.796,417.182,414.463,415.02"/>
		<path style="fill:#455A64;" d="M412.125,387.265c-5.384-6.355-6.101-16.557-5.308-24.849c0.793-8.291,2.715-16.636,1.407-24.862
			c-0.775-4.873-2.665-9.526-3.304-14.419c-0.639-4.893,0.267-10.426,4.058-13.585c4.358-3.63,11.219-2.774,15.752,0.635
			c4.533,3.409,7.16,8.763,9.079,14.1c4.217,11.725,5.765,24.727,2.301,36.696c-3.464,11.969-11.592,22.671-23.517,26.284"/>
		<g>
			<path style="fill:#263238;" d="M409.541,439.409c-0.018,0-0.027-0.253-0.028-0.733c0.004-0.48-0.005-1.189,0.033-2.1
				c0.064-1.823,0.236-4.461,0.641-7.7c0.407-3.238,1.045-7.078,2.061-11.276c1.001-4.209,2.717-8.695,5.145-13.061
				c2.435-4.367,5.407-8.137,8.413-11.242c3.014-3.108,6.098-5.524,8.822-7.326c1.346-0.929,2.649-1.633,3.77-2.286
				c1.15-0.601,2.154-1.094,2.976-1.489c0.805-0.335,1.45-0.604,1.94-0.808c0.446-0.179,0.682-0.265,0.689-0.249
				c0.007,0.017-0.217,0.135-0.648,0.345c-0.479,0.226-1.109,0.524-1.895,0.895c-0.806,0.421-1.791,0.938-2.921,1.56
				c-1.101,0.673-2.382,1.395-3.706,2.337c-2.679,1.828-5.713,4.255-8.682,7.354c-2.961,3.097-5.892,6.839-8.304,11.164
				c-4.946,8.652-6.305,17.751-7.295,24.131c-0.45,3.221-0.677,5.846-0.803,7.662c-0.054,0.868-0.097,1.563-0.13,2.093
				C409.585,439.158,409.559,439.409,409.541,439.409z"/>
		</g>
		<g>
			<path style="fill:#263238;" d="M363.103,362.193c-9.961,6.011-9.93,11.481-8.267,16.645c1.663,5.163,7.777,8.751,12.846,6.817
				c2.865-1.093,4.941-3.583,6.714-6.086c1.773-2.502,3.438-5.181,5.923-6.978c2.484-1.797,6.086-2.485,8.582-0.703"/>
			<path style="fill:#455A64;" d="M355.645,368.783c2.604-3.599,9.039-4.641,13.102-2.845s7.04,5.358,9.703,8.912
				c2.664,3.555,5.257,7.309,8.947,9.782c3.69,2.473,8.845,3.369,12.522,0.878c2.415-1.637,3.816-4.481,4.254-7.366
				c0.438-2.885,0.016-5.83-0.585-8.685c-0.879-4.177-2.314-8.541-5.657-11.195c-3.726-2.958-8.896-3.098-13.651-2.943
				c-5.456,0.178-10.994,0.588-16.115,2.479C363.044,359.691,357.819,363.776,355.645,368.783"/>
			<g>
				<path style="fill:#263238;" d="M401.262,431.431c-0.018,0-0.041-0.296-0.068-0.861c-0.023-0.611-0.054-1.435-0.093-2.472
					c-0.066-2.197-0.159-5.291-0.273-9.092c-0.124-3.838-0.283-8.407-0.562-13.474c-0.286-5.065-0.663-10.637-1.431-16.433
					c-0.391-2.894-0.848-5.724-1.648-8.342c-0.806-2.62-1.88-5.063-3.048-7.299c-2.334-4.488-5.248-8.063-8.044-10.659
					c-2.822-2.584-5.522-4.164-7.444-5.089c-0.958-0.48-1.734-0.779-2.262-0.98c-0.524-0.209-0.798-0.328-0.792-0.345
					c0.005-0.017,0.29,0.068,0.828,0.246c0.541,0.17,1.333,0.44,2.312,0.895c1.962,0.875,4.721,2.423,7.607,5.001
					c2.859,2.589,5.837,6.183,8.22,10.707c1.193,2.256,2.285,4.713,3.111,7.372c0.823,2.671,1.284,5.514,1.677,8.423
					c0.772,5.824,1.134,11.404,1.394,16.478c0.253,5.075,0.374,9.649,0.451,13.49c0.075,3.841,0.101,6.95,0.108,9.098
					c-0.002,1.038-0.004,1.862-0.005,2.474C401.292,431.134,401.28,431.431,401.262,431.431z"/>
			</g>
		</g>
		<g>
			<path style="fill:#263238;" d="M404.846,435.932c0,0-0.567-1.476-1.105-4.276c-0.523-2.795-0.918-6.94-0.468-12.023
				c0.422-5.082,1.72-11.045,3.79-17.445c2.043-6.411,4.817-13.265,7.187-20.63c1.176-3.685,2.175-7.33,2.86-10.91
				c0.694-3.578,1.134-7.071,1.414-10.41c0.56-6.681,0.484-12.735,0.325-17.805c-0.168-5.073-0.434-9.175-0.598-12.01
				c-0.079-1.389-0.141-2.481-0.185-3.266c-0.015-0.349-0.027-0.629-0.036-0.85c-0.005-0.192-0.004-0.29,0.005-0.291
				c0.009-0.001,0.025,0.097,0.048,0.287c0.023,0.22,0.052,0.499,0.088,0.846c0.068,0.783,0.163,1.873,0.283,3.259
				c0.226,2.832,0.548,6.931,0.764,12.01c0.206,5.076,0.321,11.145-0.215,17.858c-0.268,3.354-0.7,6.867-1.392,10.468
				c-0.683,3.603-1.685,7.273-2.865,10.971c-2.379,7.392-5.166,14.237-7.227,20.619c-2.087,6.369-3.413,12.287-3.879,17.331
				c-0.493,5.045-0.158,9.163,0.301,11.955c0.242,1.395,0.464,2.475,0.658,3.196c0.081,0.34,0.146,0.612,0.198,0.827
				C404.838,435.832,404.855,435.93,404.846,435.932z"/>
		</g>
		<polygon style="fill:#263238;" points="429.542,440.434 382.77,440.434 381.702,431.431 429.542,431.431 		"/>
		<polygon style="fill:#263238;" points="387.789,439.409 393.637,466.416 419.052,466.416 424.523,439.409 		"/>
		<g>
			<path style="fill:#455A64;" d="M429.542,440.434c0,0.144-10.284,0.232-22.966,0.196c-12.686-0.036-22.967-0.181-22.967-0.325
				c0-0.144,10.282-0.232,22.968-0.196C419.259,440.145,429.542,440.29,429.542,440.434z"/>
		</g>
		<g>
			<path style="fill:#455A64;" d="M421.515,453.764c-0.066,0.098-1.392-1.255-4.129-2.336c-1.358-0.536-3.074-0.953-5-0.996
				c-1.93-0.061-4.023,0.401-6.145,1.131c-2.13,0.72-4.122,1.559-6.066,2.02c-1.954,0.419-3.77,0.385-5.25,0.151
				c-1.484-0.236-2.634-0.68-3.37-1.079c-0.363-0.211-0.64-0.38-0.81-0.523c-0.174-0.134-0.26-0.211-0.249-0.226
				c0.039-0.093,1.543,1.111,4.481,1.464c1.446,0.183,3.216,0.176,5.092-0.254c1.867-0.468,3.857-1.317,6.007-2.046
				c2.144-0.739,4.325-1.208,6.324-1.117c1.993,0.07,3.752,0.54,5.126,1.134c1.387,0.579,2.391,1.28,3.047,1.791
				c0.329,0.258,0.569,0.475,0.723,0.633C421.451,453.664,421.526,453.751,421.515,453.764z"/>
		</g>
		<g>
			<path style="fill:#FFFFFF;" d="M421.16,455.568c-0.068,0.099-1.345-1.213-3.966-2.305c-1.304-0.536-2.959-0.951-4.82-0.985
				c-1.864-0.049-3.892,0.374-5.945,1.073c-2.059,0.688-3.993,1.487-5.844,1.982c-1.848,0.503-3.594,0.677-5.046,0.558
				c-1.456-0.105-2.59-0.52-3.305-0.896c-0.353-0.202-0.621-0.366-0.784-0.505c-0.169-0.13-0.251-0.205-0.24-0.22
				c0.028-0.041,0.392,0.216,1.113,0.542c0.723,0.311,1.83,0.656,3.24,0.711c1.406,0.069,3.096-0.137,4.894-0.653
				c1.805-0.51,3.722-1.317,5.808-2.015c2.076-0.708,4.189-1.137,6.12-1.058c1.928,0.062,3.631,0.531,4.952,1.126
				c1.331,0.584,2.291,1.277,2.918,1.779c0.315,0.252,0.544,0.465,0.693,0.617C421.099,455.47,421.171,455.554,421.16,455.568z"/>
		</g>
		<g>
			<path style="fill:#FFFFFF;" d="M421.978,451.974c-0.064,0.092-1.442-1.278-4.24-2.468c-1.389-0.587-3.14-1.108-5.125-1.224
				c-1.986-0.138-4.151,0.371-6.34,1.121c-2.203,0.738-4.248,1.634-6.282,2.048c-2.033,0.367-3.898,0.25-5.421,0.001
				c-1.525-0.268-2.714-0.707-3.477-1.113c-0.378-0.213-0.666-0.384-0.842-0.531c-0.181-0.138-0.27-0.216-0.259-0.231
				c0.028-0.04,0.417,0.232,1.189,0.579c0.774,0.341,1.949,0.716,3.447,0.932c1.493,0.198,3.322,0.27,5.273-0.109
				c1.934-0.417,3.988-1.324,6.206-2.07c2.21-0.758,4.466-1.277,6.537-1.107c2.058,0.148,3.843,0.723,5.245,1.366
				c1.412,0.635,2.442,1.361,3.118,1.891c0.338,0.268,0.587,0.49,0.746,0.653C421.911,451.871,421.99,451.96,421.978,451.974z"/>
		</g>
	</g>
	<g>
		<g>
			<g>
				<g>
					<path style="fill:#E8505B;" d="M95.033,423.236c-2.016,2.88-5.935,1.926-7.752,0.169c-1.817-1.758-2.585-4.305-3.284-6.735
						c-1.597-5.55-3.207-11.373-2.02-17.025c0.355-1.69,0.987-3.375,2.174-4.629c1.187-1.254,3.013-2,4.683-1.559
						c1.976,0.522,3.204,2.457,4.091,4.298c2.609,5.411,3.99,11.41,4.01,17.417C96.946,417.977,96.615,420.919,95.033,423.236"/>
				</g>
			</g>
		</g>
		<g style="opacity:0.2;">
			<g>
				<g>
					<path d="M95.033,423.236c-2.016,2.88-5.935,1.926-7.752,0.169c-1.817-1.758-2.585-4.305-3.284-6.735
						c-1.597-5.55-3.207-11.373-2.02-17.025c0.355-1.69,0.987-3.375,2.174-4.629c1.187-1.254,3.013-2,4.683-1.559
						c1.976,0.522,3.204,2.457,4.091,4.298c2.609,5.411,3.99,11.41,4.01,17.417C96.946,417.977,96.615,420.919,95.033,423.236"/>
				</g>
			</g>
		</g>
		<g>
			<g>
				<g>
					<path style="fill:#E8505B;" d="M87.478,437.818c-3.297-1.701-7.18-1.922-10.84-1.317c-1.966,0.325-4.017,0.914-5.355,2.391
						c-1.338,1.477-1.592,4.077-0.055,5.346c0.915,0.755,2.19,0.87,3.376,0.857c2.866-0.034,6.045-0.538,8.335,1.186
						c1.306,0.984,2.176,2.619,3.737,3.103c1.528,0.473,3.252-0.428,4.062-1.807c0.81-1.379,0.837-3.103,0.459-4.656
						C91.197,442.919,90.8,439.532,87.478,437.818z"/>
				</g>
			</g>
		</g>
		<g>
			<g>
				<g>
					<path style="fill:#E8505B;" d="M100.569,427.367c-2.189-2.598-2.604-6.387-1.63-9.642c0.974-3.255,3.175-6.023,5.711-8.284
						c2.974-2.65,6.469-4.713,10.227-6.034c1.479-0.52,3.039-0.93,4.599-0.782c1.56,0.149,3.132,0.947,3.86,2.335
						c1.076,2.053,0.044,4.542-1.072,6.574c-1.966,3.579-4.214,7.002-6.717,10.229c-2.014,2.596-4.319,5.156-7.388,6.329
						c-3.068,1.173-6.256,1.035-7.882-1.093"/>
				</g>
			</g>
		</g>
		<g>
			<g>
				<g>
					<g>
						<path style="fill:#263238;" d="M95.169,466.674c-0.038,0.002-0.099-0.464-0.182-1.309c-0.093-0.952-0.209-2.148-0.348-3.571
							c-0.166-1.503-0.386-3.291-0.803-5.238c-0.416-1.942-1.067-4.047-1.904-6.182c-0.866-2.122-1.923-4.051-3.157-5.594
							c-1.226-1.55-2.651-2.671-3.991-3.318c-1.335-0.66-2.533-0.928-3.361-1.047c-0.835-0.085-1.302-0.151-1.303-0.189
							c0-0.037,0.468-0.043,1.326-0.02c0.85,0.057,2.097,0.272,3.505,0.912c1.412,0.626,2.924,1.765,4.21,3.347
							c1.296,1.575,2.391,3.546,3.272,5.706c0.851,2.172,1.493,4.299,1.89,6.283c0.396,1.981,0.578,3.789,0.696,5.304
							c0.113,1.516,0.156,2.744,0.177,3.593C95.216,466.202,95.206,466.672,95.169,466.674z"/>
					</g>
				</g>
			</g>
		</g>
		<g>
			<g>
				<g>
					<g>
						<path style="fill:#263238;" d="M94.923,463.926c-0.019-0.001-0.03-0.21-0.035-0.607c0.001-0.456,0.003-1.031,0.005-1.736
							c0.004-1.507,0.004-3.687-0.077-6.38c-0.133-5.385-0.597-12.819-1.493-20.99c-0.902-8.173-2.098-15.526-3.188-20.8
							c-0.258-1.322-0.517-2.512-0.761-3.554c-0.233-1.044-0.432-1.944-0.624-2.673c-0.165-0.686-0.299-1.244-0.406-1.688
							c-0.087-0.388-0.124-0.594-0.106-0.599c0.018-0.005,0.09,0.191,0.211,0.569c0.132,0.437,0.299,0.987,0.504,1.664
							c0.224,0.722,0.453,1.616,0.714,2.656c0.273,1.037,0.559,2.225,0.841,3.545c1.189,5.268,2.447,12.63,3.351,20.82
							c0.898,8.188,1.302,15.643,1.338,21.042c0.032,2.699-0.025,4.884-0.094,6.392c-0.043,0.705-0.078,1.279-0.106,1.735
							C94.966,463.72,94.942,463.927,94.923,463.926z"/>
					</g>
				</g>
			</g>
		</g>
		<g>
			<g>
				<g>
					<g>
						<path style="fill:#263238;" d="M94.887,449.547c-0.037-0.001-0.031-0.646,0.013-1.814c0.067-1.165,0.227-2.85,0.555-4.914
							c0.348-2.059,0.834-4.503,1.598-7.159c0.726-2.666,1.725-5.544,2.994-8.471c2.483-5.891,5.857-10.707,8.792-13.69
							c0.688-0.792,1.455-1.363,2.068-1.923c0.317-0.268,0.598-0.536,0.884-0.748c0.287-0.198,0.554-0.382,0.802-0.553
							c0.966-0.661,1.507-1.009,1.527-0.978c0.087,0.118-2.164,1.442-5.005,4.465c-2.83,3.016-6.109,7.799-8.572,13.641
							c-1.258,2.902-2.263,5.753-3.011,8.393c-0.785,2.63-1.307,5.05-1.701,7.088c-0.374,2.043-0.591,3.71-0.722,4.865
							C95.002,448.907,94.924,449.548,94.887,449.547z"/>
					</g>
				</g>
			</g>
		</g>
	</g>
</g>
</svg>
