<?xml version="1.0" encoding="utf-8"?>
<!-- Generator: Adobe Illustrator 27.5.0, SVG Export Plug-In . SVG Version: 6.00 Build 0)  -->
<svg version="1.1" xmlns="http://www.w3.org/2000/svg" xmlns:xlink="http://www.w3.org/1999/xlink" x="0px" y="0px"
	 viewBox="0 0 750 500" style="enable-background:new 0 0 750 500;" xml:space="preserve">
<g id="Background_Simple">
	<g>
		<path style="fill:#92E3A9;" d="M616.502,77.855c-47.899-28.207-102.22-39.891-156.583-47.225
			c-52.504-7.083-106.383-3.383-157.534,10.331c-22.389,6.003-44.265,13.928-65.279,23.715
			c-19.689,9.17-38.703,25.586-60.154,29.841c7.184-10.03,14.367-20.06,21.551-30.09c4.143-5.784,8.22-14.079,3.427-19.336
			c-1.954-2.143-4.925-3.036-7.795-3.459c-11.089-1.633-22.222,2.389-32.281,7.333c-46.354,22.779-84.201,65.261-112.981,107.289
			C1.381,225.605,6.658,339.433,60.933,395.216c54.275,55.783,170.365,82.921,218.61,76.89c36.623-4.578-2.837-26.344-10.942-39.541
			c-0.707-1.15-1.37-2.418-1.312-3.767c0.099-2.308,2.207-3.967,4.204-5.128c16.734-9.724,38.121-6.865,56.642-8.324
			c29.459-2.32,59.155-3.277,88.695-2.181c4.012,0.149,50.314,1.255,46.645,10.701c-2.917,7.501-14.424,13.563-20.466,18.154
			c-4.64,3.527-34.679,23.958-26.01,30.935c2.396,1.928,5.642,2.325,8.703,2.622c50.723,4.918,102.923,3.404,152.869-7.168
			c43.495-9.208,91.506-24.19,117.458-63.096c26.466-39.676,28.084-92.67,17.988-137.893c-2.404-10.767-5.563-21.376-9.559-31.661
			c-3.709-9.546-9.604-17.591-14.525-26.508c-1.983-3.594-3.353-7.925-1.924-11.773c6.304-16.979,24.607,16.881,29.599-1.302
			c2.424-8.83-2.248-21.929-5.214-30.265c-5.344-15.024-14.39-28.538-25.221-40.156C666.466,103.542,641.922,92.825,616.502,77.855z
			"/>
		<path style="opacity:0.7;fill:#FFFFFF;" d="M616.502,77.855c-47.899-28.207-102.22-39.891-156.583-47.225
			c-52.504-7.083-106.383-3.383-157.534,10.331c-22.389,6.003-44.265,13.928-65.279,23.715
			c-19.689,9.17-38.703,25.586-60.154,29.841c7.184-10.03,14.367-20.06,21.551-30.09c4.143-5.784,8.22-14.079,3.427-19.336
			c-1.954-2.143-4.925-3.036-7.795-3.459c-11.089-1.633-22.222,2.389-32.281,7.333c-46.354,22.779-84.201,65.261-112.981,107.289
			C1.381,225.605,6.658,339.433,60.933,395.216c54.275,55.783,170.365,82.921,218.61,76.89c36.623-4.578-2.837-26.344-10.942-39.541
			c-0.707-1.15-1.37-2.418-1.312-3.767c0.099-2.308,2.207-3.967,4.204-5.128c16.734-9.724,38.121-6.865,56.642-8.324
			c29.459-2.32,59.155-3.277,88.695-2.181c4.012,0.149,50.314,1.255,46.645,10.701c-2.917,7.501-14.424,13.563-20.466,18.154
			c-4.64,3.527-34.679,23.958-26.01,30.935c2.396,1.928,5.642,2.325,8.703,2.622c50.723,4.918,102.923,3.404,152.869-7.168
			c43.495-9.208,91.506-24.19,117.458-63.096c26.466-39.676,28.084-92.67,17.988-137.893c-2.404-10.767-5.563-21.376-9.559-31.661
			c-3.709-9.546-9.604-17.591-14.525-26.508c-1.983-3.594-3.353-7.925-1.924-11.773c6.304-16.979,24.607,16.881,29.599-1.302
			c2.424-8.83-2.248-21.929-5.214-30.265c-5.344-15.024-14.39-28.538-25.221-40.156C666.466,103.542,641.922,92.825,616.502,77.855z
			"/>
	</g>
</g>
<g id="Character_3">
	<g>
		<ellipse style="opacity:0.13;" cx="593.263" cy="453.862" rx="77.76" ry="18.662"/>
		<g>
			<g>
				<path style="fill:#FFFFFF;stroke:#263238;stroke-linecap:round;stroke-linejoin:round;stroke-miterlimit:10;" d="
					M626.95,221.805c0,0-4.977-8.709-4.977-9.798c0-1.089,0.466-4.665,0.311-5.598c-0.156-0.933-0.311-4.043,0.778-4.355
					c1.089-0.311,2.488,1.4,2.644,2.177c0.156,0.778,0.311,4.199,0.311,4.199l1.711-0.778c0,0,4.043-9.486,4.199-10.264
					c0.155-0.778,1.555-2.177,2.022-1.4c0.466,0.778-2.333,10.42-2.333,10.42s4.51-8.864,5.288-9.486
					c0.777-0.622,1.711-0.933,1.866,0.155c0.156,1.089-4.354,10.731-4.354,10.731s6.376-6.221,6.843-6.843
					c0.466-0.622,2.333,0.156,1.711,1.555c-0.622,1.4-5.288,7.154-5.288,7.154s6.843-3.11,7.154-2.644
					c0.311,0.467,0.622,0.467-0.466,1.555c-1.089,1.089-6.532,4.665-6.532,4.665s-3.266,6.843-3.577,7.62
					c-0.311,0.778,2.675,21.774,1.897,32.193c-0.778,10.42-0.467,12.752-0.467,12.752s-2.177,4.199-5.443,5.91
					c-3.266,1.711-5.91,2.799-5.91,2.799l-5.754-11.508l2.177-3.732c0,0,2.022-9.953,2.799-16.64S626.95,221.805,626.95,221.805z"/>
				<path style="fill:none;stroke:#263238;stroke-linecap:round;stroke-linejoin:round;stroke-miterlimit:10;" d="M626.017,208.431
					l1.4,2.177c0,0,2.799,1.711,2.955,2.955c0.156,1.244,0.156,2.955,0.156,2.955"/>
			</g>
			<g>
				<path style="fill:#FFFFFF;stroke:#263238;stroke-linecap:round;stroke-linejoin:round;stroke-miterlimit:10;" d="M541.63,321.3
					c0,0-6.609,11.076-9.646,16.97c-3.037,5.895-8.932,10.182-8.932,10.182s-5.538-0.357-6.431-0.536
					c-0.893-0.179-3.215,4.466-3.215,5.716c0,1.251,1.25,2.501,1.25,2.501s-1.25,3.215-0.536,3.573
					c0.715,0.357,6.609,3.573,7.681,3.573c1.072,0,4.466-2.858,5.18-3.573c0.714-0.715,7.145-9.289,7.145-9.289
					s7.571-7.538,11.075-13.398c3.504-5.86,5.002-8.574,5.002-8.574L541.63,321.3z"/>
				<path style="fill:none;stroke:#263238;stroke-linecap:round;stroke-linejoin:round;stroke-miterlimit:10;" d="M514.656,356.134
					c0,0,1.786,0.357,2.322,1.072c0.536,0.715,2.68,1.25,3.215-0.357c0.536-1.608-1.786-3.93-1.786-3.93"/>
				<path style="fill:none;stroke:#263238;stroke-linecap:round;stroke-linejoin:round;stroke-miterlimit:10;" d="M524.659,353.276
					c0,0-2.679,4.466-4.466,3.573l5.002,1.965"/>
			</g>
			<g>
				<path style="fill:#FFFFFF;stroke:#263238;stroke-linecap:round;stroke-linejoin:round;stroke-miterlimit:10;" d="
					M578.429,403.115c0,0-3.573,5.18-6.431,10.004c-2.858,4.823-13.755,15.363-14.648,16.077c-0.893,0.715-9.11,3.93-8.574,6.431
					c0.536,2.501,2.68,6.609,3.215,8.574c0.536,1.965,2.144,6.967,6.609,8.753c4.466,1.786,9.646,0.715,10.182-0.715
					c0.536-1.429-3.573-6.967-4.287-8.753c-0.715-1.786-2.144-8.039-2.144-8.039s18.757-12.147,21.615-14.827
					c2.858-2.68,10.718-7.86,11.433-11.433c0.715-3.573-1.25-10.182-2.858-10.718C590.933,397.935,581.644,399.364,578.429,403.115z
					"/>
				<path style="fill:#92E3A9;stroke:#263238;stroke-linecap:round;stroke-linejoin:round;stroke-miterlimit:10;" d="
					M556.037,429.912c-2.55,1.272-7.689,3.719-7.262,5.715c0.536,2.501,2.68,6.609,3.215,8.574c0.536,1.965,2.144,6.967,6.609,8.753
					c4.466,1.786,9.646,0.715,10.182-0.715c0.536-1.429-3.573-6.967-4.287-8.753c-0.715-1.786-2.144-8.039-2.144-8.039
					s-2.501-0.536-3.573-0.536C557.868,434.912,556.445,432.332,556.037,429.912z"/>
			</g>
			<g>
				<path style="fill:#FFFFFF;stroke:#263238;stroke-linecap:round;stroke-linejoin:round;stroke-miterlimit:10;" d="
					M581.757,401.761c0,0-2.31,9.432,1.155,18.287c3.465,8.855,13.859,27.911,14.052,28.489c0.193,0.578,2.31,7.507,5.775,9.625
					c3.465,2.117,7.507-0.385,8.855-1.732c1.347-1.347,4.62-4.812,5.39-5.197c0.77-0.385,6.93-6.545,8.085-10.78
					c1.155-4.235,2.502-12.704-1.54-11.164c-4.042,1.54-8.662,5.582-10.779,7.315c-2.117,1.732-7.7,1.732-7.7,1.732
					s-4.235-14.822-5.005-20.982s-0.77-17.709-2.887-22.521C595.039,390.019,583.49,397.526,581.757,401.761z"/>
				<path style="fill:#92E3A9;stroke:#263238;stroke-linecap:round;stroke-linejoin:round;stroke-miterlimit:10;" d="
					M603.316,441.222c0.193,1.54,0.385,1.732,0.193,2.887c-0.155,0.929-3.794,3.101-6.515,4.517
					c0.303,0.935,2.389,7.483,5.745,9.534c3.465,2.117,7.507-0.385,8.855-1.732c1.347-1.347,4.62-4.812,5.39-5.197
					c0.77-0.385,6.93-6.545,8.085-10.78c1.155-4.235,2.502-12.704-1.54-11.164c-4.042,1.54-8.662,5.582-10.779,7.315
					c-2.117,1.732-7.7,1.732-7.7,1.732S603.124,439.682,603.316,441.222z"/>
				<path style="fill:#FFFFFF;stroke:#263238;stroke-linecap:round;stroke-linejoin:round;stroke-miterlimit:10;" d="
					M625.805,430.131l-0.545,0.311c0,0-4.427,5.582-7.7,11.934c-3.272,6.352-6.93,11.549-9.624,13.667
					c-1.856,1.459-3.621,2.095-3.784,2.728c3.085,0.853,6.274-1.175,7.442-2.342c1.347-1.347,4.62-4.812,5.39-5.197
					c0.77-0.385,6.93-6.545,8.085-10.78C625.889,437.44,626.798,432.302,625.805,430.131z"/>
			</g>
			<g>
				<path style="fill:#263238;stroke:#263238;stroke-linecap:round;stroke-linejoin:round;stroke-miterlimit:10;" d="
					M557.933,354.71c0,0,1.025,9.998,4.419,18.573c3.394,8.575,10.182,26.795,10.361,28.582c0.179,1.786,1.072,5.895,1.072,5.895
					s8.396-4.109,14.648-5.538c6.252-1.429,10.182-1.786,10.182-1.786s3.037,1.072,3.751,1.429
					c0.715,0.357,2.501-5.895,3.037-10.003c0.536-4.109,5.895-25.545,5.359-33.405c-0.536-7.86-3.037-16.792-3.037-16.792
					s-6.967-3.394-9.289-3.751c-2.322-0.357-40.908,12.683-40.908,12.683s-0.404,1.602,0,2.858"/>
				<path style="fill:none;stroke:#8F8F8F;stroke-linecap:round;stroke-linejoin:round;stroke-miterlimit:10;" d="M588.968,360.064
					c0,0,3.93,8.039,5.716,14.112c1.786,6.074,3.751,24.294,3.751,24.294"/>
			</g>
			<g>
				<path style="fill:#92E3A9;stroke:#263238;stroke-linecap:round;stroke-linejoin:round;stroke-miterlimit:10;" d="
					M562.546,282.602c0,0-12.382,5.827-13.111,8.012c-0.728,2.185-10.197,30.591-10.197,30.591s8.74,9.226,9.469,9.954
					c0.728,0.728,5.341-2.428,5.341-2.428s-2.428,13.839-1.942,15.538s5.827,10.44,5.827,10.44s37.632-14.082,40.303-14.082
					s9.469,3.156,10.197,3.156c0.728,0,3.642-3.885,3.885-5.584s-4.127-28.649-4.127-28.649l-0.971-13.353
					c0,0,20.88-12.382,21.365-13.839c0.486-1.457-9.469-22.337-9.469-22.337s-10.683,9.712-12.382,10.44
					c-1.7,0.728-17.966,3.399-18.938,3.642C586.824,274.347,566.43,277.989,562.546,282.602z"/>
				<polyline style="fill:none;stroke:#263238;stroke-linecap:round;stroke-linejoin:round;stroke-miterlimit:10;" points="
					554.048,328.732 558.175,307.609 555.99,302.268 				"/>
				
					<line style="fill:none;stroke:#263238;stroke-linecap:round;stroke-linejoin:round;stroke-miterlimit:10;" x1="607.219" y1="296.198" x2="606.005" y2="280.903"/>
			</g>
			<path style="fill:#FFFFFF;stroke:#263238;stroke-linecap:round;stroke-linejoin:round;stroke-miterlimit:10;" d="
				M571.286,274.105l-4.613,1.699l-4.127,6.798l11.168,11.897l5.584-9.954l3.069-0.59l11.256,7.388c0,0-0.243-11.654-1.214-14.082
				c-0.971-2.428-2.358-3.553-2.358-3.553L571.286,274.105z"/>
			<g>
				<path style="fill:#FFFFFF;stroke:#263238;stroke-linecap:round;stroke-linejoin:round;stroke-miterlimit:10;" d="
					M595.387,245.105c0,0,0.854,4.483,1.281,5.123c0.427,0.64,2.988,6.404,2.561,11.1c-0.427,4.696-0.64,7.898-1.494,8.965
					c-0.854,1.067-7.684,3.415-7.684,3.415s-4.91,8.325-7.684,10.246c-2.775,1.921-5.336-0.854-7.471-2.348
					c-2.134-1.494-4.269-4.696-4.269-4.696l-1.281-4.91c0,0-5.55-3.842-8.111-7.471c-2.562-3.629,1.921-10.459,2.775-12.594
					c0.854-2.135,1.067-7.471,5.763-13.448c4.696-5.977,13.448-4.696,16.65-3.629C589.624,235.926,595.387,240.622,595.387,245.105z
					"/>
				<path style="fill:#263238;stroke:#263238;stroke-linecap:round;stroke-linejoin:round;stroke-miterlimit:10;" d="
					M566.998,235.286c0,0-11.1,5.763-11.74,14.088c-0.64,8.325,1.281,15.369,2.348,16.65c1.067,1.281,6.19,4.909,7.898,5.55
					c1.708,0.64,3.842,0.427,3.842,0.427l-1.067-2.561c0,0-3.629-3.202-4.909-6.617c-1.281-3.415,1.921-5.977,3.629-5.763
					c1.708,0.214,3.629,1.921,4.056,2.561c0.427,0.64,0.64-2.988,0.64-2.988l1.921,1.494c0,0,0.64-2.134,1.708-6.404
					c1.067-4.269-1.708-12.594-1.708-12.594s4.91,1.281,11.1,0.854c6.19-0.427,8.965,1.708,8.965,1.708l1.708,3.415
					c0,0,2.135-1.494,2.562-3.842c0.427-2.348-1.494-7.684-2.562-8.111c-1.067-0.427,1.494,3.202,1.067,0.427
					c-0.427-2.775-11.313-5.763-17.29-5.123C573.188,229.096,569.773,231.657,566.998,235.286z"/>
				<polygon style="fill:#263238;stroke:#263238;stroke-linecap:round;stroke-linejoin:round;stroke-miterlimit:10;" points="
					590.051,273.708 584.308,274.966 585.989,279.552 				"/>
				<path style="fill:none;stroke:#263238;stroke-linecap:round;stroke-linejoin:round;stroke-miterlimit:10;" d="M589.964,246.835
					c0,0-0.306,3.21,0.153,3.669c0.459,0.459,4.587,1.376,4.128,2.293c-0.459,0.917-1.987,2.293-3.058,2.446"/>
				<path style="fill:none;stroke:#263238;stroke-linecap:round;stroke-linejoin:round;stroke-miterlimit:10;" d="M591.646,260.289
					c0,0-1.529-0.153-3.669-0.459c-2.14-0.306-3.975-1.376-3.975-1.376s0.459,3.822,2.446,4.739
					C588.435,264.111,591.646,260.289,591.646,260.289z"/>
				<path style="fill:#263238;" d="M583.362,249.436c0.253,0.973-0.041,1.891-0.656,2.051c-0.615,0.16-1.319-0.499-1.572-1.472
					c-0.253-0.973,0.041-1.891,0.656-2.051C582.405,247.804,583.109,248.463,583.362,249.436z"/>
				<path style="fill:#263238;" d="M594.442,247.616c0.253,0.973-0.041,1.891-0.656,2.051c-0.615,0.16-1.319-0.499-1.572-1.472
					c-0.253-0.973,0.041-1.891,0.656-2.051C593.485,245.984,594.189,246.643,594.442,247.616z"/>
				<path style="fill:none;stroke:#263238;stroke-linecap:round;stroke-linejoin:round;stroke-miterlimit:10;" d="M578.957,246.377
					c0,0,2.752-1.682,4.739-1.529"/>
				<path style="fill:none;stroke:#263238;stroke-linecap:round;stroke-linejoin:round;stroke-miterlimit:10;" d="M590.117,244.695
					c0,0,2.293-1.682,4.128,0"/>
				<path style="fill:none;stroke:#263238;stroke-linecap:round;stroke-linejoin:round;stroke-miterlimit:10;" d="M566.42,266.863
					c0,0,2.293,2.446,3.669,2.14c1.376-0.306,2.14-1.07,2.14-1.07l1.682,2.599"/>
			</g>
		</g>
	</g>
</g>
<g id="Balloons_2">
	<g>
		<g>
			<g>
				<path style="fill:#92E3A9;stroke:#263238;stroke-linecap:round;stroke-linejoin:round;stroke-miterlimit:10;" d="
					M349.999,115.018c1.4,12.205-6.565,32.679-15.326,33.684c-7.288,0.836-21.157-17.132-22.558-29.337
					c-1.401-12.205,5.945-23.072,16.406-24.272C338.983,93.892,348.599,102.813,349.999,115.018z"/>
				<polyline style="fill:#92E3A9;stroke:#263238;stroke-linecap:round;stroke-linejoin:round;stroke-miterlimit:10;" points="
					334.206,149.348 334.897,153.75 338.477,152.406 334.673,148.702 				"/>
				<path style="fill:#FFFFFF;" d="M343.057,102.38c2.614,3.102,3.008,7.07,0.88,8.862c-2.127,1.792-5.971,0.73-8.584-2.372
					c-2.613-3.103-3.008-7.07-0.88-8.862C336.6,98.216,340.443,99.278,343.057,102.38z"/>
				<path style="fill:#FFFFFF;" d="M332.299,98.922c-0.063,0.766-1.066,1.308-2.24,1.212c-1.174-0.096-2.075-0.795-2.012-1.561
					c0.063-0.766,1.065-1.308,2.24-1.212C331.46,97.457,332.361,98.156,332.299,98.922z"/>
			</g>
		</g>
		<g>
			<g>
				<path style="fill:#92E3A9;stroke:#263238;stroke-linecap:round;stroke-linejoin:round;stroke-miterlimit:10;" d="
					M321.389,87.671c1.764,12.158-5.587,32.86-14.314,34.126c-7.26,1.053-21.659-16.493-23.423-28.651s5.254-23.239,15.674-24.751
					C309.747,66.884,319.625,75.514,321.389,87.671z"/>
				<polyline style="fill:#92E3A9;stroke:#263238;stroke-linecap:round;stroke-linejoin:round;stroke-miterlimit:10;" points="
					306.627,122.458 307.45,126.837 310.988,125.386 307.075,121.798 				"/>
				<path style="fill:#FFFFFF;" d="M314.072,75.246c2.705,3.023,3.217,6.977,1.144,8.832c-2.073,1.855-5.946,0.908-8.651-2.115
					c-2.705-3.023-3.217-6.977-1.144-8.832C307.494,71.276,311.367,72.223,314.072,75.246z"/>
				<path style="fill:#FFFFFF;" d="M303.216,72.11c-0.04,0.767-1.026,1.34-2.203,1.279c-1.176-0.061-2.098-0.733-2.058-1.5
					c0.04-0.767,1.026-1.34,2.202-1.279C302.335,70.671,303.256,71.343,303.216,72.11z"/>
			</g>
		</g>
		<g>
			<g>
				<path style="fill:#92E3A9;stroke:#263238;stroke-linecap:round;stroke-linejoin:round;stroke-miterlimit:10;" d="
					M323.433,50.301c1.764,12.157-5.587,32.86-14.314,34.126c-7.26,1.053-21.659-16.493-23.423-28.651
					c-1.764-12.158,5.253-23.239,15.674-24.751C311.791,29.513,321.669,38.143,323.433,50.301z"/>
				<polyline style="fill:#92E3A9;stroke:#263238;stroke-linecap:round;stroke-linejoin:round;stroke-miterlimit:10;" points="
					308.671,85.087 309.493,89.466 313.032,88.016 309.119,84.427 				"/>
				<path style="fill:#FFFFFF;" d="M316.116,37.876c2.705,3.023,3.217,6.977,1.144,8.832c-2.073,1.855-5.946,0.908-8.651-2.115
					c-2.705-3.023-3.217-6.977-1.144-8.832C309.538,33.906,313.411,34.853,316.116,37.876z"/>
				<path style="fill:#FFFFFF;" d="M305.26,34.74c-0.04,0.767-1.026,1.34-2.203,1.278c-1.176-0.061-2.098-0.733-2.058-1.5
					c0.04-0.767,1.026-1.34,2.203-1.278C304.378,33.301,305.3,33.972,305.26,34.74z"/>
			</g>
		</g>
		<g>
			<polyline style="fill:none;stroke:#263238;stroke-linecap:round;stroke-linejoin:round;stroke-miterlimit:10;" points="
				317.466,130.489 362.836,268.618 337.696,104.355 			"/>
			<polyline style="fill:none;stroke:#263238;stroke-linecap:round;stroke-linejoin:round;stroke-miterlimit:10;" points="
				307.883,122.584 362.836,268.618 350.633,101.008 			"/>
			<polyline style="fill:none;stroke:#263238;stroke-linecap:round;stroke-linejoin:round;stroke-miterlimit:10;" points="
				272.458,135.297 362.836,268.618 383.836,103.923 			"/>
			<polyline style="fill:none;stroke:#263238;stroke-linecap:round;stroke-linejoin:round;stroke-miterlimit:10;" points="
				318.514,181.072 362.836,268.618 276.679,94.558 			"/>
			<polyline style="fill:none;stroke:#263238;stroke-linecap:round;stroke-linejoin:round;stroke-miterlimit:10;" points="
				370.837,142.524 362.836,268.618 281.731,177.911 			"/>
			<g>
				<path style="fill:none;stroke:#263238;stroke-linecap:round;stroke-linejoin:round;stroke-miterlimit:10;" d="M362.737,272.219
					c0,0-2.482,9.94-1.29,19.628c1.192,9.689,0.425,7.367-0.819,15.573c-1.244,8.207-1.35,17.051-1.15,26.71"/>
				<path style="fill:none;stroke:#263238;stroke-linecap:round;stroke-linejoin:round;stroke-miterlimit:10;" d="M363.346,270.312
					c0,0-2.837,9.813-1.093,17.709c1.743,7.896,1.562,7.231,1.309,15.468c-0.253,8.237-2.299,15.614-1.945,20.25"/>
				<path style="fill:none;stroke:#263238;stroke-linecap:round;stroke-linejoin:round;stroke-miterlimit:10;" d="M362.611,269.815
					c0,0-2.728,2.593-0.869,12.102c1.859,9.508-0.051,12.466-2.851,22.837c-2.8,10.371,2.971,21.809,3.093,23.22"/>
				<path style="fill:none;stroke:#263238;stroke-linecap:round;stroke-linejoin:round;stroke-miterlimit:10;" d="M362.332,268.06
					c0,0,1.009,4.857,1.804,11.316c0.795,6.459-1.171,11.225-0.946,14.65c0.226,3.425,0.967,0.834,1.308,11.301
					c0.341,10.467,0.298,11.873-0.125,14.877"/>
				<path style="fill:none;stroke:#263238;stroke-linecap:round;stroke-linejoin:round;stroke-miterlimit:10;" d="M365.382,325.061
					c-0.623-6.655,0.413-13.46,0.066-23.726c-0.347-10.266-0.759-9.215-1.798-18.497c-1.039-9.282-2.419-10.802-2.419-10.802
					s5.246,10.936,5.941,26.04c0.695,15.103,0.895,15.003,1.2,21.247"/>
				<path style="fill:none;stroke:#263238;stroke-linecap:round;stroke-linejoin:round;stroke-miterlimit:10;" d="M364.046,271.531
					c0,0,0.396,8.659-0.022,16.891c-0.418,8.232-0.992,32.345-1.084,35.358"/>
			</g>
		</g>
		<g>
			<g>
				<path style="fill:#263238;stroke:#263238;stroke-linecap:round;stroke-linejoin:round;stroke-miterlimit:10;" d="
					M323.448,144.702c4.586,11.397,2.332,33.25-5.849,36.542c-6.806,2.738-24.941-10.911-29.527-22.308
					c-4.586-11.397-0.384-23.822,9.385-27.753S318.862,133.306,323.448,144.702z"/>
				<polyline style="fill:#263238;stroke:#263238;stroke-linecap:round;stroke-linejoin:round;stroke-miterlimit:10;" points="
					317.319,181.992 319.153,186.052 322.249,183.807 317.599,181.244 				"/>
				<path style="fill:#FFFFFF;" d="M313.404,134.357c3.342,2.299,4.774,6.02,3.198,8.312c-1.576,2.292-5.563,2.286-8.906-0.012
					c-3.342-2.299-4.774-6.02-3.198-8.312C306.074,132.053,310.062,132.059,313.404,134.357z"/>
				<path style="fill:#FFFFFF;" d="M302.114,133.874c0.143,0.755-0.68,1.544-1.838,1.762c-1.158,0.219-2.212-0.216-2.354-0.971
					c-0.142-0.755,0.681-1.544,1.838-1.763C300.918,132.684,301.972,133.119,302.114,133.874z"/>
			</g>
		</g>
		<g>
			<g>
				<path style="fill:#263238;stroke:#263238;stroke-linecap:round;stroke-linejoin:round;stroke-miterlimit:10;" d="
					M367.034,139.427c1.404,12.204-6.556,32.681-15.316,33.688c-7.288,0.838-21.162-17.126-22.566-29.33
					c-1.404-12.204,5.938-23.074,16.399-24.277C356.011,118.305,365.63,127.223,367.034,139.427z"/>
				<polyline style="fill:#263238;stroke:#263238;stroke-linecap:round;stroke-linejoin:round;stroke-miterlimit:10;" points="
					351.25,173.762 351.943,178.164 355.522,176.818 351.718,173.115 				"/>
				<path style="fill:#FFFFFF;" d="M360.087,126.791c2.614,3.102,3.009,7.069,0.883,8.862c-2.127,1.793-5.97,0.732-8.585-2.37
					c-2.614-3.102-3.01-7.069-0.883-8.862C353.63,122.629,357.473,123.69,360.087,126.791z"/>
				<path style="fill:#FFFFFF;" d="M349.328,123.336c-0.063,0.766-1.065,1.309-2.239,1.213c-1.174-0.096-2.075-0.794-2.013-1.56
					c0.063-0.766,1.065-1.309,2.239-1.213C348.49,121.871,349.391,122.57,349.328,123.336z"/>
			</g>
		</g>
		<g>
			<g>
				<path style="fill:#263238;stroke:#263238;stroke-linecap:round;stroke-linejoin:round;stroke-miterlimit:10;" d="
					M404.766,77.428c-0.751,12.262-12.168,31.031-20.97,30.492c-7.322-0.449-17.842-20.562-17.091-32.824
					c0.751-12.262,9.88-21.68,20.391-21.036C397.606,54.704,405.517,65.166,404.766,77.428z"/>
				<polyline style="fill:#263238;stroke:#263238;stroke-linecap:round;stroke-linejoin:round;stroke-miterlimit:10;" points="
					383.223,108.475 383.135,112.93 386.895,112.231 383.796,107.92 				"/>
				<path style="fill:#FFFFFF;" d="M400.136,63.772c2.032,3.511,1.727,7.487-0.68,8.88c-2.407,1.393-6.006-0.323-8.038-3.834
					c-2.032-3.511-1.727-7.487,0.68-8.88C394.505,58.545,398.104,60.262,400.136,63.772z"/>
				<path style="fill:#FFFFFF;" d="M390.146,58.489c-0.195,0.743-1.278,1.102-2.417,0.803c-1.139-0.3-1.904-1.145-1.709-1.888
					c0.195-0.743,1.277-1.102,2.417-0.803C389.577,56.901,390.342,57.746,390.146,58.489z"/>
			</g>
		</g>
		<g>
			<g>
				<path style="fill:#263238;stroke:#263238;stroke-linecap:round;stroke-linejoin:round;stroke-miterlimit:10;" d="
					M287.085,59.787c3.722,11.707-0.156,33.331-8.56,36.003c-6.991,2.223-24.058-12.742-27.78-24.45
					c-3.722-11.707,1.396-23.785,11.431-26.975C272.211,41.175,283.363,48.08,287.085,59.787z"/>
				<polyline style="fill:#263238;stroke:#263238;stroke-linecap:round;stroke-linejoin:round;stroke-miterlimit:10;" points="
					278.19,96.515 279.716,100.701 282.97,98.693 278.525,95.79 				"/>
				<path style="fill:#FFFFFF;" d="M277.841,48.721c3.161,2.542,4.311,6.36,2.568,8.528c-1.743,2.168-5.719,1.865-8.88-0.677
					c-3.161-2.542-4.311-6.36-2.568-8.528C270.704,45.876,274.68,46.18,277.841,48.721z"/>
				<path style="fill:#FFFFFF;" d="M266.619,47.396c0.086,0.764-0.794,1.489-1.965,1.62c-1.171,0.131-2.189-0.381-2.275-1.145
					c-0.086-0.764,0.794-1.489,1.965-1.62C265.515,46.12,266.533,46.633,266.619,47.396z"/>
			</g>
		</g>
		<g>
			<g>
				<path style="fill:#263238;stroke:#263238;stroke-linecap:round;stroke-linejoin:round;stroke-miterlimit:10;" d="
					M331.718,96.337c1.786,12.154-5.527,32.87-14.252,34.152c-7.258,1.067-21.689-16.454-23.475-28.608
					c-1.786-12.154,5.211-23.249,15.629-24.78S329.932,84.182,331.718,96.337z"/>
				<polyline style="fill:#263238;stroke:#263238;stroke-linecap:round;stroke-linejoin:round;stroke-miterlimit:10;" points="
					317.019,131.15 317.85,135.528 321.385,134.071 317.466,130.489 				"/>
				<path style="fill:#FFFFFF;" d="M324.379,83.925c2.71,3.018,3.23,6.971,1.16,8.83c-2.07,1.859-5.945,0.919-8.655-2.1
					c-2.71-3.018-3.23-6.972-1.16-8.83C317.793,79.967,321.668,80.907,324.379,83.925z"/>
				<path style="fill:#FFFFFF;" d="M313.517,80.809c-0.039,0.767-1.024,1.342-2.2,1.283c-1.177-0.059-2.099-0.729-2.061-1.496
					c0.039-0.767,1.023-1.342,2.2-1.283C312.632,79.372,313.555,80.042,313.517,80.809z"/>
			</g>
		</g>
		<g>
			<g>
				<path style="fill:#92E3A9;stroke:#263238;stroke-linecap:round;stroke-linejoin:round;stroke-miterlimit:10;" d="
					M283.375,107.241c4.542,11.414,2.206,33.259-5.987,36.519c-6.816,2.713-24.9-11.005-29.443-22.42
					c-4.542-11.414-0.294-23.824,9.49-27.717C267.219,89.73,278.833,95.827,283.375,107.241z"/>
				<polyline style="fill:#92E3A9;stroke:#263238;stroke-linecap:round;stroke-linejoin:round;stroke-miterlimit:10;" points="
					277.105,144.507 278.924,148.574 282.028,146.341 277.388,143.76 				"/>
				<path style="fill:#FFFFFF;" d="M273.37,96.858c3.334,2.311,4.751,6.038,3.166,8.324c-1.585,2.286-5.572,2.265-8.906-0.046
					c-3.334-2.311-4.751-6.038-3.166-8.324C266.049,94.526,270.036,94.547,273.37,96.858z"/>
				<path style="fill:#FFFFFF;" d="M262.082,96.332c0.139,0.756-0.686,1.541-1.845,1.756c-1.158,0.214-2.211-0.225-2.35-0.981
					c-0.14-0.756,0.686-1.541,1.845-1.756C260.89,95.137,261.943,95.576,262.082,96.332z"/>
			</g>
		</g>
		<g>
			<g>
				<path style="fill:#92E3A9;stroke:#263238;stroke-linecap:round;stroke-linejoin:round;stroke-miterlimit:10;" d="
					M364.309,64.342c1.401,12.205-6.565,32.679-15.326,33.684c-7.288,0.836-21.157-17.132-22.558-29.337
					c-1.401-12.205,5.945-23.072,16.406-24.272C353.293,43.217,362.909,52.137,364.309,64.342z"/>
				<polyline style="fill:#92E3A9;stroke:#263238;stroke-linecap:round;stroke-linejoin:round;stroke-miterlimit:10;" points="
					348.516,98.673 349.208,103.075 352.788,101.73 348.984,98.026 				"/>
				<path style="fill:#FFFFFF;" d="M357.367,51.705c2.613,3.102,3.008,7.07,0.88,8.862c-2.127,1.792-5.971,0.73-8.584-2.372
					c-2.613-3.103-3.008-7.07-0.88-8.862C350.91,47.54,354.753,48.602,357.367,51.705z"/>
				<path style="fill:#FFFFFF;" d="M346.609,48.246c-0.063,0.766-1.066,1.309-2.24,1.212c-1.174-0.096-2.075-0.795-2.012-1.561
					c0.063-0.766,1.065-1.308,2.24-1.212C345.771,46.781,346.672,47.48,346.609,48.246z"/>
			</g>
		</g>
		<g>
			<g>
				<path style="fill:#92E3A9;stroke:#263238;stroke-linecap:round;stroke-linejoin:round;stroke-miterlimit:10;" d="
					M393.057,115.517c-1.594,12.181-14.276,30.119-23.02,28.975c-7.274-0.952-16.384-21.742-14.79-33.923
					c1.594-12.181,11.35-20.948,21.791-19.582C387.479,92.354,394.651,103.336,393.057,115.517z"/>
				<polyline style="fill:#92E3A9;stroke:#263238;stroke-linecap:round;stroke-linejoin:round;stroke-miterlimit:10;" points="
					369.426,145.006 369.033,149.445 372.831,149.006 370.037,144.492 				"/>
				<path style="fill:#FFFFFF;" d="M389.378,101.575c1.785,3.642,1.208,7.588-1.29,8.812c-2.498,1.224-5.97-0.736-7.755-4.379
					c-1.785-3.643-1.208-7.588,1.29-8.812C384.121,95.972,387.593,97.933,389.378,101.575z"/>
				<path style="fill:#FFFFFF;" d="M379.777,95.616c-0.246,0.728-1.35,1.012-2.466,0.634c-1.116-0.378-1.821-1.273-1.575-2.001
					c0.246-0.728,1.35-1.012,2.466-0.634C379.318,93.993,380.023,94.888,379.777,95.616z"/>
			</g>
		</g>
		<g>
			<g>
				<path style="fill:#92E3A9;stroke:#263238;stroke-linecap:round;stroke-linejoin:round;stroke-miterlimit:10;" d="
					M277.373,141.764c7.23,9.932,10.383,31.673,3.254,36.863c-5.931,4.318-26.851-4.488-34.082-14.42
					c-7.23-9.932-6.191-23.007,2.322-29.205C257.38,128.805,270.142,131.832,277.373,141.764z"/>
				<polyline style="fill:#92E3A9;stroke:#263238;stroke-linecap:round;stroke-linejoin:round;stroke-miterlimit:10;" points="
					280.538,179.421 283.309,182.91 285.762,179.977 280.627,178.627 				"/>
				<path style="fill:#FFFFFF;" d="M265.106,134.186c3.803,1.413,6.1,4.672,5.131,7.279c-0.969,2.607-4.837,3.576-8.639,2.164
					c-3.803-1.413-6.1-4.672-5.131-7.279C257.436,133.742,261.304,132.773,265.106,134.186z"/>
				<path style="fill:#FFFFFF;" d="M254.04,136.475c0.322,0.697-0.283,1.664-1.352,2.158c-1.069,0.494-2.197,0.33-2.52-0.367
					c-0.323-0.697,0.283-1.663,1.352-2.158C252.589,135.613,253.717,135.777,254.04,136.475z"/>
			</g>
		</g>
		<g>
			<g>
				<path style="fill:#263238;stroke:#263238;stroke-linecap:round;stroke-linejoin:round;stroke-miterlimit:10;" d="
					M353.012,70.667c1.404,12.204-6.555,32.681-15.316,33.688c-7.288,0.838-21.162-17.126-22.566-29.33
					c-1.404-12.204,5.938-23.074,16.399-24.277C341.99,49.544,351.608,58.462,353.012,70.667z"/>
				<polyline style="fill:#263238;stroke:#263238;stroke-linecap:round;stroke-linejoin:round;stroke-miterlimit:10;" points="
					337.228,105.002 337.921,109.403 341.501,108.058 337.696,104.355 				"/>
				<path style="fill:#FFFFFF;" d="M346.066,58.031c2.615,3.102,3.01,7.069,0.883,8.862c-2.127,1.793-5.97,0.732-8.585-2.37
					c-2.614-3.102-3.009-7.07-0.883-8.862C339.608,53.868,343.452,54.929,346.066,58.031z"/>
				<path style="fill:#FFFFFF;" d="M335.307,54.575c-0.063,0.766-1.065,1.309-2.239,1.213c-1.174-0.096-2.075-0.794-2.013-1.56
					c0.063-0.766,1.065-1.309,2.239-1.213C334.468,53.111,335.37,53.81,335.307,54.575z"/>
			</g>
		</g>
		
			<line style="fill:none;stroke:#263238;stroke-linecap:round;stroke-linejoin:round;stroke-miterlimit:10;" x1="361.081" y1="265.123" x2="341.703" y2="187.035"/>
		<g>
			<g>
				<path style="fill:#92E3A9;stroke:#263238;stroke-linecap:round;stroke-linejoin:round;stroke-miterlimit:10;" d="
					M356.017,152.908c1.764,12.158-5.587,32.86-14.314,34.126c-7.26,1.053-21.659-16.493-23.423-28.651s5.253-23.239,15.674-24.751
					C344.375,132.121,354.253,140.751,356.017,152.908z"/>
				<polyline style="fill:#92E3A9;stroke:#263238;stroke-linecap:round;stroke-linejoin:round;stroke-miterlimit:10;" points="
					341.254,187.695 342.077,192.074 345.616,190.623 341.703,187.035 				"/>
				<path style="fill:#FFFFFF;" d="M348.7,140.484c2.705,3.023,3.217,6.977,1.144,8.832c-2.073,1.855-5.946,0.908-8.651-2.115
					c-2.705-3.023-3.217-6.977-1.144-8.832C342.122,136.513,345.995,137.46,348.7,140.484z"/>
				<path style="fill:#FFFFFF;" d="M337.844,137.347c-0.04,0.767-1.026,1.34-2.202,1.279c-1.177-0.061-2.098-0.733-2.058-1.5
					c0.04-0.767,1.026-1.34,2.203-1.279C336.962,135.908,337.884,136.58,337.844,137.347z"/>
			</g>
		</g>
	</g>
</g>
<g id="Character_2">
	<g>
		<ellipse style="opacity:0.13;" cx="405.751" cy="453.862" rx="77.76" ry="18.662"/>
		<g>
			<g>
				<path style="fill:#FFFFFF;stroke:#263238;stroke-linecap:round;stroke-linejoin:round;stroke-miterlimit:10;" d="
					M412.936,275.958l-18.168,16.904l-24.109-16.02c0,0-2.855-6.027-4.6-7.931c-1.745-1.903-3.49-2.379-4.758-3.014
					c-1.269-0.634-2.062-2.379-2.538-1.428c-0.476,0.952,0,2.221,0,2.221s-2.855-0.476-2.855,1.11c0,1.586,0.159,2.697,0.159,2.697
					l1.269,1.903c0,0,0,3.49,0.476,4.758c0.476,1.269,2.697,2.221,4.917,3.014c2.221,0.793,3.49,1.586,3.49,1.586
					s11.896,14.275,14.91,17.448s13.165,9.041,14.434,8.724c1.269-0.317,16.337-10.627,16.337-10.627l4.124-20.303
					C416.023,277.001,414.132,274.916,412.936,275.958z"/>
				<path style="fill:none;stroke:#263238;stroke-linecap:round;stroke-linejoin:round;stroke-miterlimit:10;" d="M358.763,266.691
					c0,0,0.476,1.428,1.269,2.221c0.793,0.793,3.014,2.538,3.014,2.538s-0.634,2.221,0.476,3.49c1.11,1.269,2.855,2.379,2.855,2.379
					"/>
				
					<line style="fill:none;stroke:#263238;stroke-linecap:round;stroke-linejoin:round;stroke-miterlimit:10;" x1="357.335" y1="272.401" x2="360.508" y2="272.877"/>
				
					<line style="fill:none;stroke:#263238;stroke-linecap:round;stroke-linejoin:round;stroke-miterlimit:10;" x1="363.045" y1="271.449" x2="362.4" y2="279.431"/>
			</g>
			<g>
				<path style="fill:#FFFFFF;stroke:#263238;stroke-linecap:round;stroke-linejoin:round;stroke-miterlimit:10;" d="
					M399.335,367.341c0,0,2.082,7.98,4.51,17.173c2.429,9.194,3.122,11.969,3.122,11.969l2.985,20.41l2.082,19.602
					c0,0-6.071,8.327-10.061,10.061c-3.99,1.735-3.699,5.482-0.867,6.939c6.071,3.122,12.837-1.388,14.398-2.429
					s3.469-3.122,3.469-3.122s3.296-1.735,3.816-3.469c0.52-1.735,0.52-4.51,0.173-5.898c-0.347-1.388-2.082-11.622-1.388-19.602
					c0.694-7.979,0.138-24.053-1.077-28.043c-1.214-3.99-0.52-21.337-0.52-21.337L399.335,367.341z"/>
				<path style="fill:#FFFFFF;stroke:#263238;stroke-linecap:round;stroke-linejoin:round;stroke-miterlimit:10;" d="
					M418.973,447.945c0,0,3.296-1.735,3.816-3.469c0.52-1.735,0.52-4.51,0.173-5.898c-0.136-0.542-0.483-2.446-0.815-5.029
					c-4.01,1.533-7.855,0.874-10.425,0.017l0.311,2.931c0,0-6.071,8.326-10.061,10.061c-3.99,1.735-3.699,5.482-0.867,6.939
					c6.071,3.122,12.837-1.388,14.398-2.428S418.973,447.945,418.973,447.945z"/>
				<path style="fill:#92E3A9;stroke:#263238;stroke-linecap:round;stroke-linejoin:round;stroke-miterlimit:10;" d="
					M422.963,438.578c-0.068-0.272-0.191-0.895-0.337-1.766c-0.549,0.626-1.155,1.345-1.745,2.113
					c-1.735,2.255-3.469,1.908-3.469,1.908s-1.561-2.949-2.775-3.99c-1.214-1.041-3.122,0.867-3.122,0.867l-0.429,0.035
					c-1.861,2.388-6.083,7.496-9.111,8.812c-3.99,1.735-3.699,5.482-0.867,6.939c6.071,3.122,12.837-1.388,14.398-2.428
					s3.469-3.122,3.469-3.122s3.296-1.735,3.816-3.469C423.31,442.741,423.31,439.966,422.963,438.578z"/>
			</g>
			<g>
				<path style="fill:#FFFFFF;stroke:#263238;stroke-linecap:round;stroke-linejoin:round;stroke-miterlimit:10;" d="
					M424.662,372.892c0,0,1.561,21.337,1.908,24.459c0.347,3.122,3.505,28.043,3.505,31.512c0,3.469,0.52,6.071,0,8.673
					c-0.52,2.602-1.041,9.541-1.908,11.275c-0.867,1.735-3.296,4.684-2.949,7.112c0.347,2.428,5.204,3.643,8.326,2.775
					c3.122-0.867,5.204-2.429,6.245-6.592c1.041-4.163-1.908-14.745-1.735-16.132c0.173-1.388,5.03-20.643,5.03-26.02
					s-1.25-19.023-0.903-22.492c0.347-3.469,1.561-15.092,1.561-15.092L424.662,372.892z"/>
				<path style="fill:#FFFFFF;stroke:#263238;stroke-linecap:round;stroke-linejoin:round;stroke-miterlimit:10;" d="M433.544,458.7
					c3.122-0.867,5.204-2.429,6.245-6.592c1.041-4.163-1.908-14.745-1.735-16.132c0.023-0.184,0.131-0.692,0.297-1.433
					c-3.291,0.547-6.484-0.426-8.083-1.053c0.067,1.423,0.069,2.735-0.193,4.047c-0.52,2.602-1.041,9.541-1.908,11.275
					c-0.867,1.735-3.296,4.684-2.949,7.112C425.565,458.353,430.422,459.568,433.544,458.7z"/>
				<path style="fill:#92E3A9;stroke:#263238;stroke-linecap:round;stroke-linejoin:round;stroke-miterlimit:10;" d="
					M438.228,442.568c0,0-2.776-4.163-4.51-4.163c-1.735,0-3.643,3.296-3.643,3.296l-0.642,0.392
					c-0.347,2.738-0.743,5.674-1.266,6.72c-0.867,1.735-3.296,4.684-2.949,7.112c0.347,2.428,5.204,3.643,8.326,2.775
					c3.122-0.867,5.204-2.429,6.245-6.592c0.601-2.403-0.127-6.938-0.817-10.615L438.228,442.568z"/>
			</g>
			<g>
				<path style="fill:#FFFFFF;stroke:#263238;stroke-linecap:round;stroke-linejoin:round;stroke-miterlimit:10;" d="
					M402.549,318.521l-20.628,39.373c0,0,0.159,2.062,1.903,3.648c1.745,1.586,3.331,2.062,3.331,2.062s3.965,4.124,10.944,5.869
					c6.979,1.745,13.482,1.745,13.482,1.745s11.103,4.124,16.813,4.283c5.71,0.159,15.227-1.11,15.227-1.11s8.882,0,12.689-2.221
					c3.807-2.221,6.345-3.807,6.345-3.807l-12.984-44.648L402.549,318.521z"/>
				
					<line style="fill:none;stroke:#263238;stroke-linecap:round;stroke-linejoin:round;stroke-miterlimit:10;" x1="412.216" y1="369.632" x2="416.657" y2="352.819"/>
				
					<line style="fill:none;stroke:#263238;stroke-linecap:round;stroke-linejoin:round;stroke-miterlimit:10;" x1="403.175" y1="320.937" x2="396.037" y2="338.385"/>
				
					<line style="fill:none;stroke:#263238;stroke-linecap:round;stroke-linejoin:round;stroke-miterlimit:10;" x1="433.153" y1="326.013" x2="434.422" y2="342.192"/>
				<g>
					<path style="fill:#263238;" d="M417.896,331.453c-0.232,1.07-1.01,1.81-1.738,1.652c-0.728-0.158-1.13-1.153-0.898-2.223
						c0.232-1.07,1.01-1.81,1.738-1.652C417.726,329.388,418.128,330.383,417.896,331.453z"/>
					<path style="fill:#263238;" d="M412.851,348.378c-0.232,1.07-1.01,1.81-1.738,1.652c-0.728-0.158-1.13-1.153-0.898-2.223
						c0.232-1.07,1.01-1.81,1.738-1.652C412.681,346.312,413.082,347.307,412.851,348.378z"/>
					<path style="fill:#263238;" d="M406.6,328.275c-0.372,1.03-1.242,1.66-1.942,1.406c-0.7-0.253-0.966-1.293-0.594-2.323
						c0.372-1.03,1.241-1.66,1.942-1.407C406.706,326.205,406.972,327.245,406.6,328.275z"/>
					<path style="fill:#263238;" d="M399.35,344.378c-0.372,1.03-1.241,1.66-1.942,1.406c-0.7-0.253-0.966-1.293-0.594-2.323
						c0.372-1.03,1.242-1.66,1.942-1.407C399.456,342.308,399.722,343.348,399.35,344.378z"/>
				</g>
			</g>
			<path style="fill:#92E3A9;stroke:#263238;stroke-linecap:round;stroke-linejoin:round;stroke-miterlimit:10;" d="
				M419.227,272.907c0,0-5.151,1.405-6.291,3.052c-1.14,1.647-10.387,42.563-10.387,42.563s11.021,5.954,23.688,6.587
				c12.668,0.633,23.435-1.393,23.435-1.393l1.647-37.116L419.227,272.907z"/>
			<polygon style="fill:#FFFFFF;stroke:#263238;stroke-linecap:round;stroke-linejoin:round;stroke-miterlimit:10;" points="
				414.437,275.256 404.285,319.668 402.549,318.521 412.936,275.958 			"/>
			<polygon style="fill:#FFFFFF;stroke:#263238;stroke-linecap:round;stroke-linejoin:round;stroke-miterlimit:10;" points="
				432.995,278.904 424.747,324.744 427.443,325.061 435.533,279.856 			"/>
			<path style="fill:#263238;stroke:#263238;stroke-linecap:round;stroke-linejoin:round;stroke-miterlimit:10;" d="
				M419.227,272.907c0,0-4.156,1.398-4.791,2.349c0,0-1.269,2.538-0.317,8.407c0.571,3.519,1.197,7.768,1.608,10.615
				c-0.188-0.209-0.377-0.136-0.497,0.647l-0.952,3.965c0,0-3.331,4.6-4.124,7.772c-0.793,3.172-1.269,8.565-1.269,8.565
				s3.172-3.331,3.807-5.076c0.634-1.745,2.538-8.089,2.538-8.089s0.159,6.82,1.269,9.675c1.11,2.855,2.696,5.552,2.696,5.552
				s1.904-4.758,0.159-11.738c-1.053-4.212-1.93-6.913-2.462-8.4c2.388-1.054,10.153-4.558,13.09-6.827
				c3.49-2.697,7.138-9.676,7.138-9.676L419.227,272.907z"/>
			<g>
				<path style="fill:#FFFFFF;stroke:#263238;stroke-linecap:round;stroke-linejoin:round;stroke-miterlimit:10;" d="
					M418.876,236.202c0,0-2.108,2.283-3.513,4.39c-1.405,2.107-2.283,3.688-3.337,4.039c-1.054,0.351-3.688,0.527-3.864,2.634
					s3.161,4.039,3.161,4.039s-0.176,7.201,0,9.484c0.176,2.283,1.581,3.512,3.161,3.688c1.581,0.176,4.918,0.351,4.918,0.351
					l-0.176,8.079c0,0-2.108,1.405-2.108,3.337c0,1.932-1.756,15.279-0.351,15.63s13.874-8.43,13.874-8.43s5.62-20.548,5.269-28.451
					c-0.351-7.903-5.093-17.035-8.957-18.089C423.091,235.85,418.876,236.202,418.876,236.202z"/>
				
					<ellipse transform="matrix(0.4023 -0.9155 0.9155 0.4023 25.093 528.048)" style="fill:#263238;" cx="416.944" cy="244.807" rx="1.932" ry="0.878"/>
				<path style="fill:none;stroke:#263238;stroke-linecap:round;stroke-linejoin:round;stroke-miterlimit:10;" d="M413.256,253.061
					c0,0,2.634,1.756,5.093-0.702"/>
				<path style="fill:none;stroke:#263238;stroke-linecap:round;stroke-linejoin:round;stroke-miterlimit:10;" d="M418.173,239.714
					c0,0,2.81,0,3.337,2.986"/>
				<polygon style="fill:#263238;stroke:#263238;stroke-linecap:round;stroke-linejoin:round;stroke-miterlimit:10;" points="
					419.403,264.828 424.145,265.004 419.684,267.884 				"/>
			</g>
			<g>
				<path style="fill:#FFFFFF;stroke:#263238;stroke-linecap:round;stroke-linejoin:round;stroke-miterlimit:10;" d="
					M441.401,302.379l0.159,22.523c0,0-2.379,5.71-3.331,11.738c-0.952,6.027-5.076,22.999-5.393,23.951s-6.027,2.379-6.345,3.49
					s-2.696,4.759-3.014,5.234c-0.317,0.476-1.903,1.11-0.634,1.586c1.269,0.476,2.379,0.793,3.172,0.159
					c0.793-0.634,2.538-1.903,3.014-1.745c0.476,0.159,0.952,4.441,1.11,5.076c0.159,0.634,0.317,3.014-0.159,6.345
					c-0.476,3.331,0.952,3.014,1.586,2.221c0.634-0.793,3.172-1.586,4.124-2.696s2.538-5.393,2.855-6.345
					c0.317-0.952,0.634-11.42,0.793-12.848c0.159-1.427,6.186-14.434,9.834-22.047c3.648-7.614,4.917-15.544,5.234-17.606
					c0.317-2.062-1.988-28.31-1.988-28.31s-4.515-0.558-6.26,0.393c-1.745,0.952-5.71,5.393-5.551,6.662
					C440.767,301.427,441.401,302.379,441.401,302.379z"/>
				<path style="fill:none;stroke:#263238;stroke-linecap:round;stroke-linejoin:round;stroke-miterlimit:10;" d="M431.567,382.956
					c0,0,2.221-4.441,2.538-7.296c0.317-2.855,0.317-3.648,0.317-3.648"/>
				<path style="fill:none;stroke:#263238;stroke-linecap:round;stroke-linejoin:round;stroke-miterlimit:10;" d="M436.801,372.329
					c0,0-0.476,2.855-0.952,4.917c-0.476,2.062-1.586,4.124-1.586,4.124"/>
			</g>
			<path style="fill:#263238;stroke:#263238;stroke-linecap:round;stroke-linejoin:round;stroke-miterlimit:10;" d="
				M430.643,224.962c0,0-5.796-4.215-10.362-2.81c-4.566,1.405-6.322,5.444-5.971,8.079c0.351,2.634,5.444,0.527,5.444,0.527
				s-3.688,3.337-1.054,7.025c2.634,3.688,7.201,5.269,7.201,5.269s-1.229,4.917,1.581,9.308c2.81,4.391,1.756,6.849,1.054,10.186
				c-0.702,3.337-8.957,15.279-7.201,20.548c1.756,5.269,6.322,6.498,6.322,6.498s-0.527,10.713,4.742,12.645
				c5.269,1.932,9.308,1.581,9.308,1.581s-2.108-2.634,2.81-5.269c4.917-2.634,7.903-5.444,7.903-5.444l0.351,11.767
				c0,0,5.444-4.039,6.498-7.903c1.054-3.864-0.878-6.498,0.878-7.903c1.756-1.405,6.498-6.498,6.322-10.889
				s-6.322-7.727-6.147-10.186s2.81-18.44-1.405-28.802c-4.215-10.362-13.699-14.928-18.967-15.455
				C434.682,223.205,430.643,224.962,430.643,224.962z"/>
		</g>
	</g>
</g>
<g id="Character_1">
	<g>
		<ellipse style="opacity:0.13;" cx="179.137" cy="453.862" rx="77.76" ry="18.662"/>
		<g>
			<path style="fill:none;stroke:#263238;stroke-linecap:round;stroke-linejoin:round;stroke-miterlimit:10;" d="M172.921,219.714
				c0,0,4.722-6.914,13.829-6.408c9.107,0.506,10.625,10.962,10.625,10.962S187.593,217.691,172.921,219.714z"/>
			<g>
				<path style="fill:#FFFFFF;stroke:#263238;stroke-linecap:round;stroke-linejoin:round;stroke-miterlimit:10;" d="
					M138.886,259.999l-20.271-6.544l-23.241-9.165c0,0-9.896-9.736-10.534-10.055c-0.638-0.319-3.511,0.638-4.629,1.277
					c-1.117,0.639-5.267,1.277-5.427,2.714c-0.16,1.436,1.756,5.906,3.033,7.023c1.277,1.117,4.31-1.117,4.31-1.117
					s2.075,2.394,3.99,3.192c1.915,0.798,4.788,0.798,4.788,0.798s25.156,18.582,28.508,19.859
					c3.352,1.277,18.515,6.384,18.515,6.384L138.886,259.999z"/>
				<path style="fill:none;stroke:#263238;stroke-linecap:round;stroke-linejoin:round;stroke-miterlimit:10;" d="M85.16,241.257
					c0,0-3.99-0.319-6.544-1.277c-2.554-0.958-4.469-1.915-4.15,0c0.319,1.915,3.99,2.394,3.99,2.394l7.661,4.948l2.394-0.798"/>
				
					<line style="fill:none;stroke:#263238;stroke-linecap:round;stroke-linejoin:round;stroke-miterlimit:10;" x1="80.212" y1="240.459" x2="81.648" y2="238.225"/>
			</g>
			<g>
				<path style="fill:none;stroke:#263238;stroke-linecap:round;stroke-linejoin:round;stroke-miterlimit:10;" d="M283.235,311.051
					c0,0,1.317,3.402,0.219,3.622c-1.097,0.22-2.305-2.524-2.305-2.524l-7.792-1.866c0,0,4.719-2.634,5.926-2.305
					C280.492,308.307,283.235,311.051,283.235,311.051z"/>
				<path style="fill:#FFFFFF;stroke:#263238;stroke-linecap:round;stroke-linejoin:round;stroke-miterlimit:10;" d="
					M221.449,289.87l6.036,3.512c0,0,7.353,1.427,12.401,3.512c5.048,2.085,25.571,9.328,25.571,9.328s12.292-2.305,12.621-2.305
					c0.329,0,5.268,4.609,5.707,5.048c0.439,0.439,1.427,3.402,0.988,3.841s-3.402-2.853-3.841-2.963
					c-0.439-0.11-2.634-1.207-2.634-1.207l-4.939,1.646c0,0,4.939,1.317,6.146,1.646c1.207,0.329,2.195,1.207,0.768,1.866
					c-1.427,0.659-5.707-0.11-6.694-0.11s-3.292,0.329-4.28,0.22c-0.988-0.11-5.048-2.524-5.048-2.524s-26.229-3.512-30.29-4.17
					c-4.061-0.658-12.182-2.853-13.828-3.512c-1.646-0.659-4.28-1.317-4.28-1.317L221.449,289.87z"/>
			</g>
			<g>
				<g>
					<path style="fill:#92E3A9;stroke:#263238;stroke-linecap:round;stroke-linejoin:round;stroke-miterlimit:10;" d="
						M170.312,267.868c0,0-3.66-0.796-7.637-3.66c-3.978-2.864-8.115-3.819-12.411-3.978c-4.296-0.159-12.729-1.591-12.729-1.591
						l-0.955,21.957l12.092,4.773c0,0-0.955,39.3-0.955,40.891s0,3.5,0.955,4.137c0.955,0.636,53.143,4.932,53.62,3.819
						c0.477-1.114,0.796-34.368,0.796-34.368l10.024,7.478l10.819-17.025c0,0-16.865-14.32-20.207-15.434
						c-3.341-1.114-12.252-2.387-13.206-2.387c-0.955,0-4.776-1.118-4.776-1.118L170.312,267.868z"/>
					
						<line style="fill:#263238;stroke:#263238;stroke-linecap:round;stroke-linejoin:round;stroke-miterlimit:10;" x1="148.673" y1="285.37" x2="148.731" y2="274.301"/>
					
						<line style="fill:#263238;stroke:#263238;stroke-linecap:round;stroke-linejoin:round;stroke-miterlimit:10;" x1="203.089" y1="299.849" x2="202.95" y2="289.389"/>
					<path style="fill:#263238;stroke:#263238;stroke-linecap:round;stroke-linejoin:round;stroke-miterlimit:10;" d="
						M185.209,278.446c0,0-6.798,11.441-13.099,19.399"/>
					<path style="fill:#263238;stroke:#263238;stroke-linecap:round;stroke-linejoin:round;stroke-miterlimit:10;" d="
						M176.089,286.736c0,0-6.798,8.622-10.612,13.099"/>
				</g>
				<path style="fill:#263238;stroke:#263238;stroke-linecap:round;stroke-linejoin:round;stroke-miterlimit:10;" d="
					M165.061,265.959l-12.888,65.076h2.705c0,0,11.138-64.598,11.615-64.28C166.971,267.073,165.061,265.959,165.061,265.959z"/>
				<polygon style="fill:#263238;stroke:#263238;stroke-linecap:round;stroke-linejoin:round;stroke-miterlimit:10;" points="
					188.928,272.482 192.906,333.103 195.77,333.739 190.519,272.482 				"/>
			</g>
			
				<ellipse transform="matrix(0.2523 -0.9676 0.9676 0.2523 -95.9785 357.3297)" style="fill:#FFFFFF;stroke:#263238;stroke-linecap:round;stroke-linejoin:round;stroke-miterlimit:10;" cx="183.245" cy="240.774" rx="22.497" ry="27.524"/>
			<g>
				<path style="fill:#FFFFFF;stroke:#263238;stroke-linecap:round;stroke-linejoin:round;stroke-miterlimit:10;" d="
					M180.343,226.849c0,0-4.26-1.331-7.987,1.065c-3.727,2.396-5.724,5.325-5.724,7.588c0,2.263-1.065,6.922-1.065,6.922
					s-2.796-1.864-3.86,1.198c-1.065,3.062-0.133,6.523,1.331,7.454c1.464,0.932,2.928,0.932,2.928,0.932s3.727,7.588,4.127,8.519
					c0.399,0.932-0.457,8.84-0.457,8.84s3.86,3.727,7.321,4.26c3.461,0.532,7.854-1.065,8.786-2.263
					c0.932-1.198,2.187-5.778,2.187-5.778s3.594-3.062,5.058-4.393c1.464-1.331,3.062-4.925,3.062-4.925s4.26,0.133,5.458-3.461
					c1.198-3.594-1.065-4.792-1.597-5.058l-1.331-9.851c0,0,1.73,1.731,1.73,0c0-1.73,0-3.727-2.13-5.724
					c-2.13-1.997-5.192-4.26-5.192-4.26s2.796-0.266,0.133-1.597C190.46,224.985,183.671,223.388,180.343,226.849z"/>
				<path style="fill:#263238;stroke:#263238;stroke-linecap:round;stroke-linejoin:round;stroke-miterlimit:10;" d="
					M200.31,237.898c0-1.73,0-3.727-2.13-5.724c-2.13-1.997-5.191-4.26-5.191-4.26s2.796-0.266,0.133-1.597
					c-2.662-1.331-9.451-2.929-12.779,0.533c0,0-4.26-1.331-7.987,1.065c-3.727,2.396-5.724,5.325-5.724,7.588
					s-1.065,6.922-1.065,6.922s1.065,1.331,1.597,0c0.532-1.331,0.266-2.13,1.597-3.993c1.331-1.864,2.396-2.529,2.529-4.659
					s2.796-5.191,4.659-5.591c1.864-0.399,3.062-0.133,3.062-0.133s-1.331,0.932-0.533,1.331c0.799,0.399,3.727-0.666,3.727-0.666
					s2.796,3.461,3.727,3.461c0.932,0,0.799-2.529,0.799-2.529s6.123,4.526,7.455,5.458c1.331,0.932,1.73,2.13,1.73,2.13
					s-0.666,4.127-0.266,6.789c0.399,2.662,1.73,4.526,1.73,4.526l2.529-0.799l-1.331-9.851
					C198.58,237.898,200.31,239.628,200.31,237.898z"/>
				<path style="fill:#263238;" d="M177.679,239.876c-0.044,0.844-0.496,1.507-1.01,1.48c-0.514-0.027-0.895-0.733-0.851-1.577
					c0.044-0.844,0.496-1.507,1.01-1.48C177.342,238.326,177.723,239.032,177.679,239.876z"/>
				<path style="fill:#263238;" d="M188.827,242.411c-0.23,0.814-0.818,1.359-1.313,1.219c-0.495-0.14-0.71-0.913-0.48-1.727
					c0.23-0.814,0.818-1.359,1.313-1.219C188.843,240.825,189.057,241.598,188.827,242.411z"/>
				<path style="fill:none;stroke:#263238;stroke-linecap:round;stroke-linejoin:round;stroke-miterlimit:10;" d="M175.418,246.55
					c0,0,3.328,4.127,6.39,3.993c3.062-0.133,5.591-2.13,5.591-2.13"/>
				<path style="fill:none;stroke:#263238;stroke-linecap:round;stroke-linejoin:round;stroke-miterlimit:10;" d="M177.681,248.68
					c0,0,0.533,4.526,2.13,5.058c1.597,0.533,4.26-3.328,4.26-3.328S179.944,250.81,177.681,248.68z"/>
				<path style="fill:none;stroke:#263238;stroke-linecap:round;stroke-linejoin:round;stroke-miterlimit:10;" d="M174.086,235.768
					c0,0,3.461-1.464,6.39-0.266"/>
				<path style="fill:none;stroke:#263238;stroke-linecap:round;stroke-linejoin:round;stroke-miterlimit:10;" d="M186.732,237.365
					c0,0,3.727-0.666,5.458,2.795"/>
				<path style="fill:#263238;stroke:#263238;stroke-linecap:round;stroke-linejoin:round;stroke-miterlimit:10;" d="
					M176.749,265.053c0,0,1.198,1.065,3.727,0.666"/>
				<path style="fill:none;stroke:#263238;stroke-linecap:round;stroke-linejoin:round;stroke-miterlimit:10;" d="M180.875,242.024
					c0,0-1.331,1.73-0.799,2.662c0.533,0.932,2.662,1.864,3.594,1.464c0.932-0.399,0.932-2.662,0.532-3.062"/>
			</g>
			<g>
				<path style="fill:#FFFFFF;stroke:#263238;stroke-linecap:round;stroke-linejoin:round;stroke-miterlimit:10;" d="
					M186.196,428.927c0,0-0.326,3.583,0.326,6.352c0.652,2.769,0.977,5.701,1.303,8.47c0.326,2.769-0.489,9.936,2.443,12.867
					c2.932,2.932,12.705,3.421,14.171-0.163c1.466-3.583-1.466-12.868-4.072-15.962c-2.606-3.095-3.258-4.724-3.258-4.724
					s-0.489-2.606-0.814-3.909c-0.326-1.303-0.326-1.955-0.326-1.955L186.196,428.927z"/>
				<path style="fill:#92E3A9;stroke:#263238;stroke-linecap:round;stroke-linejoin:round;stroke-miterlimit:10;" d="
					M193.363,435.605c-2.606-0.163-5.375,5.049-5.375,5.049l-0.47,0.555c0.107,0.855,0.209,1.705,0.307,2.54
					c0.326,2.769-0.489,9.936,2.443,12.867c2.932,2.932,12.705,3.421,14.171-0.163c1.466-3.583-1.466-12.867-4.072-15.962
					C200.367,440.491,195.969,435.768,193.363,435.605z"/>
			</g>
			<g>
				<path style="fill:#FFFFFF;stroke:#263238;stroke-linecap:round;stroke-linejoin:round;stroke-miterlimit:10;" d="
					M170.723,429.09c0,0,1.466,8.958,1.466,10.099c0,1.14-8.47,9.61-10.424,12.053c-1.955,2.443-1.303,6.678,6.678,7.492
					c7.981,0.814,11.89-5.212,13.193-7.818c1.303-2.606,3.42-4.723,3.746-6.515c0.326-1.792-3.295-13.926-3.295-13.926
					L170.723,429.09z"/>
				<path style="fill:#92E3A9;stroke:#263238;stroke-linecap:round;stroke-linejoin:round;stroke-miterlimit:10;" d="M185.382,444.4
					c0.158-0.871-0.617-4.189-1.455-7.367l-2.291,2.644c0,0-2.28-3.746-4.723-4.398c-2.443-0.652-4.723,3.909-4.723,3.909
					c0,1.14-8.47,9.61-10.424,12.053c-1.955,2.443-1.303,6.678,6.678,7.492c7.981,0.814,11.89-5.212,13.193-7.818
					C182.939,448.31,185.056,446.192,185.382,444.4z"/>
			</g>
			<g>
				<path style="fill:#263238;stroke:#263238;stroke-linecap:round;stroke-linejoin:round;stroke-miterlimit:10;" d="
					M147.431,330.873c0,0,9.61,62.709,13.519,75.739c3.909,13.03,5.701,20.686,5.701,20.686l30.947-0.163
					c0,0,6.678-93.167,6.027-93.493c-0.652-0.326-14.822-5.212-29.318-5.212c-14.496,0-24.921,0.326-26.061,0.977
					C147.105,330.059,147.105,328.918,147.431,330.873z"/>
				
					<line style="fill:none;stroke:#263238;stroke-linecap:round;stroke-linejoin:round;stroke-miterlimit:10;" x1="171.211" y1="353.188" x2="182.613" y2="353.513"/>
				
					<line style="fill:none;stroke:#8F8F8F;stroke-linecap:round;stroke-linejoin:round;stroke-miterlimit:10;" x1="176.749" y1="353.676" x2="182.776" y2="426.972"/>
			</g>
			<polygon style="fill:#8F8F8F;stroke:#263238;stroke-linecap:round;stroke-linejoin:round;stroke-miterlimit:10;" points="
				184.294,430.881 166.533,430.638 165.219,423.393 182.98,423.637 			"/>
			<polygon style="fill:#8F8F8F;stroke:#263238;stroke-linecap:round;stroke-linejoin:round;stroke-miterlimit:10;" points="
				199.82,430.719 182.087,430.475 181.618,423.23 199.351,423.474 			"/>
		</g>
	</g>
</g>
<g id="Balloons_3">
	<g>
		<g>
			<path style="fill:#92E3A9;stroke:#263238;stroke-linecap:round;stroke-linejoin:round;stroke-miterlimit:10;" d="
				M673.311,167.694c-1.594,12.181-14.276,30.119-23.02,28.975c-7.274-0.952-16.383-21.742-14.789-33.923
				s11.35-20.948,21.791-19.582C667.733,144.53,674.905,155.513,673.311,167.694z"/>
			<polyline style="fill:#92E3A9;stroke:#263238;stroke-linecap:round;stroke-linejoin:round;stroke-miterlimit:10;" points="
				649.68,197.183 649.286,201.621 653.085,201.183 650.29,196.669 			"/>
			<path style="fill:#FFFFFF;" d="M669.632,153.752c1.785,3.643,1.208,7.588-1.29,8.812c-2.498,1.224-5.97-0.736-7.755-4.379
				c-1.785-3.643-1.207-7.588,1.29-8.812C664.375,148.149,667.847,150.109,669.632,153.752z"/>
			<path style="fill:#FFFFFF;" d="M660.03,147.793c-0.246,0.728-1.35,1.012-2.466,0.634c-1.116-0.378-1.821-1.273-1.575-2.001
				c0.246-0.728,1.35-1.012,2.466-0.634C659.571,146.169,660.277,147.065,660.03,147.793z"/>
		</g>
	</g>
	<g>
		<g>
			<path style="fill:#92E3A9;stroke:#263238;stroke-linecap:round;stroke-linejoin:round;stroke-miterlimit:10;" d="M518.943,60.869
				c-1.594,12.181-14.276,30.119-23.02,28.975c-7.274-0.952-16.384-21.742-14.79-33.923c1.594-12.181,11.35-20.948,21.791-19.582
				C513.365,37.705,520.537,48.688,518.943,60.869z"/>
			<polyline style="fill:#92E3A9;stroke:#263238;stroke-linecap:round;stroke-linejoin:round;stroke-miterlimit:10;" points="
				495.312,90.358 494.918,94.796 498.717,94.358 495.922,89.844 			"/>
			<path style="fill:#FFFFFF;" d="M515.264,46.927c1.785,3.643,1.208,7.588-1.29,8.812c-2.498,1.224-5.97-0.736-7.755-4.379
				c-1.785-3.643-1.207-7.588,1.29-8.812C510.007,41.324,513.479,43.284,515.264,46.927z"/>
			<path style="fill:#FFFFFF;" d="M505.662,40.968c-0.246,0.728-1.35,1.012-2.466,0.634c-1.116-0.377-1.821-1.273-1.575-2.001
				c0.246-0.728,1.35-1.012,2.466-0.634C505.203,39.344,505.908,40.24,505.662,40.968z"/>
		</g>
	</g>
	<g>
		<g>
			<path style="fill:#92E3A9;stroke:#263238;stroke-linecap:round;stroke-linejoin:round;stroke-miterlimit:10;" d="M709.726,301.14
				c8.897,8.471,15.905,29.292,9.825,35.679c-5.059,5.313-27.221,0.409-36.118-8.062c-8.897-8.471-10.224-21.52-2.963-29.147
				C687.73,291.985,700.829,292.669,709.726,301.14z"/>
			<polyline style="fill:#92E3A9;stroke:#263238;stroke-linecap:round;stroke-linejoin:round;stroke-miterlimit:10;" points="
				719.606,337.615 722.958,340.551 724.845,337.224 719.551,336.819 			"/>
			<path style="fill:#FFFFFF;" d="M696.298,295.889c3.994,0.706,6.84,3.5,6.356,6.239c-0.484,2.739-4.115,4.387-8.11,3.681
				c-3.995-0.707-6.84-3.5-6.356-6.239C688.672,296.831,692.303,295.183,696.298,295.889z"/>
			<path style="fill:#FFFFFF;" d="M685.823,300.129c0.443,0.628,0.021,1.687-0.942,2.366c-0.963,0.679-2.102,0.72-2.545,0.092
				c-0.443-0.628-0.021-1.687,0.942-2.366C684.241,299.542,685.38,299.501,685.823,300.129z"/>
		</g>
	</g>
	<g>
		<g>
			<path style="fill:#263238;stroke:#263238;stroke-linecap:round;stroke-linejoin:round;stroke-miterlimit:10;" d="M558.335,123.42
				c10.192,6.859,20.592,26.21,15.669,33.526c-4.096,6.086-26.767,4.969-36.958-1.89c-10.192-6.859-13.688-19.501-7.809-28.237
				C535.115,118.083,548.143,116.561,558.335,123.42z"/>
			<polyline style="fill:#92E3A9;stroke:#263238;stroke-linecap:round;stroke-linejoin:round;stroke-miterlimit:10;" points="
				574.192,157.721 577.989,160.053 579.291,156.457 574.004,156.946 			"/>
			<path style="fill:#FFFFFF;" d="M544.216,120.495c4.056,0.026,7.33,2.303,7.312,5.084c-0.018,2.781-3.321,5.015-7.378,4.988
				c-4.057-0.027-7.33-2.303-7.312-5.084C536.856,122.702,540.159,120.469,544.216,120.495z"/>
			<path style="fill:#FFFFFF;" d="M534.6,126.432c0.542,0.545,0.303,1.66-0.532,2.491c-0.836,0.83-1.952,1.062-2.494,0.517
				c-0.542-0.545-0.303-1.66,0.532-2.49C532.942,126.119,534.059,125.887,534.6,126.432z"/>
		</g>
	</g>
	<g>
		<g>
			<path style="fill:#263238;stroke:#263238;stroke-linecap:round;stroke-linejoin:round;stroke-miterlimit:10;" d="M669.414,71.172
				c-1.975,12.125-15.213,29.657-23.917,28.24c-7.241-1.179-15.694-22.245-13.719-34.37c1.975-12.125,12.001-20.582,22.394-18.889
				C664.565,47.845,671.389,59.047,669.414,71.172z"/>
			<polyline style="fill:#92E3A9;stroke:#263238;stroke-linecap:round;stroke-linejoin:round;stroke-miterlimit:10;" points="
				644.871,99.906 644.338,104.33 648.149,104.011 645.497,99.411 			"/>
			<path style="fill:#FFFFFF;" d="M666.174,57.122c1.67,3.697,0.969,7.622-1.566,8.767s-5.944-0.923-7.614-4.62
				c-1.67-3.697-0.969-7.622,1.566-8.767C661.095,51.356,664.503,53.425,666.174,57.122z"/>
			<path style="fill:#FFFFFF;" d="M656.764,50.865c-0.269,0.72-1.382,0.969-2.485,0.557c-1.104-0.412-1.78-1.33-1.511-2.05
				c0.269-0.72,1.381-0.969,2.485-0.557S657.032,50.145,656.764,50.865z"/>
		</g>
	</g>
	<g>
		<g>
			<path style="fill:#263238;stroke:#263238;stroke-linecap:round;stroke-linejoin:round;stroke-miterlimit:10;" d="
				M705.152,248.342c-5.521,10.974-23.408,23.728-31.286,19.765c-6.554-3.297-8.299-25.928-2.778-36.902
				c5.521-10.974,17.622-16.035,27.029-11.302S710.673,237.368,705.152,248.342z"/>
			<polyline style="fill:#92E3A9;stroke:#263238;stroke-linecap:round;stroke-linejoin:round;stroke-miterlimit:10;" points="
				673.12,268.391 671.285,272.452 675.016,273.29 673.866,268.107 			"/>
			<path style="fill:#FFFFFF;" d="M706.276,233.967c0.484,4.027-1.362,7.562-4.123,7.894c-2.762,0.332-5.393-2.664-5.878-6.691
				c-0.484-4.028,1.362-7.562,4.124-7.894C703.16,226.944,705.791,229.939,706.276,233.967z"/>
			<path style="fill:#FFFFFF;" d="M699.176,225.176c-0.472,0.606-1.609,0.51-2.538-0.214c-0.929-0.724-1.299-1.803-0.827-2.409
				c0.472-0.606,1.609-0.51,2.538,0.214C699.278,223.491,699.648,224.57,699.176,225.176z"/>
		</g>
	</g>
</g>
<g id="Balloons_1">
	<g>
		<g>
			<g>
				<path style="fill:#263238;stroke:#263238;stroke-linecap:round;stroke-linejoin:round;stroke-miterlimit:10;" d="
					M131.138,55.328c-2.714,11.981-17.001,28.67-25.601,26.722c-7.155-1.62-14.303-23.164-11.589-35.145
					s13.239-19.809,23.509-17.483C127.726,31.748,133.852,43.347,131.138,55.328z"/>
				<polyline style="fill:#263238;stroke:#263238;stroke-linecap:round;stroke-linejoin:round;stroke-miterlimit:10;" points="
					105.537,82.05 107.902,86.803 104.079,86.889 104.882,82.506 				"/>
				<path style="fill:#FFFFFF;" d="M128.764,41.106c1.441,3.792,0.501,7.667-2.1,8.655c-2.6,0.988-5.876-1.285-7.317-5.077
					c-1.441-3.792-0.501-7.667,2.1-8.655C124.048,35.041,127.324,37.314,128.764,41.106z"/>
				<path style="fill:#FFFFFF;" d="M119.755,34.285c-0.312,0.702-1.438,0.882-2.515,0.403c-1.076-0.479-1.695-1.437-1.383-2.138
					c0.312-0.702,1.438-0.883,2.515-0.404C119.448,32.625,120.067,33.583,119.755,34.285z"/>
			</g>
		</g>
		<polyline style="fill:none;stroke:#263238;stroke-linecap:round;stroke-linejoin:round;stroke-miterlimit:10;" points="
			78.616,239.98 84.933,172.824 50.829,83.407 		"/>
		<polyline style="fill:none;stroke:#263238;stroke-linecap:round;stroke-linejoin:round;stroke-miterlimit:10;" points="
			80.774,80.912 84.933,172.824 101.153,93.389 		"/>
		<polyline style="fill:none;stroke:#263238;stroke-linecap:round;stroke-linejoin:round;stroke-miterlimit:10;" points="
			136.504,96.3 84.933,172.824 110.218,79.281 		"/>
		<g>
			<g>
				<path style="fill:#92E3A9;stroke:#263238;stroke-linecap:round;stroke-linejoin:round;stroke-miterlimit:10;" d="
					M161.041,89.802c-6.184,10.615-24.821,22.246-32.441,17.807c-6.339-3.693-6.691-26.389-0.507-37.003
					c6.185-10.615,18.574-14.922,27.672-9.621C164.864,66.285,167.226,79.188,161.041,89.802z"/>
				<polyline style="fill:#92E3A9;stroke:#263238;stroke-linecap:round;stroke-linejoin:round;stroke-miterlimit:10;" points="
					127.839,107.847 125.758,111.787 129.43,112.853 128.6,107.609 				"/>
				<path style="fill:#FFFFFF;" d="M163.046,75.523c0.236,4.05-1.824,7.464-4.6,7.626c-2.777,0.162-5.22-2.99-5.456-7.039
					c-0.236-4.05,1.824-7.464,4.6-7.626C160.367,68.322,162.809,71.474,163.046,75.523z"/>
				<path style="fill:#FFFFFF;" d="M156.499,66.312c-0.509,0.576-1.637,0.41-2.52-0.37c-0.883-0.78-1.186-1.879-0.677-2.455
					c0.509-0.576,1.637-0.41,2.52,0.37C156.704,64.637,157.008,65.737,156.499,66.312z"/>
			</g>
		</g>
		<g>
			<g>
				<path style="fill:#92E3A9;stroke:#263238;stroke-linecap:round;stroke-linejoin:round;stroke-miterlimit:10;" d="
					M100.379,83.093c0.168,12.284-9.812,31.855-18.629,31.976c-7.335,0.101-19.331-19.169-19.499-31.453
					c-0.168-12.284,8.23-22.359,18.759-22.503C91.538,60.968,100.21,70.809,100.379,83.093z"/>
				<polyline style="fill:#92E3A9;stroke:#263238;stroke-linecap:round;stroke-linejoin:round;stroke-miterlimit:10;" points="
					81.219,115.665 81.465,120.114 85.162,119.135 81.749,115.068 				"/>
				<path style="fill:#FFFFFF;" d="M94.739,69.822c2.289,3.349,2.283,7.336-0.014,8.906c-2.297,1.569-6.014,0.127-8.303-3.222
					c-2.289-3.349-2.283-7.336,0.014-8.906C88.733,65.031,92.451,66.473,94.739,69.822z"/>
				<path style="fill:#FFFFFF;" d="M84.383,65.301c-0.139,0.756-1.191,1.195-2.35,0.981c-1.159-0.214-1.985-0.999-1.845-1.755
					c0.139-0.756,1.191-1.195,2.35-0.981C83.696,63.76,84.522,64.546,84.383,65.301z"/>
			</g>
		</g>
		<g>
			<g>
				<path style="fill:#263238;stroke:#263238;stroke-linecap:round;stroke-linejoin:round;stroke-miterlimit:10;" d="M88.318,46.494
					c0.168,12.284-9.812,31.855-18.629,31.976c-7.335,0.101-19.331-19.169-19.499-31.453c-0.168-12.284,8.23-22.359,18.759-22.503
					C79.477,24.37,88.149,34.21,88.318,46.494z"/>
				<polyline style="fill:#263238;stroke:#263238;stroke-linecap:round;stroke-linejoin:round;stroke-miterlimit:10;" points="
					69.688,78.47 73.101,82.537 69.405,83.515 69.158,79.066 				"/>
				<path style="fill:#FFFFFF;" d="M82.678,33.224c2.289,3.349,2.283,7.337-0.014,8.906c-2.297,1.57-6.014,0.127-8.303-3.222
					c-2.289-3.349-2.283-7.336,0.014-8.906C76.672,28.432,80.39,29.875,82.678,33.224z"/>
				<path style="fill:#FFFFFF;" d="M72.322,28.703c-0.139,0.755-1.192,1.195-2.35,0.981c-1.159-0.214-1.985-0.999-1.845-1.755
					c0.139-0.756,1.191-1.195,2.35-0.981C71.635,27.161,72.461,27.947,72.322,28.703z"/>
			</g>
		</g>
		<g>
			<g>
				<path style="fill:#263238;stroke:#263238;stroke-linecap:round;stroke-linejoin:round;stroke-miterlimit:10;" d="
					M119.909,98.581c-2.714,11.981-17.001,28.67-25.601,26.722c-7.155-1.62-14.303-23.164-11.589-35.145
					c2.714-11.981,13.239-19.809,23.509-17.483C116.497,75.001,122.623,86.6,119.909,98.581z"/>
				<polyline style="fill:#263238;stroke:#263238;stroke-linecap:round;stroke-linejoin:round;stroke-miterlimit:10;" points="
					94.308,125.303 96.673,130.057 92.85,130.141 93.652,125.759 				"/>
				<path style="fill:#FFFFFF;" d="M117.535,84.359c1.441,3.792,0.501,7.667-2.1,8.655c-2.6,0.988-5.876-1.285-7.317-5.077
					c-1.441-3.792-0.5-7.667,2.1-8.655C112.819,78.294,116.095,80.567,117.535,84.359z"/>
				<path style="fill:#FFFFFF;" d="M108.526,77.537c-0.313,0.702-1.438,0.882-2.515,0.404c-1.076-0.479-1.695-1.436-1.383-2.138
					c0.313-0.702,1.438-0.883,2.515-0.404C108.219,75.878,108.838,76.836,108.526,77.537z"/>
			</g>
		</g>
		<g>
			<g>
				<path style="fill:#92E3A9;stroke:#263238;stroke-linecap:round;stroke-linejoin:round;stroke-miterlimit:10;" d="M58.248,59.882
					c5.248,11.108,4.283,33.055-3.691,36.822c-6.633,3.134-25.54-9.426-30.787-20.534c-5.247-11.108-1.783-23.758,7.738-28.257
					C41.028,43.416,53,48.774,58.248,59.882z"/>
				<polyline style="fill:#92E3A9;stroke:#263238;stroke-linecap:round;stroke-linejoin:round;stroke-miterlimit:10;" points="
					54.322,97.466 56.391,101.412 59.349,98.989 54.557,96.704 				"/>
				<path style="fill:#FFFFFF;" d="M47.613,50.145c3.472,2.098,5.12,5.729,3.681,8.11c-1.439,2.381-5.42,2.61-8.891,0.511
					c-3.472-2.098-5.12-5.729-3.681-8.11C40.16,48.275,44.141,48.046,47.613,50.145z"/>
				<path style="fill:#FFFFFF;" d="M36.314,50.326c0.187,0.745-0.589,1.581-1.731,1.868c-1.143,0.286-2.221-0.086-2.407-0.832
					c-0.187-0.745,0.589-1.581,1.731-1.867C35.05,49.208,36.127,49.58,36.314,50.326z"/>
			</g>
		</g>
		
			<line style="fill:none;stroke:#263238;stroke-linecap:round;stroke-linejoin:round;stroke-miterlimit:10;" x1="69.545" y1="74.257" x2="84.933" y2="172.824"/>
	</g>
</g>
</svg>
