<?xml version="1.0" encoding="utf-8"?>
<!-- Generator: Adobe Illustrator 27.5.0, SVG Export Plug-In . SVG Version: 6.00 Build 0)  -->
<svg version="1.1" xmlns="http://www.w3.org/2000/svg" xmlns:xlink="http://www.w3.org/1999/xlink" x="0px" y="0px"
	 viewBox="0 0 500 500" style="enable-background:new 0 0 500 500;" xml:space="preserve">
<g id="Background_Simple">
	<g>
		<path style="fill:#92E3A9;" d="M157.844,19.545c-29.924,12.919-52.579,34.571-73.506,59.507
			c-18.644,22.216-34.003,47.098-46.16,73.407c-12.21,26.423-19.086,58.562-1.072,84.036c11.164,15.788,27.706,22.94,43.096,33.445
			c2.84,1.938,6.822,3.923,6.793,7.785c-0.044,5.867-10.798,12.116-14.492,15.465c-9.115,8.263-17.938,16.903-25.528,26.613
			c-11.112,14.216-19.587,31.029-21.172,49.003c-1.726,19.576,4.936,39.334,16.17,55.459c16.348,23.467,42.241,41.754,69.327,50.598
			c14.481,4.728,29.836,6.142,45.004,5.664c15.333-0.484,30.735-2.623,45.655-6.17c23.125-5.497,47.229-14.261,71.238-9.038
			c25.741,5.6,50.877,12.23,76.988,16.178c33.518,5.068,81.588,11.529,108.966-13.127c19.67-17.714,28.863-46.319,31.324-71.929
			c1.459-15.182,1.176-32.277-3.89-46.849c-6.858-19.729-19.354-37.892-29.19-56.218c-6.074-11.318-11.438-23.344-13.592-36.09
			c-2.376-14.058,1.844-23.205,8.697-35.313c24.474-43.237,44.481-105.509,18.495-152.284
			c-8.161-14.689-23.953-21.539-40.494-22.097c-14.503-0.489-28.776,3.592-42.378,8.645c-25.572,9.499-66.021,33.723-93.034,17.543
			c-15.581-9.333-21.533-28.699-32.492-42.292c-11.789-14.622-29.95-22.056-48.441-23.062
			C195.283,7.398,175.135,12.079,157.844,19.545z"/>
		<path style="opacity:0.7;fill:#FFFFFF;" d="M157.844,19.545c-29.924,12.919-52.579,34.571-73.506,59.507
			c-18.644,22.216-34.003,47.098-46.16,73.407c-12.21,26.423-19.086,58.562-1.072,84.036c11.164,15.788,27.706,22.94,43.096,33.445
			c2.84,1.938,6.822,3.923,6.793,7.785c-0.044,5.867-10.798,12.116-14.492,15.465c-9.115,8.263-17.938,16.903-25.528,26.613
			c-11.112,14.216-19.587,31.029-21.172,49.003c-1.726,19.576,4.936,39.334,16.17,55.459c16.348,23.467,42.241,41.754,69.327,50.598
			c14.481,4.728,29.836,6.142,45.004,5.664c15.333-0.484,30.735-2.623,45.655-6.17c23.125-5.497,47.229-14.261,71.238-9.038
			c25.741,5.6,50.877,12.23,76.988,16.178c33.518,5.068,81.588,11.529,108.966-13.127c19.67-17.714,28.863-46.319,31.324-71.929
			c1.459-15.182,1.176-32.277-3.89-46.849c-6.858-19.729-19.354-37.892-29.19-56.218c-6.074-11.318-11.438-23.344-13.592-36.09
			c-2.376-14.058,1.844-23.205,8.697-35.313c24.474-43.237,44.481-105.509,18.495-152.284
			c-8.161-14.689-23.953-21.539-40.494-22.097c-14.503-0.489-28.776,3.592-42.378,8.645c-25.572,9.499-66.021,33.723-93.034,17.543
			c-15.581-9.333-21.533-28.699-32.492-42.292c-11.789-14.622-29.95-22.056-48.441-23.062
			C195.283,7.398,175.135,12.079,157.844,19.545z"/>
	</g>
</g>
<g id="Shadow">
	<ellipse style="fill:#263238;stroke:#263238;stroke-miterlimit:10;" cx="277.21" cy="441.291" rx="123.595" ry="14.92"/>
</g>
<g id="Lines">
	<g>
		<g>
			<g>
				
					<rect x="276.84" y="123.268" transform="matrix(0.9351 0.3543 -0.3543 0.9351 66.9894 -89.5562)" style="fill:#263238;stroke:#263238;stroke-miterlimit:10;" width="2.459" height="29.8"/>
				<path style="fill:#263238;stroke:#263238;stroke-miterlimit:10;" d="M289.467,128.23l-13.846-5.246
					c-0.985-0.373-1.48-1.474-1.107-2.458l1.613-4.257c0.373-0.985,1.474-1.48,2.458-1.107l13.846,5.246
					c0.985,0.373,1.48,1.474,1.107,2.458l-1.613,4.257C291.552,128.107,290.452,128.603,289.467,128.23z"/>
			</g>
			<line style="fill:none;stroke:#263238;stroke-miterlimit:10;" x1="301.204" y1="101.272" x2="293.028" y2="113.806"/>
			<line style="fill:none;stroke:#263238;stroke-miterlimit:10;" x1="297.317" y1="98.195" x2="289.141" y2="110.729"/>
			<g>
				<line style="fill:none;stroke:#263238;stroke-miterlimit:10;" x1="404.695" y1="165.101" x2="395.215" y2="182.852"/>
				<line style="fill:none;stroke:#263238;stroke-miterlimit:10;" x1="408.96" y1="168.218" x2="399.48" y2="185.968"/>
			</g>
			<g>
				<line style="fill:none;stroke:#263238;stroke-miterlimit:10;" x1="269.253" y1="116.493" x2="261.166" y2="98.067"/>
				<line style="fill:none;stroke:#263238;stroke-miterlimit:10;" x1="264.167" y1="117.918" x2="256.079" y2="99.491"/>
			</g>
			<g>
				<line style="fill:none;stroke:#263238;stroke-miterlimit:10;" x1="143.873" y1="155.02" x2="141.331" y2="135.058"/>
				<line style="fill:none;stroke:#263238;stroke-miterlimit:10;" x1="138.591" y1="154.947" x2="136.049" y2="134.985"/>
			</g>
		</g>
		<g>
			<path style="fill:none;stroke:#263238;stroke-miterlimit:10;" d="M401.136,382.591c17.021-23.426,28.133-50.976,31.248-81.109
				c2.017-19.52,0.528-38.665-3.998-56.909"/>
			<path style="fill:none;stroke:#263238;stroke-miterlimit:10;" d="M393.486,392.373c1.756-2.09,3.463-4.219,5.118-6.384"/>
			<path style="fill:none;stroke:#263238;stroke-miterlimit:10;" d="M415.087,257.746c-0.675-3.823-1.495-7.609-2.453-11.353"/>
			<path style="fill:none;stroke:#263238;stroke-miterlimit:10;" d="M394.994,363.733c11.618-19.066,19.195-40.639,21.597-63.884
				c1.215-11.761,1.047-23.373-0.384-34.702"/>
			<path style="fill:none;stroke:#263238;stroke-miterlimit:10;" d="M368.209,396.86c8.983-8.563,16.957-18.048,23.734-28.317"/>
		</g>
		<g>
			<path style="fill:none;stroke:#263238;stroke-miterlimit:10;" d="M93.461,212.781c-5.434,13.264-9.087,27.518-10.635,42.499
				c-2.179,21.087,0.018,41.618,5.858,60.689"/>
			<path style="fill:none;stroke:#263238;stroke-miterlimit:10;" d="M103.428,192.776c-2.777,4.68-5.315,9.526-7.595,14.525"/>
			<path style="fill:none;stroke:#263238;stroke-miterlimit:10;" d="M95.566,289.912c0.696,5.205,1.68,10.331,2.935,15.359"/>
			<path style="fill:none;stroke:#263238;stroke-miterlimit:10;" d="M107.465,211.512c-6.438,13.85-10.722,28.989-12.38,45.034
				c-0.919,8.892-0.992,17.677-0.284,26.275"/>
		</g>
	</g>
</g>
<g id="Clock">
	<g>
		<g>
			<path style="fill:#263238;" d="M189.583,108.213c-0.95-0.098-1.816-0.706-2.197-1.655c-0.548-1.363,0.113-2.913,1.476-3.461
				c8.935-3.592,26.88-11.002,30.841-13.335c2.635-1.552,5.432-11.87,7.283-18.698c1.09-4.021,2.119-7.818,3.213-10.793
				c3.859-10.5,8.965-15.228,30.614-17.327c5.392-0.523,11.065-0.757,16.859-0.698c0.075,0.001,0.15,0.005,0.225,0.012l20.324,1.94
				c0.08,0.004,0.157,0.019,0.236,0.033c6.342,1.187,12.463,2.695,18.192,4.484c20.762,6.482,24.794,12.154,26.423,23.221
				c0.676,4.593-0.249,10.554-1.143,16.318c-0.741,4.769-1.978,12.751-0.509,14.087c3.4,3.094,19.449,14.017,27.461,19.361
				c1.223,0.815,1.552,2.467,0.737,3.69c-0.815,1.223-2.468,1.551-3.689,0.737c-0.96-0.64-23.547-15.719-28.089-19.852
				c-3.585-3.26-2.465-10.479-1.168-18.839c0.834-5.374,1.696-10.93,1.138-14.727c-1.164-7.91-2.794-12.689-22.744-18.917
				c-5.495-1.715-11.371-3.165-17.468-4.31l-20.092-1.918c-5.566-0.053-11.009,0.173-16.179,0.674
				c-20.801,2.017-23.375,6.361-26.132,13.866c-1.013,2.757-2.013,6.445-3.072,10.35c-3.15,11.621-5.528,19.423-9.718,21.89
				c-5.292,3.117-30.486,13.257-31.556,13.687C190.431,108.202,189.999,108.256,189.583,108.213z"/>
		</g>
		<g>
			<g>
				
					<ellipse transform="matrix(0.9698 -0.2438 0.2438 0.9698 -27.3859 54.1857)" style="fill:#92E3A9;" cx="205.193" cy="137.72" rx="56.894" ry="21.576"/>
				
					<ellipse transform="matrix(0.9698 -0.2438 0.2438 0.9698 -27.3859 54.1857)" style="opacity:0.29;" cx="205.193" cy="137.72" rx="56.894" ry="21.576"/>
				
					<ellipse transform="matrix(0.9698 -0.2438 0.2438 0.9698 -27.3859 54.1857)" style="fill:none;stroke:#263238;stroke-miterlimit:10;" cx="205.193" cy="137.72" rx="56.894" ry="21.576"/>
			</g>
			<path style="fill:#263238;stroke:#263238;stroke-miterlimit:10;" d="M214.191,162.243l-8.973,2.426L189.852,95.39
				c-0.517-1.911,0.614-3.879,2.525-4.396l2.052-0.555c1.911-0.517,3.879,0.614,4.396,2.525L214.191,162.243z"/>
			<g>
				<path style="fill:#92E3A9;stroke:#263238;stroke-miterlimit:10;" d="M150.016,151.591
					c-2.905-11.556,19.443-27.135,49.916-34.796c30.473-7.661,57.532-4.503,60.438,7.053c0.303,1.205,0.316,2.455,0.089,3.733
					c0.421-1.232,0.698-2.463,0.613-3.442c-0.276-3.16-2.59-9.903-8.035-17.813c-5.446-7.91-11.294-9.599-11.294-9.599l-2.353-0.729
					c-9.688-4.126-25.736-4.496-42.913-0.178c-14.566,3.662-26.827,9.911-34.234,16.736c-2.449,2.093-11.871,10.748-13.376,21.207
					c-1.733,12.04,0.742,20.129,3.826,22.609c0.06,0.048,0.215,0.054,0.411,0.04C151.53,155.019,150.473,153.41,150.016,151.591z"/>
				<g>
					<g>
						<path style="fill:#FFFFFF;" d="M165.627,118.197c-0.53-0.055-1.041-0.308-1.411-0.748c-0.756-0.9-0.64-2.243,0.26-2.998
							c6.599-5.545,17.536-12.871,32.162-16.282c1.146-0.268,2.289,0.444,2.556,1.59c0.267,1.145-0.445,2.289-1.59,2.556
							c-13.806,3.22-24.146,10.149-30.39,15.395C166.755,118.096,166.18,118.254,165.627,118.197z"/>
					</g>
					<g>
						<path style="fill:#FFFFFF;" d="M157.62,126.121c-0.386-0.04-0.765-0.186-1.093-0.442c-0.924-0.725-1.087-2.061-0.362-2.986
							c0.045-0.058,1.128-1.434,3.195-3.529c0.825-0.838,2.172-0.849,3.01-0.021c0.837,0.825,0.846,2.173,0.021,3.01
							c-1.878,1.904-2.866,3.155-2.876,3.167C159.046,125.916,158.322,126.194,157.62,126.121z"/>
					</g>
				</g>
			</g>
		</g>
		<g>
			
				<ellipse transform="matrix(0.1028 -0.9947 0.9947 0.1028 -62.3526 471.7124)" style="fill:#FFFFFF;stroke:#263238;stroke-miterlimit:10;" cx="230.317" cy="270.421" rx="113.473" ry="110.659"/>
			<path style="fill:#A6A6A6;stroke:#263238;stroke-miterlimit:10;" d="M284.215,152.024l-39.453-5.58l-2.304,6.126
				c-56.736,10.027-102.463,57.283-108.77,118.311c-7.599,73.526,44.895,139.193,117.249,146.671
				c72.354,7.478,137.169-46.064,144.769-119.59C403.103,226.402,353.573,162.296,284.215,152.024z"/>
			<path style="fill:#A6A6A6;stroke:#263238;stroke-miterlimit:10;" d="M278.112,149.99l-30.844-3.158l-10.912,3.705
				c-56.736,10.027-102.463,57.283-108.77,118.311c-7.599,73.526,44.895,139.193,117.249,146.671
				c72.354,7.478,137.17-46.064,144.769-119.59C396.999,224.368,347.469,160.262,278.112,149.99z"/>
			<path style="fill:#263238;stroke:#263238;stroke-miterlimit:10;" d="M297.637,154.443c44.414,25.238,72.111,75.65,66.449,130.429
				c-7.599,73.526-72.414,127.068-144.769,119.59c-8.732-0.902-17.172-2.66-25.255-5.169c15.192,8.629,32.335,14.32,50.771,16.226
				c72.354,7.478,137.169-46.064,144.769-119.59C396.284,231.287,356.512,172.733,297.637,154.443z"/>
			<path style="fill:#92E3A9;stroke:#263238;stroke-miterlimit:10;" d="M272.978,384.528l1.08,3.173l12.245,35.99l12.414,20.835
				c0.948,1.591,2.918,2.246,4.63,1.541l0,0c1.684-0.694,2.622-2.503,2.218-4.279l-5.868-25.833l-15.355-36.333"/>
			<path style="fill:#92E3A9;stroke:#263238;stroke-miterlimit:10;" d="M161.002,359.701l-2.191,2.537l-24.852,28.768
				l-19.324,14.656c-1.475,1.119-3.548,0.988-4.87-0.309l0,0c-1.301-1.275-1.492-3.303-0.451-4.799l15.13-21.745l27.863-27.92"/>
			
				<ellipse transform="matrix(0.1028 -0.9947 0.9947 0.1028 -61.1777 473.5521)" style="fill:#92E3A9;stroke:#263238;stroke-miterlimit:10;" cx="231.921" cy="270.689" rx="124.908" ry="121.81"/>
			
				<ellipse transform="matrix(0.1028 -0.9947 0.9947 0.1028 -61.1786 473.5507)" style="fill:#FFFFFF;stroke:#263238;stroke-miterlimit:10;" cx="231.921" cy="270.689" rx="112.311" ry="109.526"/>
			<g>
				<polygon style="fill:#92E3A9;stroke:#263238;stroke-miterlimit:10;" points="230.268,266.543 236.827,212.226 233.824,266.426 
									"/>
				<polygon style="fill:#92E3A9;stroke:#263238;stroke-miterlimit:10;" points="229.119,273.273 147.474,307.997 230.03,267.77 
									"/>
				<path style="fill:#263238;stroke:#263238;stroke-miterlimit:10;" d="M236.649,271.178c-0.277,2.677-2.618,4.629-5.229,4.359
					c-2.611-0.27-4.503-2.659-4.226-5.336c0.277-2.677,2.618-4.629,5.228-4.359C235.033,266.112,236.926,268.501,236.649,271.178z"
					/>
			</g>
			<g>
				<g>
					<line style="fill:none;stroke:#263238;stroke-miterlimit:10;" x1="338.45" y1="281.705" x2="332.147" y2="281.053"/>
					<line style="fill:none;stroke:#263238;stroke-miterlimit:10;" x1="131.704" y1="260.336" x2="125.4" y2="259.685"/>
				</g>
				<g>
					<line style="fill:none;stroke:#263238;stroke-miterlimit:10;" x1="332.18" y1="231.424" x2="326.235" y2="233.757"/>
					<line style="fill:none;stroke:#263238;stroke-miterlimit:10;" x1="137.617" y1="307.618" x2="131.672" y2="309.951"/>
				</g>
				<g>
					<line style="fill:none;stroke:#263238;stroke-miterlimit:10;" x1="295.511" y1="181.982" x2="291.737" y2="187.244"/>
					<line style="fill:none;stroke:#263238;stroke-miterlimit:10;" x1="172.1" y1="354.129" x2="168.326" y2="359.391"/>
				</g>
				<g>
					<line style="fill:none;stroke:#263238;stroke-miterlimit:10;" x1="147.164" y1="215.249" x2="141.822" y2="211.75"/>
					<line style="fill:none;stroke:#263238;stroke-miterlimit:10;" x1="322.03" y1="329.625" x2="316.688" y2="326.126"/>
				</g>
				<g>
					<line style="fill:none;stroke:#263238;stroke-miterlimit:10;" x1="190.431" y1="176.773" x2="187.813" y2="170.851"/>
					<line style="fill:none;stroke:#263238;stroke-miterlimit:10;" x1="276.024" y1="370.522" x2="273.406" y2="364.6"/>
				</g>
				<g>
					<line style="fill:none;stroke:#263238;stroke-miterlimit:10;" x1="242.549" y1="167.91" x2="243.215" y2="161.461"/>
					<line style="fill:none;stroke:#263238;stroke-miterlimit:10;" x1="220.635" y1="379.929" x2="221.303" y2="373.465"/>
				</g>
			</g>
		</g>
		<g>
			<path style="fill:#263238;stroke:#263238;stroke-miterlimit:10;" d="M325.763,174.556L325.763,174.556
				c1.523,0.929,3.508,0.486,4.491-1.003l36.675-55.508l-5.663-3.454l-36.543,55.308
				C323.688,171.466,324.16,173.579,325.763,174.556z"/>
			<g>
				<path style="fill:#92E3A9;stroke:#263238;stroke-miterlimit:10;" d="M293.266,127.083l93.696,57.143l10.709-18.226
					c4.701-7.475,2.333-17.304-5.288-21.951l-66.099-40.312c-7.621-4.648-17.61-2.355-22.31,5.12L293.266,127.083z"/>
				<g>
					<path style="fill:#FFFFFF;" d="M375.538,151.51c-0.299-0.031-0.596-0.126-0.871-0.29l-50.845-30.34
						c-1.01-0.603-1.34-1.909-0.737-2.919c0.602-1.01,1.909-1.339,2.918-0.738l50.845,30.34c1.01,0.603,1.34,1.909,0.737,2.919
						C377.147,151.217,376.336,151.592,375.538,151.51z"/>
				</g>
				<g>
					<path style="fill:#FFFFFF;" d="M317.198,116.697c-0.299-0.031-0.596-0.126-0.871-0.29l-7.178-4.283
						c-1.01-0.603-1.34-1.909-0.737-2.919c0.603-1.009,1.911-1.337,2.919-0.737l7.178,4.283c1.01,0.603,1.34,1.909,0.737,2.918
						C318.807,116.405,317.996,116.78,317.198,116.697z"/>
				</g>
			</g>
		</g>
	</g>
</g>
<g id="Text">
	<g>
		<g>
			<path style="fill:#263238;" d="M232.412,189.788l1.521-14.716c-0.173,0.074-0.367,0.147-0.584,0.216
				c-0.219,0.07-0.446,0.142-0.687,0.218c-0.241,0.075-0.472,0.147-0.697,0.216c-0.226,0.069-0.431,0.14-0.618,0.213l0.292-2.829
				c0.173-0.075,0.415-0.177,0.729-0.305c0.313-0.129,0.65-0.275,1.012-0.438c0.361-0.162,0.701-0.331,1.019-0.506
				c0.319-0.174,0.559-0.33,0.724-0.467l2.915,0.301l-1.91,18.48L232.412,189.788z"/>
			<path style="fill:#263238;" d="M239.02,190.471l0.278-2.692l5.02-6.352c0.377-0.468,0.735-0.923,1.074-1.365
				c0.338-0.441,0.624-0.896,0.86-1.364c0.235-0.467,0.381-0.967,0.436-1.5c0.055-0.532-0.007-0.938-0.188-1.218
				c-0.182-0.281-0.449-0.439-0.806-0.476c-0.401-0.041-0.723,0.041-0.97,0.245c-0.245,0.205-0.43,0.494-0.549,0.866
				c-0.122,0.372-0.206,0.793-0.255,1.265l-0.094,0.912l-3.605-0.372l0.102-0.981c0.113-1.095,0.385-2.054,0.815-2.878
				c0.43-0.824,1.041-1.445,1.833-1.863c0.793-0.417,1.79-0.564,2.991-0.44c1.618,0.167,2.793,0.723,3.527,1.667
				c0.734,0.945,1.023,2.185,0.864,3.721c-0.077,0.745-0.265,1.426-0.56,2.041c-0.296,0.615-0.664,1.204-1.104,1.765
				c-0.441,0.562-0.91,1.148-1.408,1.757l-3.814,4.702l5.274,0.545l-0.309,2.989L239.02,190.471z"/>
		</g>
		<g>
			<path style="fill:#263238;" d="M283.287,207.645l1.521-14.716c-0.173,0.074-0.367,0.147-0.584,0.216
				c-0.218,0.069-0.446,0.142-0.686,0.217c-0.241,0.075-0.472,0.147-0.697,0.216c-0.226,0.069-0.431,0.14-0.618,0.213l0.292-2.829
				c0.173-0.075,0.415-0.177,0.729-0.305c0.313-0.129,0.651-0.275,1.012-0.438c0.361-0.162,0.701-0.331,1.019-0.506
				c0.319-0.174,0.559-0.33,0.724-0.467l2.915,0.301l-1.91,18.48L283.287,207.645z"/>
		</g>
		<g>
			<path style="fill:#263238;" d="M310.384,245.2l0.278-2.692l5.02-6.352c0.377-0.468,0.735-0.923,1.074-1.365
				c0.338-0.441,0.624-0.896,0.86-1.364c0.235-0.468,0.381-0.967,0.436-1.5c0.055-0.532-0.007-0.938-0.188-1.218
				c-0.182-0.281-0.449-0.439-0.806-0.476c-0.401-0.041-0.723,0.041-0.97,0.245c-0.245,0.205-0.43,0.494-0.549,0.866
				c-0.122,0.372-0.206,0.793-0.255,1.265l-0.094,0.912l-3.605-0.373l0.101-0.981c0.113-1.095,0.384-2.055,0.815-2.878
				c0.43-0.824,1.041-1.445,1.833-1.863c0.793-0.417,1.79-0.564,2.991-0.44c1.618,0.167,2.793,0.723,3.527,1.667
				c0.734,0.945,1.023,2.185,0.864,3.721c-0.077,0.746-0.265,1.426-0.56,2.041c-0.296,0.615-0.664,1.204-1.104,1.765
				c-0.441,0.562-0.91,1.148-1.408,1.757l-3.814,4.702l5.274,0.545l-0.309,2.989L310.384,245.2z"/>
		</g>
		<g>
			<path style="fill:#263238;" d="M322.469,288.045c-1.261-0.13-2.227-0.476-2.895-1.036c-0.67-0.561-1.112-1.295-1.325-2.201
				c-0.213-0.905-0.261-1.929-0.143-3.069l0.068-0.662l3.715,0.384c-0.002,0.015-0.01,0.099-0.026,0.251
				c-0.016,0.152-0.03,0.289-0.043,0.411c-0.063,0.608-0.077,1.106-0.042,1.494c0.035,0.388,0.14,0.68,0.315,0.875
				c0.174,0.194,0.432,0.309,0.773,0.345c0.341,0.035,0.606-0.029,0.796-0.194c0.189-0.164,0.333-0.426,0.43-0.786
				c0.098-0.359,0.175-0.812,0.232-1.36c0.094-0.912,0.043-1.621-0.152-2.125c-0.195-0.505-0.678-0.804-1.448-0.9
				c-0.014-0.001-0.096-0.01-0.245-0.025c-0.147-0.015-0.296-0.031-0.444-0.046l0.271-2.623c0.103,0.011,0.208,0.021,0.311,0.032
				c0.104,0.011,0.2,0.021,0.289,0.03c0.786,0.081,1.335-0.085,1.649-0.499c0.312-0.414,0.517-1.084,0.613-2.012
				c0.074-0.715,0.037-1.272-0.109-1.672c-0.146-0.399-0.471-0.625-0.975-0.677c-0.49-0.051-0.835,0.129-1.035,0.539
				c-0.199,0.41-0.334,0.949-0.403,1.618c-0.016,0.152-0.032,0.307-0.048,0.467c-0.017,0.16-0.033,0.324-0.051,0.49l-3.715-0.384
				l0.116-1.118c0.115-1.11,0.408-2.029,0.881-2.757c0.471-0.727,1.096-1.251,1.871-1.571c0.775-0.32,1.675-0.426,2.698-0.321
				c1.038,0.107,1.907,0.389,2.611,0.846c0.702,0.457,1.216,1.075,1.539,1.854c0.324,0.779,0.43,1.716,0.317,2.812
				c-0.112,1.079-0.42,1.962-0.926,2.648c-0.505,0.685-1.071,1.081-1.697,1.185c0.399,0.195,0.749,0.477,1.048,0.846
				c0.299,0.37,0.516,0.849,0.65,1.44c0.134,0.59,0.155,1.327,0.064,2.209c-0.116,1.126-0.378,2.105-0.787,2.939
				c-0.409,0.834-1.002,1.461-1.78,1.88C324.659,288.021,323.669,288.169,322.469,288.045z"/>
		</g>
		<g>
			<path style="fill:#263238;" d="M308.166,325.719l0.429-4.153l-5.54-0.573l0.29-2.807l5.885-11.036l4.316,0.446l-1.189,11.5
				l1.669,0.173l-0.292,2.829l-1.669-0.173l-0.429,4.153L308.166,325.719z M306.172,318.457l2.716,0.281l0.795-7.689
				L306.172,318.457z"/>
		</g>
		<g>
			<path style="fill:#263238;" d="M268.711,358.332c-1.32-0.136-2.293-0.479-2.918-1.027c-0.626-0.55-1.012-1.269-1.16-2.161
				c-0.148-0.891-0.163-1.907-0.045-3.047l3.583,0.37c-0.072,0.699-0.095,1.273-0.066,1.722c0.029,0.449,0.134,0.779,0.315,0.989
				c0.181,0.212,0.456,0.329,0.829,0.351c0.388,0.025,0.678-0.107,0.873-0.393c0.195-0.287,0.34-0.714,0.436-1.281
				c0.096-0.567,0.186-1.252,0.269-2.06c0.063-0.608,0.086-1.151,0.067-1.629c-0.017-0.478-0.113-0.869-0.284-1.17
				c-0.17-0.302-0.456-0.474-0.857-0.516c-0.371-0.038-0.69,0.067-0.954,0.317c-0.266,0.248-0.48,0.656-0.644,1.224l-3.204-0.331
				l1.435-10.62l8.41,0.869l-0.33,3.194l-5.428-0.561l-0.594,3.789c0.169-0.198,0.471-0.355,0.904-0.47
				c0.432-0.117,0.886-0.174,1.366-0.17c0.931-0.012,1.688,0.24,2.272,0.753c0.585,0.514,0.988,1.245,1.213,2.189
				c0.225,0.946,0.268,2.081,0.131,3.404c-0.102,0.989-0.255,1.892-0.459,2.709c-0.204,0.816-0.509,1.507-0.912,2.073
				c-0.403,0.565-0.948,0.982-1.635,1.248C270.635,358.362,269.764,358.441,268.711,358.332z"/>
		</g>
		<g>
			<path style="fill:#263238;" d="M223.497,368.093c-1.173-0.121-2.099-0.481-2.777-1.082c-0.68-0.6-1.144-1.375-1.39-2.323
				c-0.248-0.947-0.311-2.007-0.189-3.178l0.691-6.685c0.124-1.201,0.372-2.26,0.745-3.175c0.371-0.914,0.941-1.604,1.709-2.071
				c0.769-0.466,1.82-0.631,3.154-0.493c1.157,0.12,2.051,0.397,2.68,0.83c0.629,0.434,1.049,1.016,1.259,1.744
				c0.208,0.729,0.26,1.611,0.154,2.645c-0.006,0.062-0.009,0.118-0.006,0.173c0.002,0.053,0.001,0.104-0.004,0.149l-3.494-0.361
				c0.077-0.746,0.08-1.303,0.005-1.672c-0.075-0.368-0.364-0.579-0.868-0.631c-0.342-0.035-0.608,0.044-0.8,0.239
				c-0.194,0.195-0.347,0.556-0.46,1.083c-0.115,0.527-0.222,1.268-0.321,2.226l-0.17,1.643c0.212-0.302,0.527-0.518,0.945-0.651
				c0.418-0.134,0.88-0.182,1.387-0.145c0.952,0.067,1.69,0.366,2.212,0.896c0.522,0.532,0.867,1.217,1.035,2.056
				c0.169,0.839,0.201,1.761,0.098,2.765c-0.134,1.293-0.4,2.414-0.798,3.366c-0.399,0.95-0.982,1.663-1.75,2.137
				C225.773,368.052,224.757,368.223,223.497,368.093z M223.831,365.292c0.341,0.035,0.602-0.058,0.782-0.277
				c0.179-0.22,0.32-0.559,0.419-1.018c0.1-0.458,0.186-1.031,0.257-1.715c0.063-0.608,0.097-1.135,0.107-1.579
				c0.008-0.446-0.056-0.801-0.193-1.069c-0.137-0.268-0.399-0.423-0.784-0.462c-0.179-0.018-0.353,0.002-0.524,0.062
				c-0.171,0.059-0.321,0.139-0.452,0.241c-0.131,0.102-0.231,0.203-0.302,0.303l-0.311,3.012c-0.042,0.411-0.048,0.802-0.02,1.174
				c0.03,0.371,0.125,0.678,0.289,0.917C223.26,365.121,223.505,365.259,223.831,365.292z"/>
		</g>
		<g>
			<path style="fill:#263238;" d="M174.004,353.702l5.527-15.179l-4.917-0.508l0.299-2.898l8.543,0.883l-0.271,2.625l-5.554,15.452
				L174.004,353.702z"/>
		</g>
		<g>
			<path style="fill:#263238;" d="M146.553,311.689c-1.217-0.126-2.162-0.473-2.838-1.043c-0.676-0.568-1.124-1.308-1.345-2.215
				c-0.222-0.906-0.273-1.923-0.157-3.049c0.061-0.453,0.156-0.893,0.282-1.319c0.125-0.425,0.294-0.815,0.503-1.171
				c0.209-0.354,0.457-0.659,0.747-0.914c0.288-0.254,0.62-0.455,0.995-0.6c-0.425-0.397-0.78-0.946-1.067-1.644
				c-0.288-0.697-0.395-1.558-0.318-2.58c0.091-1.035,0.351-1.909,0.775-2.617c0.426-0.71,1.008-1.227,1.746-1.549
				c0.738-0.323,1.619-0.432,2.642-0.326c1.038,0.107,1.882,0.398,2.53,0.873c0.648,0.474,1.105,1.098,1.369,1.87
				c0.264,0.773,0.329,1.676,0.192,2.707c-0.121,1.033-0.386,1.862-0.797,2.489c-0.409,0.627-0.869,1.082-1.377,1.368
				c0.336,0.219,0.62,0.484,0.852,0.791c0.23,0.309,0.411,0.658,0.543,1.047c0.132,0.391,0.22,0.808,0.264,1.25
				c0.044,0.444,0.044,0.893-0.003,1.348c-0.088,1.129-0.336,2.115-0.745,2.956c-0.408,0.842-1.003,1.473-1.78,1.892
				C148.788,311.671,147.784,311.816,146.553,311.689z M146.842,308.884c0.401,0.042,0.706-0.081,0.915-0.367
				c0.21-0.285,0.358-0.635,0.446-1.05c0.088-0.412,0.15-0.795,0.186-1.144c0.063-0.471,0.092-0.928,0.086-1.375
				c-0.006-0.446-0.083-0.819-0.233-1.119c-0.148-0.3-0.423-0.471-0.824-0.512c-0.385-0.04-0.682,0.072-0.89,0.335
				c-0.207,0.263-0.358,0.608-0.454,1.036c-0.098,0.429-0.171,0.886-0.221,1.373c-0.036,0.349-0.053,0.739-0.053,1.17
				s0.078,0.803,0.233,1.119C146.186,308.666,146.458,308.844,146.842,308.884z M147.729,300.305
				c0.252,0.026,0.47-0.055,0.655-0.244c0.184-0.189,0.339-0.484,0.463-0.887c0.124-0.403,0.217-0.908,0.28-1.516
				c0.064-0.624,0.023-1.128-0.124-1.511c-0.148-0.385-0.407-0.595-0.778-0.634c-0.371-0.038-0.674,0.114-0.913,0.459
				c-0.238,0.343-0.389,0.82-0.451,1.428c-0.063,0.609-0.076,1.127-0.038,1.552c0.038,0.428,0.136,0.753,0.292,0.977
				C147.273,300.154,147.477,300.279,147.729,300.305z"/>
		</g>
		<g>
			<path style="fill:#263238;" d="M138.517,268.997c-1.158-0.12-2.051-0.397-2.68-0.831c-0.629-0.434-1.049-1.019-1.258-1.756
				c-0.209-0.736-0.259-1.621-0.152-2.656c0.005-0.045,0.01-0.095,0.015-0.148c0.005-0.053,0.011-0.103,0.015-0.148l3.47,0.359
				c-0.077,0.746-0.071,1.303,0.019,1.674c0.089,0.37,0.386,0.581,0.889,0.633c0.341,0.035,0.603-0.044,0.79-0.241
				c0.185-0.196,0.331-0.561,0.439-1.096c0.107-0.534,0.21-1.273,0.307-2.216l0.17-1.643c-0.225,0.3-0.543,0.513-0.954,0.639
				c-0.41,0.127-0.861,0.18-1.353,0.16c-0.952-0.083-1.69-0.406-2.217-0.967c-0.526-0.562-0.873-1.281-1.037-2.16
				c-0.164-0.877-0.194-1.819-0.09-2.822c0.134-1.293,0.408-2.391,0.824-3.293c0.416-0.903,1.014-1.575,1.794-2.017
				c0.781-0.442,1.771-0.601,2.973-0.477c1.185,0.123,2.118,0.465,2.795,1.027c0.676,0.562,1.136,1.297,1.379,2.206
				c0.243,0.909,0.304,1.956,0.182,3.143l-0.712,6.89c-0.124,1.202-0.372,2.26-0.745,3.174c-0.372,0.915-0.941,1.605-1.709,2.071
				C140.902,268.97,139.851,269.134,138.517,268.997z M139.603,258.917c0.296,0.031,0.543-0.028,0.737-0.177
				c0.195-0.148,0.353-0.294,0.472-0.435l0.311-3.012c0.044-0.426,0.056-0.82,0.033-1.184c-0.022-0.363-0.104-0.663-0.244-0.901
				c-0.14-0.237-0.381-0.374-0.722-0.409c-0.326-0.034-0.583,0.059-0.771,0.278c-0.188,0.219-0.331,0.558-0.432,1.016
				c-0.099,0.459-0.185,1.031-0.255,1.715c-0.061,0.593-0.097,1.116-0.106,1.568c-0.009,0.453,0.053,0.813,0.192,1.081
				C138.956,258.723,139.217,258.877,139.603,258.917z"/>
		</g>
		<g>
			<path style="fill:#263238;" d="M152.014,228.844l1.521-14.716c-0.173,0.074-0.367,0.147-0.584,0.216
				c-0.218,0.069-0.446,0.142-0.687,0.218c-0.241,0.075-0.472,0.147-0.696,0.216c-0.226,0.069-0.431,0.14-0.618,0.213l0.292-2.829
				c0.173-0.075,0.415-0.177,0.729-0.305c0.313-0.129,0.65-0.275,1.012-0.438c0.361-0.162,0.701-0.331,1.019-0.506
				c0.319-0.174,0.559-0.33,0.724-0.467l2.914,0.301l-1.91,18.48L152.014,228.844z"/>
			<path style="fill:#263238;" d="M163.793,230.407c-1.082-0.112-1.964-0.43-2.645-0.954c-0.681-0.524-1.165-1.2-1.454-2.029
				c-0.289-0.829-0.38-1.769-0.271-2.819l0.865-8.373c0.112-1.08,0.384-2.008,0.818-2.786c0.432-0.777,1.036-1.357,1.809-1.739
				c0.774-0.381,1.726-0.513,2.852-0.397c1.128,0.117,2.028,0.44,2.699,0.97c0.673,0.531,1.141,1.222,1.405,2.071
				c0.265,0.85,0.342,1.815,0.23,2.895l-0.865,8.373c-0.107,1.035-0.388,1.932-0.841,2.692c-0.453,0.76-1.067,1.327-1.84,1.701
				C165.781,230.386,164.861,230.518,163.793,230.407z M164.144,227.008c0.356,0.037,0.625-0.055,0.804-0.275
				c0.18-0.219,0.306-0.483,0.375-0.791c0.068-0.308,0.115-0.576,0.138-0.805l0.846-8.19c0.027-0.259,0.043-0.553,0.046-0.883
				c0.004-0.33-0.058-0.629-0.188-0.896c-0.13-0.266-0.38-0.419-0.751-0.457c-0.371-0.038-0.647,0.06-0.829,0.294
				c-0.18,0.235-0.303,0.515-0.367,0.839c-0.064,0.324-0.108,0.615-0.135,0.874l-0.846,8.19c-0.024,0.228-0.029,0.501-0.016,0.817
				c0.012,0.316,0.084,0.601,0.216,0.852C163.566,226.829,163.803,226.973,164.144,227.008z"/>
		</g>
		<g>
			<path style="fill:#263238;" d="M191.504,198.764l1.521-14.716c-0.173,0.074-0.367,0.147-0.584,0.216
				c-0.218,0.069-0.446,0.142-0.687,0.218c-0.241,0.075-0.472,0.147-0.697,0.216c-0.226,0.069-0.431,0.14-0.618,0.213l0.292-2.829
				c0.173-0.075,0.415-0.177,0.729-0.305c0.313-0.129,0.65-0.275,1.012-0.438c0.361-0.162,0.701-0.331,1.019-0.506
				c0.319-0.174,0.559-0.33,0.724-0.467l2.915,0.301l-1.91,18.48L191.504,198.764z"/>
			<path style="fill:#263238;" d="M200.159,199.658l1.521-14.716c-0.173,0.074-0.367,0.147-0.584,0.216
				c-0.219,0.069-0.446,0.142-0.687,0.218c-0.241,0.075-0.472,0.147-0.697,0.216c-0.226,0.069-0.431,0.14-0.618,0.213l0.292-2.829
				c0.173-0.075,0.415-0.177,0.729-0.305c0.313-0.129,0.65-0.275,1.012-0.438c0.361-0.162,0.701-0.331,1.019-0.506
				c0.319-0.174,0.559-0.33,0.724-0.467l2.915,0.301l-1.91,18.48L200.159,199.658z"/>
		</g>
	</g>
</g>
</svg>
